<svg xmlns="http://www.w3.org/2000/svg" width="159" height="216" fill="none" viewBox="0 0 159 216"><path stroke="#ECF8C1" stroke-linecap="round" stroke-width="10.269" d="M-3.28439 5.95861C-15.2932 20.4464 -26.5612 35.6566 -37.6884 50.8108C-46.8387 63.2728 -74.8119 96.6088 -60.2857 91.3155C-47.3268 86.5934 -34.9525 74.9514 -23.5581 67.3433C-21.0012 65.636 -18.7765 63.1026 -15.7907 62.3694C-14.8081 62.1281 -14.2339 64.1482 -14.5103 65.1215C-16.4616 71.9942 -30.7578 98.6234 -31.8733 100.829C-35.5081 108.014 -39.5297 115.027 -42.63 122.459C-45.8469 130.17 -49.088 136.838 -38.7055 132.306C-21.8333 124.942 -6.39585 113.428 10.3426 105.453C13.146 104.117 17.7046 101.128 20.9611 100.534C22.0024 100.344 20.7269 102.704 20.1825 103.612C16.7447 109.344 12.1994 115.592 8.3554 120.796C-0.355261 132.588 -9.53024 143.946 -19.0545 155.084C-19.9812 156.168 -29.6873 165.316 -20.8608 160.38C-9.32048 153.925 1.53394 146.273 12.7861 139.344C16.6801 136.946 26.3842 128.205 24.0917 138.228C20.8242 152.514 15.8913 166.658 11.0545 180.454C7.9474 189.316 3.36435 197.772 1.61113 206.998C0.0701572 215.107 10.9705 205.969 11.3228 205.769C34.8725 192.385 57.575 177.536 81.0994 164.092C104.817 150.538 128.568 140.095 153.579 129.529"/></svg>