<svg width="2024" height="1648" viewBox="0 0 2024 1648" fill="none" xmlns="http://www.w3.org/2000/svg">
<mask id="mask0_1031_14697" style="mask-type:alpha" maskUnits="userSpaceOnUse" x="0" y="23" width="2023" height="1625">
<path d="M0 1648H2022.64V36.456C2022.64 36.456 1881.71 -36.3533 1011.32 161.912C140.936 360.177 0 90.2228 0 90.2228V1648Z" fill="#2A310C"/>
</mask>
<g mask="url(#mask0_1031_14697)">
<path d="M0 1372.48H2022.64V36.456C2022.64 36.456 1881.71 -36.3533 1011.32 161.912C140.936 360.177 0 90.2228 0 90.2228V1372.48Z" fill="white"/>
<g style="mix-blend-mode:multiply" filter="url(#filter0_d_1031_14697)">
<path d="M0.0126953 -1102.02L2022.97 -1085.96L2016.99 22.093C2016.99 22.093 1735.04 -44.3621 1006.59 167.142C278.144 378.646 0.215909 199.444 0.215909 199.444L0.0126953 -1102.02Z" fill="#B7D24B"/>
</g>
</g>
<path opacity="0.6" d="M2023 11.3551C2023 11.3551 1873.89 -53.8101 1013.18 142.806C152.474 339.422 15.1914 77.902 15.1914 77.902" stroke="#CBDE7C" stroke-dasharray="4 4"/>
<defs>
<filter id="filter0_d_1031_14697" x="-15.9873" y="-1110.02" width="2054.95" height="1404.34" filterUnits="userSpaceOnUse" color-interpolation-filters="sRGB">
<feFlood flood-opacity="0" result="BackgroundImageFix"/>
<feColorMatrix in="SourceAlpha" type="matrix" values="0 0 0 0 0 0 0 0 0 0 0 0 0 0 0 0 0 0 127 0" result="hardAlpha"/>
<feOffset dy="8"/>
<feGaussianBlur stdDeviation="8"/>
<feComposite in2="hardAlpha" operator="out"/>
<feColorMatrix type="matrix" values="0 0 0 0 0 0 0 0 0 0 0 0 0 0 0 0 0 0 0.12 0"/>
<feBlend mode="normal" in2="BackgroundImageFix" result="effect1_dropShadow_1031_14697"/>
<feBlend mode="normal" in="SourceGraphic" in2="effect1_dropShadow_1031_14697" result="shape"/>
</filter>
</defs>
</svg>
