<svg width="2044" height="1648" viewBox="0 0 2044 1648" fill="none" xmlns="http://www.w3.org/2000/svg">
<mask id="mask0_1038_14698" style="mask-type:alpha" maskUnits="userSpaceOnUse" x="1" y="23" width="2042" height="1625">
<path d="M1 1648H2042.64V36.456C2042.64 36.456 1900.38 -36.3533 1021.82 161.912C143.259 360.177 1 90.2228 1 90.2228V1648Z" fill="#2A310C"/>
</mask>
<g mask="url(#mask0_1038_14698)">
<path d="M1 1372.48H2042.64V36.456C2042.64 36.456 1900.38 -36.3533 1021.82 161.912C143.259 360.177 1 90.2228 1 90.2228V1372.48Z" fill="white"/>
<g style="mix-blend-mode:multiply" filter="url(#filter0_d_1038_14698)">
<path d="M1.0127 -1102.02L2042.96 -1085.75L2037.01 22.3005C2037.01 22.3005 1752.4 -44.1834 1017.13 167.246C281.858 378.675 1.30797 199.445 1.30797 199.445L1.0127 -1102.02Z" fill="#B7D24B"/>
</g>
</g>
<path opacity="0.6" d="M2043 11.353C2043 11.353 1891.36 -53.7989 1015.99 142.777C140.621 339.353 1 77.8864 1 77.8864" stroke="#CBDE7C" stroke-dasharray="4 4"/>
<defs>
<filter id="filter0_d_1038_14698" x="-14.9873" y="-1110.02" width="2073.95" height="1404.38" filterUnits="userSpaceOnUse" color-interpolation-filters="sRGB">
<feFlood flood-opacity="0" result="BackgroundImageFix"/>
<feColorMatrix in="SourceAlpha" type="matrix" values="0 0 0 0 0 0 0 0 0 0 0 0 0 0 0 0 0 0 127 0" result="hardAlpha"/>
<feOffset dy="8"/>
<feGaussianBlur stdDeviation="8"/>
<feComposite in2="hardAlpha" operator="out"/>
<feColorMatrix type="matrix" values="0 0 0 0 0 0 0 0 0 0 0 0 0 0 0 0 0 0 0.12 0"/>
<feBlend mode="normal" in2="BackgroundImageFix" result="effect1_dropShadow_1038_14698"/>
<feBlend mode="normal" in="SourceGraphic" in2="effect1_dropShadow_1038_14698" result="shape"/>
</filter>
</defs>
</svg>
