<svg xmlns="http://www.w3.org/2000/svg" width="66" height="66" fill="none" viewBox="0 0 66 66"><path fill="#6F8321" d="M47.6925 19.5494C46.5797 20.1839 45.7615 20.8769 45.3099 21.5431L45.4956 23.3076L47.0694 22.6148C47.456 21.8897 47.6925 20.8271 47.6925 19.5494ZM44.1052 20.6029C43.7083 21.4153 43.4484 22.1802 43.3172 22.855L44.0356 25.0828L44.809 23.7601L44.5548 21.3572H44.556C44.4222 21.1103 44.2725 20.8587 44.1052 20.6029ZM42.407 23.1532C41.4677 25.3966 41.7752 26.9325 42.7148 27.3434L43.542 25.929L42.7759 23.5563C42.6597 23.4226 42.5372 23.2882 42.407 23.1532ZM48.1164 23.1616C47.9385 23.1605 47.7657 23.1648 47.5972 23.1724L45.4418 24.121L44.6684 25.4449L47.1059 24.9175C47.6101 24.4746 48.126 23.8892 48.6173 23.176C48.4469 23.1677 48.2795 23.1626 48.1164 23.1616ZM39.2767 23.4984C38.368 24.3958 37.7584 25.275 37.4965 26.034L38.1391 27.691L39.4771 26.6193C39.6606 25.8197 39.6114 24.7325 39.2767 23.4984ZM36.0877 25.434C35.9172 26.3197 35.8668 27.1241 35.9167 27.8091L37.1947 29.7787L37.5943 28.3039L36.7182 26.0471H36.7194C36.5258 25.8432 36.3159 25.638 36.0877 25.434ZM46.5427 25.7792L44.1749 26.2897L43.3563 27.6896C44.1649 28.3923 45.7193 27.9227 47.271 25.9276C47.0202 25.8677 46.7776 25.8186 46.5427 25.7792ZM41.1204 26.7651C40.7719 26.8393 40.4438 26.9258 40.1356 27.0222L38.2992 28.491L37.8996 29.9658L40.1161 28.8349C40.4872 28.2779 40.8325 27.5801 41.1204 26.7651ZM47.1854 27.7331C46.1747 28.518 45.4633 29.3188 45.112 30.0418L45.5507 31.7617L47.0083 30.8553C47.2869 30.0832 47.3694 28.9981 47.1854 27.7331ZM42.363 28.065C41.0167 31.0609 40.0408 34.2079 39.901 37.837H40.6329C40.772 34.3306 41.711 31.2937 43.0301 28.3583L42.363 28.065ZM35.1152 28.3317C34.7957 30.7395 35.495 32.144 36.5105 32.2999L36.9394 30.7214L35.5783 28.6262C35.4309 28.527 35.2768 28.429 35.1152 28.3317ZM43.7852 29.2791C43.5094 30.1382 43.3623 30.9309 43.3294 31.6169L44.3618 33.7253L44.9361 32.3071L44.3386 29.9634H44.341C44.1729 29.7376 43.9879 29.5092 43.7852 29.2791ZM40.5401 29.7668C40.2815 29.7729 40.0336 29.7876 39.796 29.8102L37.6443 30.9096L37.2204 32.4701C38.1857 32.9425 39.5639 32.0909 40.5401 29.7668ZM48.6223 31.1933C48.2676 31.2259 47.9317 31.2725 47.6143 31.3321L45.6143 32.5763L45.04 33.992L47.3761 33.1302C47.8116 32.6207 48.2383 31.9687 48.6223 31.1933ZM42.4718 32.0429C41.8647 34.3963 42.3899 35.8736 43.3795 36.1474L43.9942 34.6304L42.8957 32.3893C42.7616 32.2735 42.62 32.1582 42.4718 32.0429ZM36.3834 33.0314C35.8879 34.6238 35.5131 36.2193 35.3339 37.8371H36.0694C36.2456 36.303 36.6047 34.7772 37.0823 33.2425L36.3834 33.0314ZM46.9398 34.0608L44.6721 34.8984L44.0637 36.3997C44.9651 36.9828 46.4358 36.2991 47.6851 34.1054C47.4273 34.0812 47.1788 34.0667 46.9398 34.0608ZM43.1571 36.9053C43.0838 37.2032 43.0326 37.5139 43.0142 37.8371H43.7448C43.7624 37.5789 43.8054 37.3271 43.867 37.0768L43.1571 36.9053Z"/><path fill="#6F8321" d="M54.7618 27.387C55.7724 28.1719 56.4839 28.9727 56.8351 29.6957L56.3965 31.4155L54.9389 30.5091C54.6603 29.7371 54.5778 28.652 54.7618 27.387ZM58.162 28.933C58.4377 29.792 58.5849 30.5848 58.6178 31.2708L57.5853 33.3792L57.0111 31.961L57.6085 29.6173H57.6062C57.7743 29.3914 57.9593 29.1631 58.162 28.933ZM53.3249 30.8471C53.6796 30.8797 54.0155 30.9264 54.3328 30.9859L56.3329 32.2302L56.9072 33.6458L54.5711 32.7841C54.1355 32.2746 53.7088 31.6226 53.3249 30.8471ZM59.4754 31.6968C60.0825 34.0502 59.5573 35.5275 58.5676 35.8013L57.953 34.2843L59.0514 32.0432C59.1855 31.9273 59.3271 31.8121 59.4754 31.6968ZM55.0073 33.7147L57.275 34.5522L57.8835 36.0536C56.9821 36.6367 55.5113 35.953 54.2621 33.7593C54.5199 33.7351 54.7684 33.7205 55.0073 33.7147ZM58.7901 36.5592C58.8633 36.8571 58.9146 37.1677 58.933 37.491H58.2024C58.1848 37.2327 58.1418 36.9809 58.0802 36.7306L58.7901 36.5592Z"/><path fill="#6F8321" d="M24.6911 65.1121H23.0135C23.0135 62.0896 25.481 59.6335 28.5124 59.6335H65.7933V61.3072H28.5124C26.4061 61.3049 24.6911 63.0135 24.6911 65.1121ZM20.031 65.1121H18.3534C18.3534 59.5313 22.911 54.9906 28.5124 54.9906H65.7933V56.6644H28.5124C23.836 56.6621 20.031 60.4529 20.031 65.1121ZM15.3709 65.1121H13.6933C13.6933 56.9708 20.3409 50.3478 28.5124 50.3478H65.7933V52.0215H28.5124C21.2659 52.0192 15.3709 57.8924 15.3709 65.1121ZM10.7108 65.1121H9.03316C9.03316 62.0849 9.73218 59.218 10.9764 56.6621H0.551758V54.9906H11.8968C12.5515 53.9297 13.3042 52.9338 14.1453 52.0215H0.551758V50.3478H15.8835C17.2979 49.1453 18.887 48.1424 20.6065 47.3787H0.551758V45.7049H2.04299V29.1137C2.04299 27.0406 2.57425 25.014 3.58083 23.2544C4.68761 21.323 6.60291 20.1692 8.70695 20.1692C10.811 20.1692 12.7263 21.323 13.8331 23.2544C14.8397 25.014 15.3709 27.0406 15.3709 29.1137V31.5071C16.6687 30.7108 18.2392 30.3301 19.8283 30.4346C22.0349 30.5924 23.9828 31.6812 25.1688 33.4222C26.3804 35.1981 27.0189 37.2433 27.0189 39.3372V45.7653C27.5105 45.7281 28.0091 45.7096 28.5101 45.7096H39.3215L43.136 45.7049H59.3336C59.3336 45.7049 50.6468 45.7049 37.3884 45.7096H34.5146H65.7933V47.3833H28.5124C18.6959 47.3764 10.7108 55.3319 10.7108 65.1121ZM20.031 45.7049H25.3435V39.3349C25.3435 37.5776 24.803 35.8574 23.7824 34.3601C22.883 33.0462 21.3988 32.2221 19.7048 32.099C17.9736 31.976 16.2587 32.6213 15.1496 33.8308C14.9142 34.0862 14.5484 34.1697 14.2269 34.0444C13.9053 33.919 13.6933 33.6103 13.6933 33.2667V29.1137C13.6933 27.3308 13.2366 25.5897 12.3745 24.0831C11.5706 22.6787 10.2005 21.8406 8.70695 21.8406C7.21339 21.8406 5.84331 22.6787 5.03944 24.0808C4.17499 25.5897 3.72063 27.3285 3.72063 29.1113V45.7026H6.7031V27.9692H8.38074V45.7049H18.3534V37.2549H20.031V45.7049ZM58.4769 16.3621H56.7993V14.0406H58.4793L58.4769 16.3621ZM62.8108 14.5722L61.1635 12.9287L62.3518 11.7471L63.9992 13.3906L62.8108 14.5722ZM52.4654 14.5722L51.2771 13.3906L52.9244 11.7471L54.1127 12.9287L52.4654 14.5722ZM57.6381 12.5549C55.2498 12.5549 53.3042 10.6188 53.3042 8.23706C53.3042 5.85528 55.2498 3.9192 57.6381 3.9192C60.0264 3.9192 61.972 5.85528 61.972 8.23706C61.972 10.6188 60.0264 12.5549 57.6381 12.5549ZM57.6381 5.59063C56.1725 5.59063 54.9818 6.7792 54.9818 8.23706C54.9818 9.69492 56.1725 10.8835 57.6381 10.8835C59.1037 10.8835 60.2944 9.69492 60.2944 8.23706C60.2944 6.7792 59.1037 5.59063 57.6381 5.59063ZM65.7933 9.07277H63.4633V7.40135H65.7933V9.07277ZM51.813 9.07277H49.4829V7.40135H51.813V9.07277ZM61.6691 43.5692H54.6789V41.8978H61.6691V43.5692ZM50.0188 43.5692H33.7084V41.8978H50.0188V43.5692ZM62.3495 4.72474L61.1612 3.54313L62.8085 1.89956L63.9968 3.08117L62.3495 4.72474ZM52.9267 4.72474L51.2794 3.08117L52.4677 1.89956L54.1151 3.54313L52.9267 4.72474ZM58.4769 2.43349H56.7993V0.112061H58.4793L58.4769 2.43349ZM63.9992 38.9264H33.7084V37.255H63.9992V38.9264Z"/></svg>