<svg width="82" height="68" viewBox="0 0 82 68" fill="none" xmlns="http://www.w3.org/2000/svg">
<path d="M81.501 46.6874L81.3018 45.9486C81.247 45.7482 80.2091 42.0448 77.2165 40.3881C79.9423 38.1947 80.538 35.4428 80.5678 35.2978L80.7317 34.4944L80.072 34.0357C79.8948 33.9127 78.2557 32.8285 75.4812 32.8285C73.2409 32.8285 70.9202 33.535 68.5824 34.9287C66.3306 36.2711 65.7842 38.4024 65.3024 40.2821C64.6896 42.6771 64.1914 44.5799 60.5477 45.4485C60.2497 45.4116 59.9526 45.3679 59.6566 45.3176L60.9503 44.0994C60.9503 44.0994 58.1143 45.013 57.0447 44.1012C56.9838 44.0494 56.9162 43.9367 56.9211 43.6949C56.9308 43.2527 57.5253 39.2752 57.5265 38.1228C60.0635 37.5283 61.3146 34.9122 60.2352 34.2544C59.4732 33.789 58.5151 34.9969 56.7414 35.3867C56.7579 35.1534 56.7627 34.9055 56.7378 34.6302C56.5995 33.0916 58.7691 32.4965 58.506 31.7035C58.1643 30.6747 55.3727 31.3094 54.0309 33.574C53.8685 33.8539 53.7436 34.1539 53.6593 34.4664C53.5972 34.2241 53.5151 33.9873 53.4139 33.7586C52.7895 32.3516 54.7393 31.0798 54.143 30.3951C53.3542 29.49 51.0591 31.0865 50.5194 33.68C50.4129 34.2239 50.4275 34.7845 50.562 35.3222C50.5084 35.2753 50.464 35.229 50.4055 35.1815C49.4139 34.3908 50.4219 32.7158 49.6782 32.4064C48.6184 31.9636 47.6596 34.1423 48.2371 36.2724C48.3589 36.7207 48.6062 37.1696 48.9229 37.5125C46.9238 37.7385 45.4486 39.6626 45.3834 39.7503L44.9546 40.3193L45.6496 40.2395C45.6575 40.2382 45.8195 40.2212 46.0693 40.2212C46.4183 40.2212 46.897 40.2626 47.3679 40.4039C46.7094 41.1007 46.0918 41.9486 45.705 42.9421C44.8127 45.2311 46.8379 44.0451 47.2503 44.0951C47.2503 44.0951 47.4458 44.3765 47.6919 44.5641C47.6895 44.7011 47.6791 44.8297 47.6791 44.9692C47.6791 46.7557 48.0489 51.9209 48.0647 52.1395L48.1755 53.6769L49.0941 52.5007C50.7234 57.2292 54.5084 61.1171 58.9494 62.1069C59.5037 62.7885 60.3625 63.5066 61.3365 63.8106C59.8442 65.9333 57.0825 66.1434 57.0825 66.6862H65.5406C65.5406 66.1252 64.0373 66.2592 63.0042 63.8246C64.0604 63.4683 65.0161 62.4224 65.6465 61.3802C68.4259 60.1249 70.7722 57.7616 72.3016 54.9049C73.9079 55.4427 75.2924 55.5188 75.4044 55.5237L76.2882 55.5621L76.5727 54.6978C76.619 54.5577 77.5339 51.7259 77.1605 49.0179C79.391 48.5714 80.8687 47.2588 80.9424 47.1924L81.501 46.6874ZM47.8472 39.9288C47.3112 39.7156 46.749 39.6346 46.3038 39.6163C46.8873 39.0267 47.9782 38.1374 49.2323 38.1039C49.0374 38.4456 48.8577 38.8142 48.6939 39.2095C48.4222 39.419 48.136 39.6596 47.8472 39.9288ZM48.8602 44.9685C48.8602 41.6441 49.6733 39.3002 50.8361 37.8323C50.8775 37.7994 50.9208 37.7689 50.9622 37.73C51.296 37.4163 52.1232 36.9223 52.6263 36.7834C53.0015 36.6805 53.9432 36.7219 54.534 37.1409C55.0773 37.5289 55.4763 38.2087 56.2694 38.2422C56.2943 38.2434 56.3175 38.2398 56.3424 38.2404C56.3199 39.3459 55.7516 43.1467 55.7406 43.6675C55.7291 44.1798 55.8887 44.6238 56.2011 44.9527C56.457 45.2219 56.8054 45.4089 57.2427 45.5119L55.9276 46.4146L57.0064 47.7223L54.202 47.422L54.6187 49.9175L52.0714 48.0269L51.7205 50.9073L50.2489 49.0806L49.1379 50.5035C49.0234 48.7882 48.8602 46.1131 48.8602 44.9685ZM65.0112 60.335L64.8303 60.4136L64.7304 60.5878C64.0044 61.8578 62.9927 62.744 62.2715 62.744C61.4669 62.744 60.4283 62.102 59.7455 61.1841L59.6091 61.0008L59.3898 60.9563C55.0298 60.0804 51.3277 56.1145 49.9724 51.3757L50.263 51.0048L52.5526 53.8462L52.9954 50.2129L56.2724 52.6469L55.631 48.8004L59.5999 49.2262C58.026 50.4328 57.2756 52.2571 57.6222 54.1526C58.0272 56.3631 59.8344 58.0058 62.2258 58.3384C62.7789 58.4151 63.3265 58.4535 63.8546 58.4535C67.9794 58.4535 69.9316 56.1334 70.012 56.0341L70.2416 55.7546L70.1095 55.4141C69.7872 54.5833 69.1337 53.9547 68.5964 53.5496C69.8098 52.5574 70.5157 51.2143 70.5511 51.1467L70.8532 50.5644L70.266 50.3006C69.6788 50.0369 68.2432 49.8487 67.1864 49.739C67.4102 49.4324 67.6178 49.1142 67.8083 48.7858L68.206 48.0859L67.4422 47.8886C67.3995 47.877 66.3805 47.6181 64.9564 47.6181C63.1876 47.6181 61.6155 48.0049 60.2846 48.7681C60.086 48.8826 59.9051 49.0112 59.7254 49.1421L57.6873 46.6692L58.224 46.3013C59.4672 46.526 60.5404 46.7203 61.2171 46.7203C63.737 46.7203 66.1028 45.9833 68.0044 45.3907C69.3578 44.9698 70.5267 44.6049 71.3849 44.6049C71.9983 44.6049 73.0246 44.6049 73.0246 47.5353C73.024 52.9484 69.6539 58.3311 65.0112 60.335ZM65.9499 50.8519C66.8367 50.9189 68.2182 51.0645 69.0965 51.2332C68.7055 51.7929 68.0568 52.5738 67.2241 53.0313L66.196 53.5977L67.2479 54.1185C67.2601 54.1246 68.3126 54.6539 68.8395 55.5207C68.2383 56.0676 66.6296 57.2353 63.8533 57.2353C63.3776 57.2353 62.883 57.2 62.3829 57.1305C60.1025 56.8132 59.028 55.2673 58.7819 53.9254C58.4859 52.3058 59.2808 50.7374 60.8584 49.8322C62.012 49.1714 63.3904 48.8357 64.9564 48.8357C65.4772 48.8357 65.9389 48.8747 66.3032 48.921C66.1015 49.2061 65.85 49.5301 65.5753 49.814L64.6659 50.7544L65.9499 50.8519ZM75.6913 47.9465C76.6677 50.6186 75.4532 54.3061 75.4532 54.3061C75.4532 54.3061 74.2514 54.2513 72.8364 53.8073C73.7105 51.8398 74.2051 49.6897 74.2051 47.5353C74.2051 45.7549 73.9127 43.3867 71.3837 43.3867C70.3507 43.3867 69.105 43.7753 67.6621 44.2242C66.5188 44.5805 65.2841 44.9618 63.9782 45.2146C67.268 42.629 65.6362 38.0918 69.1727 35.9824C71.6724 34.4926 73.8122 34.0461 75.48 34.0461C77.9736 34.0461 79.4105 35.0456 79.4105 35.0456C79.4105 35.0456 78.6187 38.9159 74.146 40.8175C78.6985 40.8571 80.1622 46.2757 80.1622 46.2757C80.1622 46.2757 78.3135 47.9465 75.6913 47.9465Z" fill="#455214"/>
<path d="M47.9424 39.0785C48.161 39.0785 48.3383 38.9896 48.3383 38.8799C48.3383 38.7702 48.161 38.6813 47.9424 38.6813C47.7237 38.6813 47.5465 38.7702 47.5465 38.8799C47.5465 38.9896 47.7237 39.0785 47.9424 39.0785Z" fill="#455214"/>
<path d="M51.2496 39.9922C51.7542 39.9922 52.1633 39.5831 52.1633 39.0785C52.1633 38.5739 51.7542 38.1649 51.2496 38.1649C50.745 38.1649 50.336 38.5739 50.336 39.0785C50.336 39.5831 50.745 39.9922 51.2496 39.9922Z" fill="#455214"/>
<path d="M2.25537 23.6031C17.7612 15.5229 32.9624 16.3032 49.7114 20.554M10.2509 17.5065C17.5049 -5.94649 35.1736 -1.13809 41.4584 17.6728M10.8635 25.6657C7.58419 25.7805 10.8635 28.9927 12.913 30.5846C10.8635 50.0555 40.7871 49.6456 38.7375 29.15C40.104 27.9202 42.0168 25.2968 38.7375 24.6409M21.9311 28.3304C21.9311 27.6495 21.9311 26.9638 21.9311 26.2808M29.5144 28.3304C29.0764 27.6508 29.1049 26.9695 29.1049 26.2808M28.8346 35.9136C27.1491 37.1725 24.3981 37.1725 23.1606 36.484M4.84611 63.1043C4.11671 41.845 36.6365 42.7749 41.8618 50.7041C44.4949 54.6995 45.0157 60.7543 45.8421 65.6325M15.9244 55.7482C21.8335 54.9971 28.3009 56.2326 33.9782 55.8257M35.2916 48.8721C34.0887 54.0633 35.1885 59.1378 35.1885 64.3431M15.1871 51.193C15.6876 55.5163 15.3162 60.0688 15.8881 64.3434" stroke="#455214" stroke-width="2.79724" stroke-linecap="round" stroke-linejoin="round"/>
</svg>
