<svg xmlns="http://www.w3.org/2000/svg" width="95" height="69" fill="none" viewBox="0 0 95 69"><path stroke="#6F8321" stroke-linecap="round" stroke-linejoin="round" stroke-width="2.797" d="M45.1846 24.3902C60.9458 16.1769 76.3975 16.97 93.4226 21.2908M53.3118 18.1932C60.6854 -5.6463 78.6452 -0.758664 85.0335 18.3621M53.9345 26.4868C50.6012 26.6034 53.9345 29.8687 56.0178 31.4868C53.9345 51.2785 84.3512 50.8618 82.2679 30.0285C83.6568 28.7784 85.6012 26.1118 82.2679 25.4451M65.1845 29.1954C65.1845 28.5033 65.1845 27.8062 65.1845 27.1121M72.8927 29.1954C72.4475 28.5046 72.4765 27.8121 72.4765 27.1121M72.2018 36.9036C70.4885 38.1832 67.6922 38.1832 66.4343 37.4834M47.818 64.5423C47.0766 42.9327 80.1322 43.8779 85.4437 51.9377C88.1201 55.999 88.6495 62.1536 89.4895 67.1121M59.0788 57.065C65.0853 56.3015 71.6592 57.5573 77.4301 57.1438M78.7652 50.0756C77.5425 55.3523 78.6604 60.5104 78.6604 65.8015M58.3294 52.4347C58.8381 56.8293 58.4606 61.4568 59.0419 65.8018"/><path fill="#6F8321" d="M16.3 47.3878C15.6045 47.7925 15.0931 48.2346 14.8108 48.6595L14.9269 49.785L15.9105 49.3431C16.1522 48.8805 16.3 48.2028 16.3 47.3878ZM14.0578 48.0598C13.8097 48.578 13.6473 49.0658 13.5652 49.4963L14.0143 50.9173L14.4977 50.0736L14.3388 48.5409H14.3396C14.2559 48.3834 14.1624 48.2229 14.0578 48.0598ZM12.9963 49.6865C12.4092 51.1175 12.6014 52.0972 13.1887 52.3593L13.7058 51.4571L13.2269 49.9436C13.1543 49.8584 13.0777 49.7726 12.9963 49.6865ZM16.565 49.6919C16.4538 49.6912 16.3458 49.6939 16.2405 49.6988L14.8932 50.3038L14.4098 51.1483L15.9334 50.8119C16.2486 50.5293 16.571 50.156 16.8781 49.701C16.7716 49.6957 16.667 49.6925 16.565 49.6919ZM11.0397 49.9067C10.4718 50.4791 10.0907 51.0399 9.92703 51.524L10.3287 52.581L11.165 51.8974C11.2797 51.3874 11.2489 50.6939 11.0397 49.9067ZM9.04642 51.1413C8.93987 51.7063 8.90835 52.2194 8.93953 52.6563L9.73837 53.9127L9.98812 52.9719L9.44054 51.5324H9.44127C9.32025 51.4023 9.18907 51.2715 9.04642 51.1413ZM15.5814 51.3615L14.1013 51.6871L13.5897 52.5801C14.0951 53.0283 15.0667 52.7288 16.0366 51.4562C15.8799 51.4179 15.7282 51.3866 15.5814 51.3615ZM12.1921 51.9904C11.9743 52.0377 11.7692 52.0929 11.5766 52.1544L10.4287 53.0912L10.179 54.032L11.5644 53.3107C11.7964 52.9553 12.0122 52.5103 12.1921 51.9904ZM15.9831 52.6078C15.3514 53.1085 14.9067 53.6193 14.6871 54.0805L14.9613 55.1775L15.8724 54.5993C16.0465 54.1069 16.0981 53.4147 15.9831 52.6078ZM12.9688 52.8196C12.1273 54.7305 11.5173 56.7379 11.43 59.0527H11.8874C11.9744 56.8161 12.5613 54.879 13.3858 53.0066L12.9688 52.8196ZM8.4386 52.9897C8.23886 54.5255 8.67599 55.4214 9.31072 55.5208L9.57881 54.5139L8.72802 53.1775C8.63589 53.1142 8.53955 53.0518 8.4386 52.9897ZM13.8578 53.594C13.6854 54.1419 13.5934 54.6476 13.5729 55.0851L14.2182 56.43L14.5771 55.5254L14.2037 54.0305H14.2052C14.1001 53.8864 13.9845 53.7407 13.8578 53.594ZM11.8294 53.905C11.6678 53.909 11.5128 53.9183 11.3643 53.9327L10.0194 54.634L9.7544 55.6294C10.3578 55.9307 11.2192 55.3875 11.8294 53.905ZM16.8812 54.8149C16.6595 54.8357 16.4495 54.8655 16.2512 54.9035L15.001 55.6971L14.6421 56.6001L16.1023 56.0505C16.3745 55.7255 16.6412 55.3096 16.8812 54.8149ZM13.0368 55.3569C12.6574 56.858 12.9856 57.8003 13.6042 57.975L13.9884 57.0074L13.3018 55.5779C13.218 55.504 13.1295 55.4304 13.0368 55.3569ZM9.23127 55.9874C8.92154 57.0031 8.68728 58.0209 8.57526 59.0528H9.03501C9.14515 58.0743 9.36957 57.101 9.66808 56.122L9.23127 55.9874ZM15.8296 56.644L14.4122 57.1783L14.0318 58.1359C14.5953 58.5079 15.5146 58.0717 16.2954 56.6725C16.1343 56.6571 15.979 56.6478 15.8296 56.644ZM13.4652 58.4584C13.4194 58.6484 13.3874 58.8466 13.3758 59.0528H13.8325C13.8435 58.8881 13.8704 58.7274 13.9089 58.5678L13.4652 58.4584Z"/><path fill="#6F8321" d="M33.1973 55.0533C33.5718 55.2731 33.8472 55.513 33.9991 55.7437L33.9366 56.3547L33.407 56.1148C33.2768 55.8637 33.1973 55.4958 33.1973 55.0533ZM34.4046 55.4181C34.5382 55.6995 34.6257 55.9643 34.6698 56.198L34.428 56.9694L34.1678 56.5114L34.2533 55.6793C34.2983 55.5938 34.3483 55.5067 34.4046 55.4181ZM34.9762 56.3012C35.2923 57.078 35.1888 57.6099 34.8726 57.7522L34.5942 57.2624L34.852 56.4408C34.8911 56.3945 34.9324 56.348 34.9762 56.3012ZM33.0546 56.3041C33.1144 56.3038 33.1726 56.3053 33.2293 56.3079L33.9548 56.6363L34.215 57.0948L33.3947 56.9122C33.225 56.7588 33.0514 56.5561 32.886 56.3091C32.9433 56.3062 32.9997 56.3045 33.0546 56.3041ZM36.0297 56.4207C36.3356 56.7315 36.5407 57.0359 36.6289 57.2987L36.4126 57.8725L35.9623 57.5014C35.9005 57.2246 35.9171 56.8481 36.0297 56.4207ZM37.103 57.091C37.1604 57.3977 37.1774 57.6762 37.1606 57.9134L36.7305 58.5954L36.596 58.0847L36.8908 57.3033C36.956 57.2327 37.0262 57.1616 37.103 57.091ZM33.5842 57.2105L34.3812 57.3873L34.6567 57.872C34.3845 58.1154 33.8614 57.9527 33.3391 57.2619C33.4235 57.2412 33.5052 57.2242 33.5842 57.2105ZM35.4092 57.5519C35.5265 57.5776 35.6369 57.6076 35.7407 57.6409L36.3587 58.1495L36.4932 58.6602L35.7472 58.2686C35.6223 58.0757 35.5061 57.8341 35.4092 57.5519ZM33.3679 57.8871C33.7081 58.1589 33.9475 58.4362 34.0657 58.6865L33.9181 59.2821L33.4275 58.9682C33.3338 58.7009 33.306 58.3251 33.3679 57.8871ZM34.991 58.002C35.4441 59.0394 35.7725 60.1291 35.8196 61.3857H35.5733C35.5264 60.1716 35.2104 59.12 34.7665 58.1036L34.991 58.002ZM37.4303 58.0944C37.5379 58.9281 37.3025 59.4144 36.9607 59.4684L36.8164 58.9218L37.2745 58.1964C37.3241 58.162 37.376 58.1281 37.4303 58.0944ZM34.5123 58.4224C34.6051 58.7199 34.6547 58.9944 34.6657 59.2319L34.3182 59.962L34.125 59.4709L34.326 58.6594H34.3253C34.3818 58.5812 34.4441 58.5021 34.5123 58.4224ZM35.6045 58.5913C35.6915 58.5934 35.775 58.5985 35.855 58.6063L36.5791 58.987L36.7218 59.5274C36.3969 59.6909 35.9331 59.3961 35.6045 58.5913ZM32.8843 59.0852C33.0037 59.0965 33.1168 59.1127 33.2236 59.1333L33.8967 59.5641L34.09 60.0543L33.3037 59.7559C33.1572 59.5795 33.0135 59.3538 32.8843 59.0852ZM34.9544 59.3794C35.1587 60.1943 34.9819 60.7059 34.6488 60.8007L34.442 60.2754L34.8117 59.4994C34.8568 59.4593 34.9045 59.4194 34.9544 59.3794ZM37.0035 59.7217C37.1703 60.2731 37.2964 60.8256 37.3568 61.3858H37.1092C37.0499 60.8546 36.929 60.3262 36.7683 59.7948L37.0035 59.7217ZM33.4506 60.0782L34.2138 60.3682L34.4186 60.8881C34.1152 61.09 33.6202 60.8532 33.1997 60.0936C33.2865 60.0852 33.3701 60.0802 33.4506 60.0782ZM34.7237 61.0631C34.7484 61.1663 34.7656 61.2739 34.7718 61.3858H34.5259C34.52 61.2964 34.5055 61.2092 34.4848 61.1225L34.7237 61.0631Z"/><path fill="#6F8321" fill-rule="evenodd" d="M1.83013 60.0675C1.83013 57.9877 2.68322 58.3106 4.00066 56.4974C4.89602 55.2651 4.70705 54.0429 4.70705 52.0053C4.70705 48.5036 4.70705 45.0018 4.70705 41.5001C7.05613 42.6487 12.201 43.536 14.6164 43.536C18.0991 43.536 20.1402 43.3675 23.3911 42.4612L26.2839 41.5001C26.2839 44.9747 26.2839 48.4493 26.2839 51.9239C26.2839 53.9058 26.0909 55.2389 26.9562 56.4507C28.2739 58.2962 29.1608 57.9649 29.1608 60.0675C29.1608 61.1592 28.0675 62.1034 26.6835 62.1034H4.30747C3.62825 62.1034 2.98291 61.8901 2.60758 61.5554C2.27426 61.2582 1.83013 60.6666 1.83013 60.0675ZM2.22971 37.6726C2.22971 37.1456 2.57011 36.4716 2.84546 36.1827C3.21701 35.793 3.67129 35.5201 4.31764 35.504C4.89715 35.4895 5.47528 35.8507 5.91603 36.0334C11.7759 38.4635 18.2137 38.7474 24.1727 36.417C25.5089 35.8945 25.7161 35.5553 26.9232 35.5553C28.9786 35.5553 29.7664 39.3032 26.8551 39.802C26.4454 39.8722 23.3211 41.4683 19.6469 41.9845C14.2683 42.7403 9.40536 42.139 4.49735 39.9222C4.24824 39.8097 2.22971 39.601 2.22971 37.6726ZM25.0053 34.7409L22.9576 35.5046C22.1747 35.7706 21.5712 35.9397 20.7222 36.1583C16.6025 37.2188 12.065 36.874 8.0936 35.5245L5.98569 34.7409C5.98569 33.7609 7.06498 32.383 7.55922 31.784C8.87757 30.1862 10.7903 28.7531 12.5537 27.6713C12.9646 27.4192 15.1967 26.0642 15.4955 26.0642C16.1359 26.0642 20.2794 28.8965 21.0909 29.5276L21.9925 30.319C22.1389 30.4452 22.1582 30.4339 22.3076 30.568C22.5121 30.7515 22.6693 30.937 22.8679 31.137L24.3411 33.0561C24.5903 33.4826 24.992 34.1329 25.0053 34.7409ZM4.78697 34.2523C3.69906 34.2523 2.90263 34.3611 2.04944 35.1273C-0.0304385 36.9951 1.1097 40.3796 3.42843 40.93L3.43142 54.37C3.43833 56.7625 0.551514 56.622 0.551514 59.986C0.551514 61.6585 2.18682 63.3249 3.828 63.3249H27.1629C28.8041 63.3249 30.4394 61.6585 30.4394 59.986C30.4394 56.6485 27.5625 56.7668 27.5625 54.4484V41.0929C27.5625 40.6912 28.044 41.0033 29.1831 39.8127C30.3152 38.6294 30.1813 36.3703 28.9032 35.1663C28.1254 34.4337 27.295 34.2523 26.204 34.2523C26.1335 33.3886 24.9197 31.5483 24.4266 31.0145C24.0197 30.574 23.6771 30.1022 23.2236 29.7159C22.2946 28.9246 21.434 28.1567 20.4024 27.4603C19.56 26.8916 16.115 24.7243 15.4955 24.7243C14.8972 24.7243 11.505 26.8396 10.6847 27.3954C10.1459 27.7604 9.72196 28.1012 9.20484 28.4934C8.08391 29.3435 6.92245 30.5125 6.0763 31.6572C5.64866 32.2358 4.84344 33.5607 4.78697 34.2523Z" clip-rule="evenodd"/><path fill="#6F8321" d="M23.6561 63.3249C23.5617 63.5532 23.5113 63.848 23.5113 64.2842C23.5113 64.7319 23.8444 65.174 24.0944 65.3961C24.3759 65.6462 24.8599 65.8055 25.3693 65.8055H42.1513C43.1894 65.8055 44.0093 65.1 44.0093 64.2842C44.0093 63.2686 43.7314 63.0129 43.2678 62.5866C43.0143 62.3534 42.7053 62.0692 42.3558 61.5816C41.8118 60.8225 41.8256 59.9998 41.8442 58.8812C41.8479 58.6653 41.8516 58.4384 41.8516 58.1989V50.4097L39.6821 51.1279C37.2439 51.8051 35.713 51.931 33.101 51.931C31.6434 51.931 29.5121 51.6687 27.5625 51.0539V50.054C30.7753 51.236 33.3514 51.2648 36.8739 50.7717C38.9705 50.4782 40.8283 49.7176 41.7324 49.3475C42.0166 49.2311 42.2065 49.1533 42.2801 49.1408C44.4635 48.7681 43.8726 45.9674 42.3311 45.9674C41.6971 45.9674 41.4309 46.0917 40.9841 46.3003C40.7929 46.3896 40.5686 46.4943 40.2682 46.6113C35.9123 48.3086 31.8669 48.4115 27.5625 46.7212V45.7213L28.2089 45.9445C31.1875 46.9528 34.5906 47.2105 37.6804 46.418C38.3171 46.2547 38.7697 46.1283 39.3569 45.9295L40.8927 45.3589C40.8833 44.9295 40.6136 44.4719 40.4263 44.1539L40.3945 44.0999L39.2897 42.6658C39.236 42.612 39.1864 42.5596 39.1377 42.5081C39.0512 42.4167 38.9675 42.3284 38.8694 42.2406C38.8102 42.1877 38.7782 42.1651 38.745 42.1416C38.7154 42.1207 38.6848 42.099 38.633 42.0546L37.9569 41.4632C37.3483 40.9916 34.2407 38.8752 33.7603 38.8752C33.5362 38.8752 31.8622 39.8877 31.554 40.0761C30.2314 40.8845 28.7969 41.9554 27.8081 43.1493C27.5786 43.4266 27.8081 43.1493 27.5625 43.4297V42.0552C28.1712 41.292 28.2931 41.2566 29.0423 40.6904C29.135 40.6204 29.2237 40.5526 29.3105 40.4862L29.3109 40.4859C29.5872 40.2745 29.8449 40.0774 30.1522 39.8699C30.7675 39.4546 33.3116 37.8739 33.7603 37.8739C34.225 37.8739 36.8087 39.4935 37.4405 39.9185C38.107 40.3668 38.6784 40.8547 39.2693 41.3593C39.3644 41.4405 39.4599 41.522 39.5564 41.6039C39.784 41.7971 39.9743 42.0188 40.1668 42.243C40.2619 42.3539 40.3577 42.4654 40.4587 42.5743C40.8285 42.9732 41.7388 44.3484 41.7917 44.9938C42.61 44.9938 43.2328 45.1293 43.8161 45.6768C44.7747 46.5765 44.8751 48.2646 44.026 49.1488C43.542 49.6528 43.2163 49.7965 43.0249 49.8809C42.8784 49.9454 42.8106 49.9753 42.8106 50.1054V60.0853C42.8106 60.8729 43.2565 61.2841 43.7428 61.7328C44.3264 62.271 44.9683 62.8631 44.9683 64.2234C44.9683 65.4731 43.7418 66.7183 42.5109 66.7183H25.0097C23.7788 66.7183 22.5523 65.4731 22.5523 64.2234C22.5523 63.8785 22.5931 63.5828 22.6634 63.3249H23.6561Z"/></svg>