<svg xmlns="http://www.w3.org/2000/svg" width="61" height="60" fill="none" viewBox="0 0 61 60"><path fill="#B7D24B" d="M55.125 52.875L37.625 35.375C37.5128 35.2554 37.3772 35.1601 37.2267 35.095C37.0762 35.0298 36.914 34.9962 36.75 34.9962C36.586 34.9962 36.4238 35.0298 36.2733 35.095C36.1228 35.1601 35.9872 35.2554 35.875 35.375L31.75 39.475L20.5 28.225V22.5H28V25C28 25.3315 28.1317 25.6495 28.3661 25.8839C28.6005 26.1183 28.9185 26.25 29.25 26.25H44.25C44.4805 26.2474 44.7062 26.1834 44.9039 26.0648C45.1016 25.9462 45.2642 25.7772 45.375 25.575C45.4733 25.3672 45.5136 25.1366 45.4916 24.9078C45.4696 24.6789 45.3861 24.4603 45.25 24.275L40.8 18.125L45.25 11.975C45.4067 11.802 45.5129 11.5892 45.5569 11.36C45.601 11.1308 45.5813 10.8938 45.5 10.675C45.3796 10.4533 45.1973 10.2715 44.9754 10.1517C44.7534 10.0318 44.5014 9.97911 44.25 10H35.5V6.25C35.5 5.91848 35.3683 5.60054 35.1339 5.36612C34.8995 5.1317 34.5815 5 34.25 5H19.25C18.9185 5 18.6005 5.1317 18.3661 5.36612C18.1317 5.60054 18 5.91848 18 6.25V28.225L6.6 39.625C5.90112 40.3307 5.50628 41.2819 5.5 42.275V51.25C5.5 52.2446 5.89509 53.1984 6.59835 53.9017C7.30161 54.6049 8.25544 55 9.25 55H54.25C54.4968 54.9988 54.7377 54.9245 54.9423 54.7866C55.147 54.6487 55.3062 54.4533 55.4 54.225C55.5021 53.9997 55.5305 53.7479 55.4811 53.5055C55.4317 53.2631 55.3071 53.0424 55.125 52.875ZM41.8 12.5L38.25 17.5C38.0918 17.7086 38.0062 17.9632 38.0062 18.225C38.0062 18.4868 38.0918 18.7414 38.25 18.95L41.8 23.95H30.5V22.5H34.25C34.5815 22.5 34.8995 22.3683 35.1339 22.1339C35.3683 21.8995 35.5 21.5815 35.5 21.25V12.5H41.8ZM33 20H20.5V7.5H33V20ZM9.25 52.5C8.91848 52.5 8.60054 52.3683 8.36612 52.1339C8.1317 51.8995 8 51.5815 8 51.25V42.275C7.998 42.1111 8.03033 41.9485 8.09492 41.7978C8.1595 41.6471 8.25491 41.5116 8.375 41.4L19.25 30.525L30.875 42.125L41.225 52.5H9.25ZM44.775 52.5L33.525 41.25L36.75 38.025L51.225 52.5H44.775Z"/></svg>