<svg width="60" height="60" viewBox="0 0 60 60" fill="none" xmlns="http://www.w3.org/2000/svg">
<path d="M32.7789 1.20434C32.0617 0.43887 31.0489 0 30.0002 0C28.9515 0 27.9387 0.438987 27.2216 1.20434C26.5044 1.9697 26.1322 3.00892 26.2005 4.05565L26.392 6.99074C26.4678 8.15126 27.0805 9.21287 28.031 9.83045C28.6291 10.2192 29.3148 10.4133 30.0003 10.4133C30.6859 10.4133 31.3717 10.219 31.9696 9.83057C32.92 9.21298 33.5327 8.15149 33.6085 6.99086L33.7999 4.05565C33.8683 3.00904 33.4961 1.96982 32.7789 1.20434ZM31.4148 3.90014L31.2233 6.83512C31.1965 7.24704 30.9887 7.61735 30.6675 7.82606C30.262 8.08938 29.7385 8.08915 29.3333 7.82606C29.0121 7.61735 28.8044 7.2468 28.7774 6.83512L28.5859 3.90014C28.5602 3.50486 28.6951 3.12787 28.966 2.83877C29.2369 2.54978 29.6041 2.39052 30.0002 2.39052C30.3963 2.39052 30.7635 2.54978 31.0344 2.83877C31.3056 3.12787 31.4405 3.50486 31.4148 3.90014Z" fill="#6F8321"/>
<path d="M39.4537 17.4329L39.1217 15.5997C38.685 13.1899 36.7758 11.2666 34.3708 10.8137C34.0076 10.7453 33.6365 10.7106 33.2672 10.7106H32.2671C31.9501 10.7106 31.6461 10.8366 31.422 11.0607C31.0423 11.4404 30.5374 11.6496 30.0002 11.6496C29.463 11.6496 28.9582 11.4404 28.5785 11.0607C28.3543 10.8366 28.0503 10.7106 27.7333 10.7106H26.7333C26.3641 10.7106 25.9929 10.7453 25.6297 10.8137C23.2246 11.2664 21.3154 13.1898 20.8788 15.5997L20.5468 17.4329C20.4836 17.7814 20.5784 18.1401 20.8054 18.412C21.0326 18.6839 21.3686 18.8412 21.7229 18.8412H38.2777C38.632 18.8412 38.9679 18.684 39.1949 18.412C39.4219 18.1401 39.5167 17.7815 39.4537 17.4329ZM23.1542 16.4506L23.2311 16.0257C23.4923 14.5841 24.6342 13.4335 26.0723 13.1627C26.2898 13.1217 26.5122 13.1009 26.7335 13.1009H27.2822C28.0543 13.7096 29.0019 14.04 30.0003 14.04C30.9987 14.04 31.9464 13.7097 32.7185 13.1009H33.2672C33.4883 13.1009 33.7109 13.1217 33.9284 13.1627C35.3666 13.4335 36.5083 14.5841 36.7696 16.0257L36.8466 16.4506H23.1542Z" fill="#6F8321"/>
<path d="M32.7789 42.2595C32.0617 41.494 31.0489 41.0551 30.0002 41.0551C28.9515 41.0551 27.9387 41.4941 27.2216 42.2595C26.5044 43.0249 26.1322 44.0642 26.2005 45.1108L26.392 48.046C26.4678 49.2066 27.0806 50.2681 28.0309 50.8856C28.6292 51.2743 29.3147 51.4685 30.0003 51.4685C30.6858 51.4685 31.3717 51.2742 31.9696 50.8856C32.9198 50.2681 33.5327 49.2065 33.6085 48.0459L33.7999 45.1107C33.8683 44.0642 33.4961 43.0249 32.7789 42.2595ZM31.4148 44.955L31.2233 47.8901C31.1965 48.3019 30.9887 48.6722 30.6674 48.881C30.262 49.1443 29.7385 49.1443 29.3333 48.881C29.0121 48.6722 28.8044 48.3018 28.7774 47.8901L28.5859 44.9551C28.5602 44.5598 28.6951 44.1828 28.966 43.8938C29.2367 43.6048 29.6041 43.4455 30.0002 43.4455C30.3963 43.4455 30.7636 43.6048 31.0344 43.8938C31.3056 44.1828 31.4405 44.5598 31.4148 44.955Z" fill="#6F8321"/>
<path d="M39.4536 58.488L39.1216 56.6549C38.6849 54.245 36.7757 52.3217 34.3706 51.8688C34.0078 51.8005 33.6366 51.7658 33.2671 51.7658H32.267C31.95 51.7658 31.646 51.8918 31.4218 52.1158C30.6378 52.8999 29.3625 52.8998 28.5785 52.1158C28.3543 51.8918 28.0503 51.7658 27.7333 51.7658H26.7333C26.3643 51.7658 25.9931 51.8005 25.6297 51.8688C23.2246 52.3217 21.3154 54.245 20.8788 56.655L20.5468 58.4882C20.4836 58.8367 20.5784 59.1954 20.8054 59.4673C21.0326 59.7391 21.3686 59.8963 21.7229 59.8963H38.2777C38.632 59.8963 38.9679 59.7391 39.1948 59.467C39.4218 59.1953 39.5166 58.8367 39.4536 58.488ZM23.1542 57.5059L23.231 57.0811C23.4923 55.6394 24.6341 54.4889 26.0718 54.2181C26.2896 54.177 26.5121 54.1563 26.7333 54.1563H27.2826C28.8717 55.4055 31.1291 55.4055 32.7179 54.1563H33.2673C33.4886 54.1563 33.7111 54.177 33.9285 54.2179C35.3667 54.4888 36.5084 55.6393 36.7697 57.081L36.8467 57.5059H23.1542Z" fill="#6F8321"/>
<path d="M12.2515 21.7322C11.5343 20.9667 10.5216 20.5277 9.47272 20.5277C8.42389 20.5277 7.41092 20.9667 6.69384 21.7322C5.97677 22.4976 5.60469 23.5368 5.67301 24.5833L5.8645 27.5184C5.9402 28.6789 6.55286 29.7405 7.50338 30.3581C8.10162 30.7467 8.78729 30.941 9.47284 30.941C10.1584 30.941 10.8442 30.7467 11.4421 30.3582C12.3926 29.7406 13.0052 28.679 13.0808 27.5186L13.2723 24.5834C13.3405 23.5369 12.9684 22.4974 12.2515 21.7322ZM10.8872 24.4276L10.6957 27.3629C10.669 27.7747 10.4612 28.1449 10.1399 28.3536C9.73452 28.6169 9.21104 28.6169 8.80581 28.3536C8.48448 28.1447 8.27682 27.7744 8.24987 27.3629L8.05838 24.4276C8.0326 24.0324 8.1676 23.6554 8.43842 23.3664C8.70924 23.0773 9.07663 22.918 9.47272 22.918C9.86882 22.918 10.2361 23.0774 10.5069 23.3664C10.7777 23.6554 10.913 24.0324 10.8872 24.4276Z" fill="#6F8321"/>
<path d="M18.9259 37.9604L18.594 36.1272C18.1573 33.7174 16.2481 31.7941 13.843 31.3412C13.4801 31.2728 13.1088 31.2382 12.7393 31.2382H11.7393C11.4224 31.2382 11.1185 31.3641 10.8942 31.5882C10.1102 32.3722 8.83487 32.3723 8.05088 31.5882C7.8267 31.3641 7.52271 31.2382 7.20572 31.2382H6.20552C5.83661 31.2382 5.46524 31.2728 5.10207 31.3412C2.69702 31.7941 0.787791 33.7174 0.351148 36.1272L0.0191535 37.9604C-0.0440109 38.3089 0.0507943 38.6676 0.277788 38.9395C0.505016 39.2114 0.840994 39.3685 1.19525 39.3685H17.7501C18.1043 39.3685 18.4403 39.2114 18.6672 38.9395C18.8943 38.6676 18.9891 38.3092 18.9259 37.9604ZM2.62671 36.9783L2.70358 36.5533C2.96491 35.1118 4.10668 33.9611 5.54481 33.6903C5.76231 33.6493 5.98474 33.6286 6.20587 33.6286H6.75478C7.52693 34.2372 8.47463 34.5675 9.47296 34.5675C10.4713 34.5675 11.419 34.2372 12.1911 33.6286H12.7398C12.9609 33.6286 13.1834 33.6493 13.4009 33.6903C14.8391 33.9611 15.9808 35.1118 16.2421 36.5533L16.3191 36.9783H2.62671Z" fill="#6F8321"/>
<path d="M53.3064 21.732C52.5892 20.9665 51.5764 20.5276 50.5277 20.5276C49.4789 20.5276 48.466 20.9666 47.749 21.7321C47.0319 22.4974 46.6598 23.5368 46.7281 24.5833L46.9196 27.5184C46.9953 28.6789 47.6079 29.7405 48.5584 30.3581C49.1567 30.7468 49.8422 30.941 50.5278 30.941C51.2133 30.941 51.8992 30.7467 52.4971 30.3581C53.4476 29.7405 54.0604 28.6789 54.136 27.5184L54.3274 24.5832C54.3958 23.5365 54.0236 22.4973 53.3064 21.732ZM51.9423 24.4275L51.7508 27.3627C51.7241 27.7744 51.5162 28.1447 51.1949 28.3534C50.7899 28.6167 50.2663 28.6168 49.8608 28.3534C49.5396 28.1447 49.3319 27.7744 49.305 27.3627L49.1135 24.4275C49.0877 24.0323 49.2228 23.6553 49.4935 23.3663C49.7643 23.0773 50.1316 22.918 50.5277 22.918C50.9239 22.918 51.2912 23.0773 51.5619 23.3663C51.8331 23.6553 51.968 24.0323 51.9423 24.4275Z" fill="#6F8321"/>
<path d="M59.9811 37.9604L59.6491 36.1272C59.2124 33.7174 57.3032 31.7941 54.8981 31.3412C54.535 31.2728 54.1638 31.2382 53.7946 31.2382H52.7944C52.4775 31.2382 52.1736 31.3641 51.9493 31.5882C51.1653 32.3722 49.89 32.3723 49.106 31.5882C48.8818 31.3641 48.5778 31.2382 48.2608 31.2382H47.2608C46.8915 31.2382 46.5202 31.2728 46.1573 31.3412C43.7521 31.7941 41.8429 33.7174 41.4063 36.1272L41.0743 37.9604C41.0111 38.3089 41.1059 38.6676 41.3329 38.9395C41.5601 39.2114 41.8961 39.3685 42.2504 39.3685H58.8052C59.1595 39.3685 59.4954 39.2114 59.7223 38.9395C59.9494 38.6676 60.0441 38.3092 59.9811 37.9604ZM43.6817 36.9783L43.7587 36.5533C44.0199 35.1118 45.1617 33.9611 46.6 33.6903C46.8174 33.6493 47.0397 33.6286 47.261 33.6286H47.8097C48.5818 34.2372 49.5295 34.5675 50.5278 34.5675C51.5262 34.5675 52.4739 34.2372 53.246 33.6286H53.7948C54.0158 33.6286 54.2384 33.6493 54.4559 33.6903C55.8941 33.9611 57.0358 35.1118 57.2971 36.5533L57.3741 36.9783H43.6817Z" fill="#6F8321"/>
<path d="M23.7922 7.70934C23.5807 7.08414 22.9024 6.74875 22.2768 6.96016C17.5428 8.56177 13.326 11.692 10.4033 15.7739C10.0192 16.3106 10.1427 17.0573 10.6794 17.4416C10.8902 17.5925 11.1334 17.6651 11.3742 17.6651C11.7466 17.6651 12.1138 17.4914 12.347 17.1655C14.9807 13.4872 18.7792 10.6671 23.043 9.22447C23.6684 9.01294 24.0038 8.33454 23.7922 7.70934Z" fill="#6F8321"/>
<path d="M49.6335 15.7739C47.576 12.9002 44.861 10.4705 41.7815 8.74763C41.2058 8.42548 40.4772 8.63103 40.1549 9.20712C39.8326 9.78322 40.0384 10.5114 40.6144 10.8338C43.389 12.3863 45.8356 14.5759 47.6899 17.1655C47.9232 17.4915 48.2903 17.6651 48.6628 17.6651C48.9035 17.6651 49.1467 17.5925 49.3574 17.4415C49.8943 17.0572 50.0177 16.3105 49.6335 15.7739Z" fill="#6F8321"/>
<path d="M38.3766 7.17813C38.1734 7.10324 37.966 7.02977 37.76 6.96016C37.1345 6.74828 36.4564 7.08403 36.2446 7.70922C36.0332 8.33442 36.3686 9.01283 36.9938 9.22447C37.1792 9.28716 37.366 9.35326 37.5489 9.42088C37.6855 9.47127 37.8252 9.49517 37.9627 9.49517C38.4489 9.49517 38.9059 9.19623 39.084 8.71341C39.3126 8.09407 38.9959 7.40676 38.3766 7.17813Z" fill="#6F8321"/>
<path d="M23.0431 49.4256C18.7793 47.9833 14.9808 45.163 12.3471 41.4846C11.9627 40.948 11.2161 40.8244 10.6795 41.2086C10.1427 41.593 10.0192 42.3396 10.4034 42.8763C13.3261 46.9584 17.543 50.0885 22.2769 51.6901C22.404 51.733 22.5331 51.7535 22.6601 51.7535C23.1585 51.7535 23.6237 51.4392 23.7923 50.9409C24.0038 50.3157 23.6684 49.6373 23.0431 49.4256Z" fill="#6F8321"/>
<path d="M49.3575 41.2089C48.8208 40.8246 48.074 40.9484 47.6899 41.4849C45.0562 45.1633 41.2577 47.9834 36.9939 49.4258C36.3686 49.6373 36.0332 50.3157 36.2447 50.941C36.4132 51.4393 36.8785 51.7535 37.3769 51.7535C37.5038 51.7535 37.633 51.7331 37.76 51.6902C42.5626 50.0654 46.6684 47.0177 49.6336 42.8765C50.0177 42.3397 49.8943 41.5931 49.3575 41.2089Z" fill="#6F8321"/>
</svg>
