<svg xmlns="http://www.w3.org/2000/svg" width="71" height="66" fill="none" viewBox="0 0 71 66"><path fill="#fff" d="M25.4274 35.1914C24.3288 35.8179 23.5209 36.5021 23.0751 37.1599L23.2584 38.9019L24.8122 38.218C25.194 37.502 25.4274 36.4529 25.4274 35.1914ZM21.8857 36.2316C21.4938 37.0337 21.2372 37.7888 21.1077 38.4551L21.817 40.6546L22.5805 39.3487L22.3296 36.9763H22.3307C22.1986 36.7325 22.0508 36.4842 21.8857 36.2316ZM20.209 38.7495C19.2816 40.9644 19.5852 42.4809 20.5129 42.8866L21.3296 41.4901L20.5733 39.1474C20.4585 39.0155 20.3376 38.8828 20.209 38.7495ZM25.846 38.7578C25.6703 38.7567 25.4997 38.761 25.3334 38.7685L23.2053 39.705L22.4418 41.0121L24.8483 40.4914C25.3461 40.0541 25.8554 39.4762 26.3405 38.772C26.1722 38.7638 26.007 38.7588 25.846 38.7578ZM17.1184 39.0903C16.2213 39.9764 15.6195 40.8444 15.3609 41.5937L15.9954 43.2297L17.3163 42.1716C17.4975 41.3822 17.4489 40.3088 17.1184 39.0903ZM13.9699 41.0013C13.8016 41.8759 13.7518 42.67 13.8011 43.3463L15.0629 45.2909L15.4574 43.8348L14.5925 41.6067H14.5936C14.4025 41.4053 14.1953 41.2028 13.9699 41.0013ZM24.2923 41.3422L21.9545 41.8461L21.1463 43.2284C21.9446 43.9221 23.4793 43.4585 25.0113 41.4887C24.7637 41.4295 24.5241 41.381 24.2923 41.3422ZM18.9387 42.3156C18.5947 42.3888 18.2708 42.4742 17.9665 42.5694L16.1533 44.0195L15.7588 45.4757L17.9472 44.3591C18.3136 43.8091 18.6545 43.1203 18.9387 42.3156ZM24.9268 43.2712C23.9289 44.0462 23.2265 44.8368 22.8797 45.5507L23.3128 47.2487L24.7519 46.3538C25.027 45.5916 25.1084 44.5202 24.9268 43.2712ZM20.1656 43.599C18.8363 46.5568 17.8729 49.6639 17.7348 53.2469H18.4575C18.5948 49.785 19.5218 46.7867 20.8242 43.8885L20.1656 43.599ZM13.0098 43.8623C12.6943 46.2396 13.3848 47.6262 14.3874 47.7801L14.8109 46.2216L13.467 44.1531C13.3215 44.0551 13.1693 43.9584 13.0098 43.8623ZM21.5697 44.7977C21.2975 45.6458 21.1522 46.4285 21.1197 47.1058L22.139 49.1874L22.706 47.7872L22.1162 45.4733H22.1185C21.9525 45.2503 21.7698 45.0248 21.5697 44.7977ZM18.3658 45.2791C18.1105 45.2852 17.8658 45.2997 17.6311 45.322L15.5068 46.4074L15.0882 47.9482C16.0413 48.4145 17.402 47.5737 18.3658 45.2791ZM26.3454 46.6875C25.9952 46.7197 25.6636 46.7657 25.3503 46.8245L23.3756 48.053L22.8086 49.4507L25.115 48.5999C25.545 48.0969 25.9663 47.4531 26.3454 46.6875ZM20.273 47.5264C19.6736 49.8499 20.1921 51.3084 21.1692 51.5788L21.776 50.081L20.6916 47.8684C20.5592 47.754 20.4193 47.6402 20.273 47.5264ZM14.2619 48.5023C13.7727 50.0745 13.4026 51.6498 13.2257 53.247H13.9519C14.1259 51.7324 14.4804 50.226 14.9519 48.7107L14.2619 48.5023ZM24.6843 49.5186L22.4454 50.3456L21.8447 51.8279C22.7347 52.4036 24.1867 51.7285 25.4201 49.5627C25.1656 49.5388 24.9202 49.5244 24.6843 49.5186ZM20.9496 52.3271C20.8773 52.6212 20.8267 52.9279 20.8085 53.247H21.5298C21.5472 52.992 21.5897 52.7434 21.6505 52.4963L20.9496 52.3271Z"/><path fill="#fff" d="M52.1175 47.0565C52.7091 47.3966 53.1441 47.768 53.3841 48.1251L53.2854 49.0708L52.4488 48.6995C52.2432 48.3108 52.1175 47.7413 52.1175 47.0565ZM54.0246 47.6212C54.2356 48.0566 54.3738 48.4665 54.4435 48.8282L54.0616 50.0222L53.6504 49.3133L53.7856 48.0254C53.8567 47.8931 53.9356 47.7583 54.0246 47.6212ZM54.9274 48.988C55.4267 50.1904 55.2633 51.0136 54.7638 51.2339L54.324 50.4758L54.7313 49.2041C54.7931 49.1324 54.8582 49.0604 54.9274 48.988ZM51.8921 48.9925C51.9867 48.992 52.0786 48.9943 52.1681 48.9983L53.314 49.5067L53.7252 50.2163L52.4293 49.9337C52.1613 49.6962 51.887 49.3825 51.6258 49.0003C51.7164 48.9958 51.8054 48.9931 51.8921 48.9925ZM56.5916 49.173C57.0746 49.654 57.3987 50.1252 57.5379 50.532L57.1963 51.4202L56.485 50.8458C56.3874 50.4172 56.4136 49.8345 56.5916 49.173ZM58.2869 50.2105C58.3775 50.6852 58.4043 51.1163 58.3778 51.4834L57.6984 52.5391L57.486 51.7486L57.9517 50.5391C58.0546 50.4298 58.1656 50.3198 58.2869 50.2105ZM52.7287 50.3955L53.9875 50.6691L54.4227 51.4194C53.9928 51.796 53.1665 51.5443 52.3416 50.475C52.4749 50.4429 52.6039 50.4166 52.7287 50.3955ZM55.6114 50.9239C55.7966 50.9637 55.9711 51.01 56.1349 51.0617L57.1112 51.8489L57.3236 52.6394L56.1453 52.0333C55.948 51.7347 55.7645 51.3607 55.6114 50.9239ZM52.3871 51.4427C52.9244 51.8634 53.3026 52.2926 53.4893 52.6801L53.2561 53.6019L52.4812 53.1161C52.3331 52.7023 52.2893 52.1207 52.3871 51.4427ZM54.9508 51.6206C55.6665 53.2263 56.1853 54.913 56.2596 56.8581H55.8705C55.7966 54.9788 55.2974 53.3511 54.5961 51.7778L54.9508 51.6206ZM58.8039 51.7635C58.9738 53.0541 58.602 53.8068 58.0621 53.8904L57.8341 53.0443L58.5577 51.9214C58.6361 51.8682 58.718 51.8157 58.8039 51.7635ZM54.1947 52.2713C54.3413 52.7317 54.4196 53.1566 54.437 53.5243L53.8882 54.6543L53.5829 53.8942L53.9005 52.6381H53.8992C53.9886 52.517 54.087 52.3946 54.1947 52.2713ZM55.9199 52.5327C56.0574 52.536 56.1891 52.5439 56.3155 52.556L57.4594 53.1452L57.6848 53.9816C57.1716 54.2347 56.4389 53.7783 55.9199 52.5327ZM51.6232 53.2972C51.8118 53.3147 51.9903 53.3397 52.159 53.3716L53.2223 54.0385L53.5276 54.7972L52.2857 54.3354C52.0542 54.0623 51.8273 53.7129 51.6232 53.2972ZM54.8929 53.7526C55.2157 55.014 54.9365 55.8057 54.4104 55.9525L54.0836 55.1394L54.6676 53.9383C54.7389 53.8762 54.8141 53.8144 54.8929 53.7526ZM58.1297 54.2824C58.3931 55.1359 58.5924 55.991 58.6876 56.8581H58.2966C58.2029 56.0359 58.0121 55.2181 57.7582 54.3955L58.1297 54.2824ZM52.5176 54.8341L53.7232 55.283L54.0467 56.0877C53.5674 56.4002 52.7856 56.0338 52.1214 54.8581C52.2585 54.8451 52.3906 54.8373 52.5176 54.8341ZM54.5286 56.3587C54.5676 56.5184 54.5948 56.6849 54.6046 56.8581H54.2162C54.2068 56.7197 54.184 56.5847 54.1512 56.4506L54.5286 56.3587Z"/><path fill="#fff" fill-rule="evenodd" d="M2.57141 54.8176C2.57141 51.5984 3.9189 52.0982 5.99988 49.2917C7.41414 47.3843 7.11565 45.4925 7.11565 42.3387C7.11565 36.9185 7.11565 31.4984 7.11565 26.0783C10.8261 27.8561 18.9527 29.2295 22.768 29.2295C28.2691 29.2295 31.4932 28.9687 36.6282 27.5658L41.1975 26.0783C41.1975 31.4564 41.1975 36.8345 41.1975 42.2126C41.1975 45.2803 40.8925 47.3437 42.2594 49.2194C44.3408 52.0759 45.7417 51.5632 45.7417 54.8176C45.7417 56.5074 44.0148 57.9688 41.8286 57.9688H6.4845C5.41163 57.9688 4.39229 57.6387 3.79942 57.1207C3.27294 56.6606 2.57141 55.7449 2.57141 54.8176ZM3.20256 20.1539C3.20256 19.3382 3.74024 18.295 4.17517 17.8479C4.76205 17.2446 5.47962 16.8222 6.50057 16.7973C7.41593 16.7748 8.32911 17.3339 9.02531 17.6168C18.2813 21.3782 28.4501 21.8176 37.8627 18.2105C39.9733 17.4017 40.3006 16.8766 42.2073 16.8766C45.4539 16.8766 46.6983 22.6779 42.0997 23.4499C41.4525 23.5586 36.5175 26.029 30.714 26.8281C22.2181 27.9979 14.5369 27.0672 6.78442 23.6359C6.39093 23.4618 3.20256 23.1389 3.20256 20.1539ZM39.1778 15.6161L35.9435 16.7982C34.7067 17.2099 33.7535 17.4717 32.4125 17.81C25.9052 19.4515 18.738 18.9178 12.4649 16.8291L9.13533 15.6161C9.13533 14.0993 10.8401 11.9665 11.6208 11.0393C13.7032 8.56617 16.7245 6.34801 19.5099 4.67357C20.159 4.28339 23.6846 2.18608 24.1566 2.18608C25.1682 2.18608 31.7131 6.56998 32.9948 7.54678L34.4189 8.77173C34.6502 8.96707 34.6808 8.94967 34.9166 9.15709C35.2397 9.44118 35.488 9.72828 35.8017 10.0379L38.1286 13.0084C38.5223 13.6685 39.1568 14.675 39.1778 15.6161ZM7.24189 14.8599C5.52348 14.8599 4.26548 15.0282 2.91781 16.2142C-0.367468 19.1052 1.43345 24.3439 5.096 25.1959L5.10072 45.9988C5.11164 49.702 0.551758 49.4845 0.551758 54.6915C0.551758 57.2802 3.13482 59.8596 5.72715 59.8596H42.586C45.1783 59.8596 47.7614 57.2802 47.7614 54.6915C47.7614 49.5256 43.2171 49.7086 43.2171 46.1201V25.448C43.2171 24.8263 43.9777 25.3092 45.7769 23.4664C47.5651 21.635 47.3536 18.1382 45.3347 16.2747C44.1062 15.1406 42.7946 14.8599 41.0712 14.8599C40.9599 13.523 39.0426 10.6745 38.2638 9.84826C37.6211 9.16641 37.0798 8.43615 36.3635 7.83827C34.8962 6.61339 33.5367 5.42492 31.9074 4.34699C30.5767 3.46666 25.1351 0.112061 24.1566 0.112061C23.2116 0.112061 17.8534 3.38627 16.5576 4.24652C15.7067 4.81149 15.037 5.33895 14.2202 5.94598C12.4496 7.2619 10.615 9.07119 9.27846 10.8431C8.60297 11.7387 7.33109 13.7894 7.24189 14.8599Z" clip-rule="evenodd"/><path fill="#fff" d="M37.0467 59.8595C36.8977 60.2129 36.818 60.6692 36.818 61.3444C36.818 62.0374 37.3442 62.7217 37.739 63.0654C38.1837 63.4525 38.9482 63.6992 39.7528 63.6992H66.2609C67.9006 63.6992 69.1958 62.6071 69.1958 61.3444C69.1958 59.7724 68.7567 59.3767 68.0245 58.7168C67.6241 58.3558 67.1359 57.9159 66.584 57.1612C65.7247 55.9863 65.7464 54.7128 65.7759 52.9814C65.7816 52.6473 65.7876 52.2961 65.7876 51.9253V39.8689L62.3606 40.9805C58.5093 42.0288 56.0913 42.2237 51.9655 42.2237C49.6631 42.2237 46.2966 41.8177 43.2171 40.866V39.3184C48.2918 41.1478 52.3609 41.1925 57.925 40.4292C61.2366 39.9749 64.1711 38.7977 65.5992 38.2247C66.0481 38.0446 66.3482 37.9243 66.4643 37.9048C69.9132 37.328 68.9799 32.993 66.5449 32.993C65.5435 32.993 65.123 33.1854 64.4173 33.5082C64.1152 33.6464 63.7609 33.8085 63.2865 33.9897C56.4061 36.6167 50.0161 36.776 43.2171 34.1597V32.6121L44.2381 32.9574C48.943 34.5182 54.3183 34.917 59.1989 33.6904C60.2046 33.4376 60.9195 33.242 61.8471 32.9343L64.2728 32.051C64.2579 31.3864 63.8321 30.6781 63.5361 30.1859L63.486 30.1024L61.7408 27.8827C61.656 27.7994 61.5777 27.7182 61.5007 27.6386C61.3641 27.4971 61.232 27.3603 61.0769 27.2245C60.9834 27.1426 60.9329 27.1076 60.8805 27.0712C60.8337 27.0388 60.7854 27.0053 60.7036 26.9365L59.6356 26.0212C58.6743 25.2913 53.7656 22.0154 53.0069 22.0154C52.6529 22.0154 50.0087 23.5826 49.5219 23.8742C47.4328 25.1254 45.1669 26.7829 43.6051 28.631C43.2425 29.0601 43.6051 28.631 43.2171 29.065V26.9375C44.1785 25.7561 44.3711 25.7014 45.5546 24.825C45.7009 24.7166 45.841 24.6117 45.9781 24.5089L45.9788 24.5084C46.4153 24.1812 46.8223 23.8762 47.3077 23.5551C48.2795 22.9122 52.2981 20.4656 53.0069 20.4656C53.7408 20.4656 57.822 22.9723 58.82 23.6301C59.8727 24.324 60.7752 25.0793 61.7087 25.8604C61.8588 25.986 62.0097 26.1122 62.1621 26.239C62.5215 26.5379 62.8222 26.8811 63.1262 27.2281C63.2766 27.3998 63.4278 27.5724 63.5873 27.741C64.1714 28.3584 65.6094 30.4869 65.6929 31.4859C66.9854 31.4859 67.9691 31.6957 68.8905 32.5431C70.4046 33.9357 70.5633 36.5486 69.2222 37.9172C68.4576 38.6974 67.9431 38.9197 67.6407 39.0504C67.4095 39.1503 67.3023 39.1966 67.3023 39.3979V54.8452C67.3023 56.0642 68.0066 56.7008 68.7748 57.3952C69.6966 58.2283 70.7105 59.1448 70.7105 61.2502C70.7105 63.1846 68.7732 65.1121 66.8289 65.1121H39.1848C37.2406 65.1121 35.3033 63.1846 35.3033 61.2502C35.3033 60.7164 35.3677 60.2588 35.4787 59.8595H37.0467Z"/></svg>