<svg width="56" height="66" viewBox="0 0 56 66" fill="none" xmlns="http://www.w3.org/2000/svg">
<path d="M35.5127 25.1051H35.5133C36.2832 25.1051 36.9071 25.729 36.9071 26.4989C36.9071 27.2687 36.2832 27.8927 35.5133 27.8927C34.7435 27.8927 34.1192 27.2687 34.1192 26.4989C34.1192 25.729 34.7428 25.1051 35.5127 25.1051ZM20.262 54.4098C19.4921 54.4098 18.8682 55.0338 18.8682 55.8036C18.8682 59.3859 13.7669 61.3475 9.48761 62.3622C8.73866 62.5398 8.27545 63.2911 8.45293 64.04C8.60485 64.6809 9.17678 65.1125 9.80803 65.1125C9.91458 65.1125 10.0227 65.1003 10.1308 65.0746C17.7782 63.2612 21.6558 60.142 21.6558 55.8036C21.6558 55.0338 21.0318 54.4098 20.262 54.4098ZM45.5479 62.362C41.2686 61.3473 36.1673 59.3859 36.1673 55.8035C36.1673 55.0336 35.5434 54.4097 34.7735 54.4097C34.0037 54.4097 33.3797 55.0336 33.3797 55.8035C33.3797 60.142 37.2573 63.261 44.9049 65.0744C45.013 65.1001 45.1211 65.1123 45.2276 65.1123C45.8587 65.1123 46.4308 64.6807 46.5826 64.0399C46.7602 63.2908 46.297 62.5397 45.5479 62.362ZM27.1433 39.1997H28.0804C28.8502 39.1997 29.4742 38.5757 29.4742 37.8059C29.4742 37.036 28.8502 36.412 28.0804 36.412H27.1433C26.3734 36.412 25.7495 37.036 25.7495 37.8059C25.7495 38.5757 26.3736 39.1997 27.1433 39.1997ZM28.7172 43.0804C28.0887 43.447 27.7841 43.4897 27.6141 43.49C27.4398 43.4897 27.1354 43.447 26.5068 43.0804C25.8418 42.6928 24.9884 42.9173 24.6005 43.5823C24.2127 44.2473 24.4376 45.1008 25.1024 45.4886C26.0361 46.0331 26.8094 46.2764 27.6141 46.2777C28.4146 46.2764 29.1879 46.033 30.1216 45.4884C30.7866 45.1007 31.0111 44.2472 30.6233 43.5823C30.2355 42.9175 29.3825 42.6924 28.7172 43.0804ZM19.3072 27.8927C20.0771 27.8927 20.701 27.2687 20.701 26.4989C20.701 25.729 20.0771 25.1051 19.3072 25.1051H19.3068C18.5369 25.1051 17.9131 25.729 17.9131 26.4989C17.9131 27.2687 18.5375 27.8927 19.3072 27.8927ZM55.3756 23.1949V43.5174C55.3756 45.1947 54.267 46.5084 52.8518 46.5084H48.3112C47.7105 48.5164 45.846 49.984 43.6452 49.984H40.6116C39.805 49.984 39.0437 49.787 38.3731 49.4384C37.469 50.1187 36.5305 50.7433 35.5751 51.3002C32.4988 53.093 30.0435 53.8941 27.6142 53.898C25.1797 53.8941 22.7244 53.093 19.6487 51.3002C12.1744 46.9439 7.53146 38.6477 7.53146 29.6494C7.53146 29.3012 7.53641 28.9565 7.54648 28.6142V24.7969C7.54648 23.8015 6.64236 22.9917 5.53086 22.9917H3.82343C3.63805 22.9917 3.51493 23.1141 3.51493 23.1949V33.8725C3.51493 33.9534 3.6379 34.0757 3.82343 34.0757H5.13084C5.90069 34.0757 6.52466 34.6997 6.52466 35.4695C6.52466 36.2394 5.90069 36.8633 5.13084 36.8633H3.82343C2.11631 36.8633 0.727295 35.5217 0.727295 33.8725V23.1949C0.727295 21.7731 1.75965 20.58 3.13829 20.278C3.2275 19.7299 3.33327 19.1865 3.45438 18.6543C4.90318 12.2897 8.58999 7.17312 14.1162 3.858C19.0865 0.876154 25.1702 -0.389899 31.2475 0.293073C37.2251 0.964739 42.6687 3.50459 46.5757 7.44445C49.9559 10.8531 52.1182 15.2045 52.9497 20.2061C54.3176 20.2651 55.3756 21.5567 55.3756 23.1949ZM29.1089 17.9399C28.7076 18.5969 27.8496 18.8039 27.1928 18.4027C23.4458 16.1132 19.0137 15.0456 14.6723 15.3795C13.5411 16.818 12.617 18.4679 11.9159 20.301L21.3478 21.1043C23.4156 21.2801 25.2955 22.7477 26.1259 24.671C27.0998 24.529 28.098 24.5537 29.0671 24.7433C29.8812 22.7844 31.7824 21.2823 33.8762 21.1042C33.9165 21.1008 33.9564 21.0991 33.9958 21.0991C34.7122 21.0991 35.3213 21.6479 35.3831 22.3749C35.4483 23.142 34.8794 23.8166 34.1124 23.8818C32.8658 23.9879 31.6247 25.207 31.4565 26.4908L31.2208 28.2909C31.1517 28.817 31.2725 29.2727 31.5611 29.5749C31.8341 29.8606 32.2332 29.9903 32.7165 29.9492L40.2209 29.3099C40.2554 29.307 40.2896 29.3054 40.3238 29.305C40.0493 26.3922 38.931 23.3496 37.0112 20.3915C33.947 15.6698 29.1104 11.7405 23.6942 9.55949C22.8331 9.77058 21.9865 10.0529 21.1718 10.4006C19.831 10.973 18.6018 11.6989 17.4908 12.5657C21.4071 12.7753 25.2721 13.9623 28.6463 16.0237C29.3031 16.4251 29.5103 17.2831 29.1089 17.9399ZM11.0713 23.0269C10.6446 24.782 10.3953 26.6683 10.334 28.6666V28.9183L12.1365 29.0662L22.5076 29.9494C22.9905 29.9909 23.3896 29.8611 23.6626 29.5752C23.9511 29.2732 24.0722 28.8173 24.0032 28.2913L23.7671 26.4911C23.5989 25.2071 22.3578 23.988 21.1113 23.8819L11.0713 23.0269ZM45.7268 45.1144C45.7268 43.9664 44.7931 43.0325 43.6452 43.0325H40.6116C39.4639 43.0325 38.53 43.9664 38.53 45.1144C38.53 46.2623 39.4639 47.1962 40.6116 47.1962H43.6452C44.7931 47.1962 45.7268 46.2625 45.7268 45.1144ZM52.5879 26.2468C52.395 26.3477 52.1753 26.4049 51.9423 26.4049C51.1724 26.4049 50.5484 25.7809 50.5484 25.0111C50.5484 10.4381 39.9834 4.07993 30.9362 3.06321C21.0387 1.95094 9.06869 6.54916 6.17248 19.2726C6.1014 19.5856 6.03604 19.9032 5.97688 20.2236C6.98895 20.3133 7.91104 20.7043 8.64357 21.3016C9.24028 19.2431 10.0756 17.3403 11.147 15.6037C13.314 12.0913 16.402 9.40556 20.0774 7.83673C21.1742 7.36841 22.3208 7.00153 23.4857 6.74615C23.6243 6.71378 23.769 6.70232 23.9141 6.71409C24.0557 6.7254 24.1929 6.75838 24.3216 6.81026C37.3665 11.8435 45.6836 24.9524 42.485 35.4452C42.2605 36.1814 41.4813 36.5966 40.7454 36.3719C40.009 36.1475 39.594 35.3685 39.8187 34.6323C40.0689 33.811 40.2365 32.9642 40.3226 32.0989L32.953 32.7266C31.6385 32.8389 30.3964 32.3913 29.5454 31.5004C28.6752 30.5894 28.2783 29.2875 28.4569 27.9283L28.5163 27.4753C27.9173 27.3593 27.3023 27.3361 26.699 27.4064L26.7674 27.9286C26.9457 29.2878 26.5487 30.5898 25.6784 31.5005C24.8271 32.3915 23.5847 32.8378 22.2713 32.7266L11.9043 31.8437L10.4112 31.7212C11.053 38.9144 15.0073 45.3678 21.0524 48.8914C23.6795 50.4226 25.7031 51.1068 27.6141 51.1099C29.5199 51.1068 31.5436 50.4226 34.1714 48.8914C34.9113 48.4601 35.6406 47.9832 36.3496 47.4675C35.9626 46.7695 35.7422 45.9671 35.7422 45.1143C35.7422 42.4292 37.9265 40.2447 40.6114 40.2447H43.1443C45.2509 36.8864 46.3622 33.2307 46.3622 29.6489C46.3622 22.087 42.3032 14.9186 34.9329 9.46425C34.314 9.0063 34.1836 8.13346 34.6416 7.51476C35.0992 6.89606 35.9722 6.76551 36.591 7.22345C44.6898 13.2167 49.1498 21.181 49.1498 29.6489C49.1498 33.4485 48.0726 37.2993 46.0227 40.8658C47.1136 41.4787 47.9459 42.4998 48.3109 43.7205H52.5621C52.5765 43.6678 52.5876 43.5997 52.5876 43.5171V26.2468H52.5879Z" fill="#6F8321"/>
</svg>
