<svg width="61" height="60" viewBox="0 0 61 60" fill="none" xmlns="http://www.w3.org/2000/svg">
<path d="M56.859 22.4333C56.6985 22.078 56.4874 21.7463 56.2151 21.4576C55.9597 21.184 55.6452 20.9568 55.292 20.7963L14.0656 0.306914L14.0354 0.295078C13.5615 0.0915234 13.0575 0 12.5588 0C11.7876 0.00117187 11.0315 0.215391 10.3132 0.571992C9.23517 1.11047 8.22267 1.9698 7.3072 3.06199C6.38962 4.15629 5.57329 5.49059 4.93345 7.00395C4.09767 8.97809 3.68306 10.9545 3.68188 12.7208C3.68306 13.9336 3.87583 15.0559 4.30989 16.0154C4.52856 16.4968 4.80853 16.9373 5.16513 17.3154C5.51833 17.6924 5.94911 18.0026 6.43813 18.2094L6.46931 18.2223L30.1176 26.6058V33.3846L15.7694 55.1706C15.4388 55.6725 15.5788 56.3489 16.0807 56.6795C16.5826 57.0112 17.259 56.87 17.5896 56.3693L30.1176 37.347V58.909C30.1176 59.5121 30.6054 60 31.2085 60C31.8095 60 32.2974 59.5123 32.2974 58.909V37.2145L44.9127 56.3694C45.2455 56.8703 45.9198 57.0114 46.4237 56.6796C46.9267 56.349 47.0646 55.6726 46.7328 55.1707L32.2974 33.2532V27.3791L49.8616 33.6064V33.6042C50.2094 33.742 50.5779 33.81 50.9387 33.81C51.5299 33.8067 52.0932 33.643 52.6199 33.3845C53.4092 32.9892 54.1277 32.3742 54.7749 31.6021C55.4201 30.8298 55.9909 29.895 56.4411 28.8386C57.0248 27.4567 57.3167 26.0716 57.3179 24.8179C57.3167 23.9552 57.181 23.1475 56.859 22.4333ZM8.15165 16.3718C7.93192 16.3718 7.72298 16.3439 7.52271 16.2836L7.27591 16.1973C7.08208 16.1112 6.91298 15.9927 6.75044 15.8203C6.50165 15.5576 6.27325 15.159 6.11282 14.6313C5.9545 14.1036 5.86075 13.4531 5.86075 12.7207C5.86075 11.299 6.20763 9.58008 6.94099 7.85367C7.6863 6.09059 8.70735 4.62152 9.75419 3.6307C10.2733 3.13641 10.7989 2.76258 11.2835 2.52352C11.7682 2.28234 12.2043 2.17781 12.5587 2.17781C12.7859 2.17898 12.982 2.21988 13.1704 2.29523L13.4106 2.41582C13.5927 2.52035 13.7585 2.65066 13.9125 2.81004C14.2357 3.14707 14.5027 3.61465 14.6858 4.1993C14.87 4.78102 14.968 5.47242 14.9669 6.23707C14.9679 7.61883 14.6449 9.22477 13.9631 10.8295C13.2437 12.5269 12.2474 13.9378 11.193 14.9039C10.6674 15.3875 10.1279 15.758 9.60876 16.0057C9.08974 16.2523 8.59649 16.3718 8.15165 16.3718ZM19.0339 20.3645L10.0386 17.1754C10.072 17.1602 10.1087 17.1451 10.1441 17.13C11.1209 16.6637 12.0634 15.9001 12.9132 14.9093C13.7662 13.9206 14.5213 12.7014 15.1081 11.3184C15.8502 9.56719 16.212 7.80727 16.212 6.23707C16.212 5.2752 16.0752 4.38234 15.7931 3.60059L24.3382 7.84617C24.4147 8.0141 24.4868 8.18859 24.5483 8.37937C24.7334 8.9598 24.8304 9.65555 24.8304 10.4181C24.8315 11.7989 24.5083 13.4058 23.8267 15.0127C23.1071 16.7079 22.1099 18.1188 21.0565 19.0849C20.531 19.5686 19.9913 19.939 19.4722 20.1867C19.3236 20.2567 19.1782 20.3148 19.0339 20.3645ZM46.9342 30.2558L20.6688 20.9449C21.4098 20.4818 22.1217 19.855 22.7765 19.0915C23.6297 18.1016 24.3846 16.8824 24.9715 15.4984C25.7124 13.7461 26.0754 11.9906 26.0754 10.4181C26.0754 9.78481 26.015 9.18281 25.8955 8.61949L50.8438 21.0193C51.0042 21.223 51.1388 21.4815 51.239 21.8024C51.364 22.1987 51.4329 22.6759 51.4329 23.2057C51.4351 24.1654 51.2089 25.2898 50.7307 26.4173C50.2267 27.6075 49.5255 28.5952 48.7964 29.2661C48.4303 29.6021 48.0586 29.8563 47.7075 30.0221C47.4318 30.1535 47.1712 30.2278 46.9342 30.2558ZM54.4336 27.9886C53.9456 29.1443 53.2736 30.1071 52.6026 30.7362C52.2698 31.0549 51.9403 31.2865 51.6494 31.433C51.3565 31.5773 51.1142 31.6289 50.9386 31.6289C50.8233 31.6289 50.735 31.6095 50.651 31.5739L50.6209 31.56L48.7166 30.8858C49.2702 30.5434 49.7958 30.0791 50.2804 29.518C50.8997 28.7964 51.45 27.9101 51.8755 26.904C52.4141 25.6321 52.6789 24.3559 52.6789 23.2056C52.6789 22.7307 52.6283 22.2826 52.5368 21.8593L54.3515 22.7607L54.3817 22.7748C54.4688 22.8103 54.5455 22.8642 54.6304 22.9547C54.7543 23.0817 54.8847 23.3025 54.9817 23.6203C55.0807 23.9392 55.1389 24.3484 55.1389 24.818C55.139 25.7291 54.915 26.8534 54.4336 27.9886Z" fill="#B7D24B"/>
<path d="M11.9621 5.65546C12.1645 5.54893 12.3401 5.50475 12.4888 5.50475C12.5426 5.50475 12.5954 5.51014 12.6461 5.5221C12.9799 5.5985 13.3148 5.3885 13.3913 5.05464C13.4678 4.71854 13.2555 4.38479 12.9206 4.30932C12.7753 4.27487 12.6298 4.26093 12.4888 4.26093C12.0979 4.26093 11.7209 4.3719 11.3773 4.55495C10.8614 4.83292 10.4014 5.2637 9.9825 5.80651C9.56789 6.34487 9.19734 6.99983 8.88727 7.74081C8.75367 8.05745 8.90332 8.42038 9.22113 8.55596C9.53777 8.68839 9.90293 8.53874 10.0343 8.22104C10.4016 7.34753 10.8572 6.63561 11.3116 6.16827C11.5356 5.93331 11.7607 5.7621 11.9621 5.65546Z" fill="#B7D24B"/>
</svg>
