<svg width="38" height="38" viewBox="0 0 38 38" fill="none" xmlns="http://www.w3.org/2000/svg">
<path id="Vector" d="M0.919362 3.14177C0.797511 3.02968 0.646416 2.98825 0.490447 2.959C0.483136 2.95657 0.468514 2.96875 0.466077 2.9785C0.46364 2.98825 0.468514 3.00287 0.475825 3.01018C0.565994 3.09547 0.661038 3.17589 0.780452 3.21976C1.185 3.48782 1.58711 3.76319 1.99409 4.02395C2.69108 4.47234 3.41731 4.87931 4.13379 5.29603C5.06473 5.83703 5.99567 6.3829 6.89006 6.98726C7.97453 7.71835 8.99564 8.52741 9.9339 9.43882C10.9916 10.4696 11.9176 11.6053 12.734 12.831C13.4237 13.8692 14.0281 14.9512 14.5715 16.0746C14.9956 16.9495 15.4489 17.8073 15.9363 18.6456C16.7795 20.0931 17.7153 21.4724 18.7876 22.7616C19.76 23.9289 20.8249 25.0084 22.0142 25.9588C23.0451 26.785 24.1466 27.499 25.3334 28.0765C26.2424 28.5176 27.1807 28.8758 28.1579 29.1317C28.2042 29.1439 28.2481 29.1585 28.2968 29.1683C28.331 29.1756 28.3675 29.1756 28.4016 29.178C28.4138 29.178 28.4333 29.1707 28.4333 29.1658C28.4357 29.1439 28.4431 29.1147 28.4309 29.1074C28.002 28.7516 27.5804 28.386 27.1831 27.9961C26.4276 27.2553 25.7185 26.4779 25.0337 25.6737C24.2441 24.7428 23.4862 23.7851 22.7575 22.803C20.9687 20.3929 19.3603 17.8682 17.9249 15.2339C17.7202 14.861 17.5155 14.4833 17.3034 14.1153C16.5991 12.9017 15.7706 11.7783 14.8128 10.7499C13.9379 9.80924 12.968 8.97824 11.9128 8.24229C10.7064 7.39667 9.41968 6.68996 8.0842 6.07097C7.03141 5.57871 5.95668 5.14006 4.87464 4.71604C3.55378 4.19453 2.22073 3.69496 0.912051 3.13934L0.919362 3.14177ZM6.46845 0.872985C6.54888 0.875422 6.63173 0.887606 6.71459 0.885169C7.50419 0.868111 8.29134 0.868111 9.08094 0.885169C9.1638 0.887606 9.24666 0.875422 9.32708 0.872985C9.61221 0.877859 9.8949 0.887606 10.1776 0.929034C10.47 0.970462 10.7674 0.985084 11.0622 1.02164C11.4278 1.07038 11.7909 1.11668 12.1516 1.18004C12.7828 1.29214 13.4091 1.4213 14.0305 1.56995C15.1613 1.83801 16.2726 2.17675 17.3595 2.58128C18.9094 3.1564 20.396 3.85823 21.8144 4.70629C23.6275 5.78829 25.2749 7.07499 26.7176 8.62001C27.963 9.95789 28.9938 11.4396 29.7761 13.0894C30.3122 14.2177 30.7095 15.3923 30.9702 16.6132C31.1067 17.2614 31.2018 17.9169 31.2676 18.5798C31.3626 19.5375 31.3553 20.4952 31.3017 21.4529C31.2651 22.128 31.1725 22.7957 31.0604 23.461C30.7412 25.352 30.1685 27.1651 29.4422 28.9319C29.3106 29.256 29.2741 29.178 29.5397 29.4412C31.6599 31.5638 33.7826 33.6815 35.9028 35.8041C36.3487 36.25 36.7898 36.696 37.2334 37.1395C37.2772 37.1809 37.3187 37.2248 37.3577 37.2662C37.4746 37.3978 37.4917 37.5757 37.3991 37.7268C37.2821 37.912 37.1188 38.0119 36.8922 37.9924C36.8045 37.9876 36.7289 37.9583 36.668 37.9023C36.5973 37.8365 36.5315 37.7707 36.4657 37.7024C35.0961 36.3207 33.7314 34.9365 32.3667 33.5548C31.2091 32.3826 30.0515 31.2056 28.8963 30.0334C28.8208 29.9578 28.7452 29.8823 28.6697 29.8068C28.6136 29.7507 28.5503 29.7336 28.4772 29.7556C28.0531 29.8677 27.6242 29.9627 27.1953 30.048C26.6738 30.1528 26.1498 30.2527 25.6186 30.3161C25.3359 30.3526 25.0556 30.3989 24.7729 30.4306C24.4902 30.4623 24.2075 30.494 23.9224 30.5062C23.3399 30.5281 22.7624 30.5841 22.1799 30.5695C21.6438 30.5573 21.1125 30.5476 20.5788 30.5062C19.2531 30.4038 17.9468 30.1845 16.6649 29.8165C14.8494 29.2926 13.1629 28.503 11.6227 27.4015C10.5358 26.6241 9.56834 25.72 8.70564 24.7062C7.58461 23.3854 6.68779 21.9281 5.95912 20.3612C5.16952 18.6578 4.59439 16.8837 4.17522 15.0511C3.98026 14.1982 3.82185 13.3379 3.68538 12.4728C3.39294 10.6207 2.97621 8.80035 2.34014 7.036C2.00627 6.10997 1.61879 5.20586 1.13138 4.3505C0.826755 3.81437 0.490447 3.29774 0.0785906 2.83472C0.0542204 2.80791 0.0347242 2.77867 0.012791 2.74943C-0.00670511 2.72506 -0.00426809 2.67145 0.0225391 2.65439C0.100524 2.60321 0.180945 2.5496 0.261367 2.5033C0.870622 2.15725 1.51399 1.88188 2.1793 1.66012C2.94453 1.4018 3.72681 1.21659 4.52371 1.08012C4.98918 0.999706 5.46197 0.950967 5.93231 0.894917C6.10778 0.872985 6.28568 0.880296 6.46602 0.872985H6.46845Z" fill="#B7D24B"/>
</svg>
