<svg width="293" height="44" viewBox="0 0 293 44" fill="none" xmlns="http://www.w3.org/2000/svg">
<path d="M9.31976 0.807251C9.31245 0.83162 9.31489 0.851116 9.32463 0.873048C9.24178 0.875485 9.16135 0.88767 9.0785 0.885233C8.2889 0.868174 7.50174 0.865737 6.71215 0.885233C6.63173 0.88767 6.54887 0.875485 6.46601 0.873048C6.47576 0.848679 6.4782 0.829183 6.47089 0.807251H9.31732H9.31976Z" fill="#BBCF79"/>
<path d="M0.919362 3.14184C0.797511 3.02974 0.646416 2.98831 0.490447 2.95907C0.483136 2.95663 0.468514 2.96881 0.466077 2.97856C0.46364 2.98831 0.468514 3.00293 0.475825 3.01024C0.565994 3.09553 0.661038 3.17595 0.780452 3.21982C1.185 3.48788 1.58711 3.76326 1.99409 4.02401C2.69108 4.4724 3.41731 4.87937 4.13379 5.29609C5.06473 5.83709 5.99567 6.38296 6.89006 6.98732C7.97453 7.71841 8.99564 8.52747 9.9339 9.43888C10.9916 10.4697 11.9176 11.6053 12.734 12.8311C13.4237 13.8692 14.0281 14.9512 14.5715 16.0747C14.9956 16.9495 15.4489 17.8073 15.9363 18.6456C16.7795 20.0932 17.7153 21.4725 18.7876 22.7616C19.76 23.9289 20.8249 25.0085 22.0142 25.9589C23.0451 26.785 24.1466 27.499 25.3334 28.0766C26.2424 28.5177 27.1807 28.8759 28.1579 29.1318C28.2042 29.144 28.2481 29.1586 28.2968 29.1683C28.331 29.1756 28.3675 29.1756 28.4016 29.1781C28.4138 29.1781 28.4333 29.1708 28.4333 29.1659C28.4357 29.144 28.4431 29.1147 28.4309 29.1074C28.002 28.7516 27.5804 28.3861 27.1831 27.9962C26.4276 27.2553 25.7185 26.478 25.0337 25.6738C24.2441 24.7429 23.4862 23.7851 22.7575 22.8031C20.9687 20.3929 19.3603 17.8683 17.9249 15.2339C17.7202 14.8611 17.5155 14.4833 17.3034 14.1154C16.5991 12.9018 15.7706 11.7783 14.8128 10.75C13.9379 9.8093 12.968 8.9783 11.9128 8.24235C10.7064 7.39673 9.41968 6.69002 8.0842 6.07104C7.03141 5.57877 5.95668 5.14013 4.87464 4.7161C3.55378 4.19459 2.22073 3.69502 0.912051 3.1394L0.919362 3.14184ZM6.46845 0.873046C6.54888 0.875483 6.63173 0.887667 6.71459 0.88523C7.50419 0.868172 8.29134 0.868172 9.08094 0.88523C9.1638 0.887667 9.24666 0.875483 9.32708 0.873046C9.61221 0.87792 9.8949 0.887667 10.1776 0.929095C10.47 0.970523 10.7674 0.985145 11.0622 1.0217C11.4278 1.07044 11.7909 1.11674 12.1516 1.1801C12.7828 1.2922 13.4091 1.42136 14.0305 1.57001C15.1613 1.83807 16.2726 2.17681 17.3595 2.58134C18.9094 3.15646 20.396 3.8583 21.8144 4.70635C23.6275 5.78835 25.2749 7.07505 26.7176 8.62007C27.963 9.95795 28.9938 11.4396 29.7761 13.0894C30.3122 14.2177 30.7095 15.3923 30.9702 16.6132C31.1067 17.2615 31.2018 17.917 31.2676 18.5798C31.3626 19.5376 31.3553 20.4953 31.3017 21.453C31.2651 22.128 31.1725 22.7957 31.0604 23.461C30.7412 25.3521 30.1685 27.1652 29.4422 28.932C29.3106 29.2561 29.2741 29.1781 29.5397 29.4413C31.6599 31.5639 33.7826 33.6815 35.9028 35.8041C36.3487 36.2501 36.7898 36.696 37.2334 37.1396C37.2772 37.181 37.3187 37.2249 37.3577 37.2663C37.4746 37.3979 37.4917 37.5758 37.3991 37.7269C37.2821 37.9121 37.1188 38.012 36.8922 37.9925C36.8045 37.9876 36.7289 37.9584 36.668 37.9023C36.5973 37.8365 36.5315 37.7707 36.4657 37.7025C35.0961 36.3208 33.7314 34.9366 32.3667 33.5548C31.2091 32.3827 30.0515 31.2056 28.8963 30.0335C28.8208 29.9579 28.7452 29.8824 28.6697 29.8068C28.6136 29.7508 28.5503 29.7337 28.4772 29.7556C28.0531 29.8677 27.6242 29.9628 27.1953 30.0481C26.6738 30.1529 26.1498 30.2528 25.6186 30.3161C25.3359 30.3527 25.0556 30.399 24.7729 30.4307C24.4902 30.4624 24.2075 30.494 23.9224 30.5062C23.3399 30.5282 22.7624 30.5842 22.1799 30.5696C21.6438 30.5574 21.1125 30.5476 20.5788 30.5062C19.2531 30.4039 17.9468 30.1845 16.6649 29.8166C14.8494 29.2926 13.1629 28.5031 11.6227 27.4016C10.5358 26.6242 9.56834 25.7201 8.70564 24.7063C7.58461 23.3855 6.68779 21.9282 5.95912 20.3612C5.16952 18.6578 4.59439 16.8837 4.17522 15.0512C3.98026 14.1982 3.82185 13.338 3.68538 12.4729C3.39294 10.6208 2.97621 8.80041 2.34014 7.03606C2.00627 6.11003 1.61879 5.20592 1.13138 4.35056C0.826755 3.81443 0.490447 3.2978 0.0785906 2.83478C0.0542204 2.80798 0.0347242 2.77873 0.012791 2.74949C-0.00670511 2.72512 -0.00426809 2.67151 0.0225391 2.65445C0.100524 2.60327 0.180945 2.54966 0.261367 2.50336C0.870622 2.15731 1.51399 1.88194 2.1793 1.66018C2.94453 1.40186 3.72681 1.21665 4.52371 1.08019C4.98918 0.999767 5.46197 0.951028 5.93231 0.894978C6.10778 0.873046 6.28568 0.880357 6.46602 0.873046H6.46845Z" fill="#B7D24B"/>
<path d="M53.3957 25.7323H40.1505C40.0213 25.7323 39.8897 25.7298 39.7581 25.7274C39.6923 25.725 39.6411 25.6713 39.6411 25.5982C39.6387 25.2719 39.6387 24.9455 39.6387 24.6191V24.6186C39.6387 24.5918 39.6436 24.5625 39.6533 24.5406C39.6606 24.5211 39.6777 24.4943 39.6972 24.4846C39.7313 24.4699 39.7703 24.4577 39.8093 24.4529C39.8587 24.4478 39.9088 24.4429 39.959 24.4381L39.9594 24.4381L39.9597 24.438L39.9601 24.438L39.9603 24.438C40.0532 24.429 40.1467 24.4201 40.2382 24.409C40.7329 24.3603 41.2301 24.3091 41.7102 24.1775C41.8491 24.1409 41.9856 24.0922 42.1172 24.0386C42.5339 23.8729 42.802 23.5634 42.9384 23.1418C43.0335 22.8445 43.0871 22.5326 43.1017 22.2182C43.1188 21.9161 43.1261 21.6164 43.1334 21.3168L43.1334 21.3165C43.1383 21.107 43.1383 20.8974 43.1383 20.6878V20.6803C43.1383 16.3402 43.1383 12.0025 43.1358 7.66237C43.1358 7.20371 43.1228 6.74693 43.1097 6.29038C43.1078 6.22539 43.106 6.1604 43.1041 6.09541C43.0944 5.78105 43.0432 5.46912 42.9555 5.16694C42.9287 5.06703 42.897 4.96467 42.8531 4.87207C42.724 4.58695 42.5168 4.37494 42.2341 4.2409C41.9685 4.11906 41.6907 4.04839 41.408 4.00696C41.3598 4.00008 41.3116 3.99297 41.2635 3.98586C41.0387 3.95269 40.8139 3.91951 40.5891 3.90948C40.5152 3.90432 40.4426 3.89311 40.3694 3.88182C40.3388 3.8771 40.3081 3.87236 40.2772 3.86805C40.2309 3.86074 40.187 3.80469 40.187 3.75839C40.187 3.40503 40.1895 3.05411 40.1943 2.70076C40.1943 2.65446 40.2455 2.60816 40.2991 2.60572C40.4039 2.60328 40.5087 2.60084 40.6135 2.60084H57.0025C57.0734 2.60084 57.1455 2.60308 57.2165 2.60528C57.2503 2.60633 57.2838 2.60737 57.3168 2.60815C57.368 2.60815 57.4119 2.65446 57.4168 2.70807L57.418 2.71538C57.42 2.7268 57.4216 2.73655 57.4216 2.74462C57.4482 3.18703 57.4748 3.62705 57.5014 4.06704L57.5014 4.06743L57.502 4.07763C57.5219 4.38283 57.543 4.68866 57.5641 4.99416C57.5844 5.28873 57.6048 5.583 57.6239 5.87609C57.6366 6.08511 57.6491 6.29413 57.6615 6.50306L57.6616 6.50434C57.6873 6.93563 57.713 7.36657 57.7409 7.7964C57.7433 7.84514 57.7409 7.90119 57.7336 7.94992C57.7287 7.97186 57.7092 7.99866 57.6897 8.00597C57.6556 8.02547 57.619 8.04253 57.58 8.04497C57.2559 8.08639 56.9318 8.12782 56.6052 8.16681C56.5792 8.17155 56.5555 8.16938 56.5295 8.16702L56.5272 8.16681C56.4809 8.16681 56.4298 8.12782 56.4151 8.07665C56.303 7.66237 56.1714 7.25052 56.0082 6.85087C55.8522 6.46096 55.667 6.0881 55.4476 5.73231C55.009 5.01098 54.3827 4.56014 53.5565 4.37981C53.2373 4.30914 52.9131 4.25553 52.5866 4.22872C52.0236 4.18242 51.4631 4.17267 50.8977 4.17511C50.3738 4.17754 49.8498 4.17754 49.3259 4.17511C49.0895 4.17511 48.8531 4.18973 48.6216 4.22628C48.6106 4.22785 48.5994 4.22931 48.5883 4.23078C48.5474 4.23614 48.5058 4.24161 48.4656 4.25309C48.2487 4.32132 48.1025 4.46267 48.0659 4.69417C48.0391 4.87207 48.0269 5.05484 48.0147 5.23761C48.0089 5.3409 48.0093 5.44575 48.0097 5.55091C48.0098 5.57725 48.0099 5.6036 48.0099 5.62996V12.5338C48.0099 12.5679 48.0097 12.5995 48.0095 12.6286C48.0085 12.8052 48.008 12.894 48.0521 12.9382C48.0968 12.983 48.1872 12.9822 48.3692 12.9804H48.3694C48.3955 12.9802 48.4234 12.9799 48.4534 12.9798C48.6471 12.9798 48.841 12.9802 49.0351 12.9806H49.0363C49.523 12.9816 50.0105 12.9826 50.4981 12.9773C50.983 12.9725 51.4656 12.9603 51.9505 12.9432C52.2917 12.931 52.628 12.8774 52.957 12.7897C53.5005 12.6508 53.8831 12.3242 54.1146 11.8149C54.2535 11.5176 54.3388 11.2032 54.4168 10.884C54.4485 10.7573 54.4801 10.6281 54.4972 10.5014C54.5289 10.2845 54.5654 10.2796 54.7823 10.2796C54.847 10.2796 54.9116 10.2794 54.9764 10.2791L54.9769 10.2791H54.9772C55.1076 10.2786 55.2388 10.278 55.3721 10.2796C55.4439 10.2806 55.5052 10.2801 55.5575 10.2796C55.7094 10.2783 55.7856 10.2777 55.8231 10.3154C55.8608 10.3534 55.8594 10.43 55.8565 10.5838C55.8556 10.632 55.8546 10.6879 55.8546 10.7524C55.8562 12.1561 55.8557 13.5598 55.8552 14.9634C55.8549 15.6653 55.8546 16.3671 55.8546 17.0689C55.8546 17.1883 55.8546 17.3029 55.8424 17.4223C55.84 17.4491 55.7937 17.4905 55.7645 17.4905C55.4811 17.4942 55.195 17.4937 54.9102 17.4933H54.909C54.8146 17.4931 54.7203 17.493 54.6264 17.493C54.5728 17.493 54.5289 17.454 54.5167 17.3979L54.5082 17.3541C54.4818 17.2172 54.4549 17.0783 54.4241 16.9374C54.3656 16.6693 54.3022 16.4012 54.1975 16.1478C54.139 16.004 54.078 15.8578 53.9976 15.7238C53.8148 15.407 53.5492 15.1828 53.2031 15.056C53.0326 14.9902 52.8547 14.9391 52.6743 14.9123C52.3502 14.866 52.0261 14.8221 51.6971 14.8221C51.3827 14.8221 51.0683 14.8203 50.7539 14.8184C50.4396 14.8166 50.1252 14.8148 49.8108 14.8148C49.338 14.8123 48.8677 14.8123 48.3949 14.8148C48.3048 14.8148 48.2122 14.8172 48.1197 14.8197C48.0734 14.8221 48.0147 14.8757 48.0123 14.9171C48.0074 14.9927 48.0026 15.0731 48.0026 15.1511C48.0026 15.5351 48.0025 15.9194 48.0024 16.3038V16.3042C48.002 17.8416 48.0016 19.3812 48.0074 20.9193C48.0074 21.303 48.0302 21.6888 48.0528 22.0728L48.0586 22.1719C48.0732 22.4327 48.122 22.691 48.2048 22.942C48.2365 23.0419 48.2731 23.1369 48.3194 23.232C48.4461 23.4854 48.641 23.6706 48.9067 23.7827C49.2113 23.9094 49.533 23.9655 49.8571 24.0069C50.8193 24.1242 51.7839 24.1122 52.7485 24.1002L52.801 24.0995C53.2202 24.0946 53.6394 24.0703 54.0537 24.0045C54.4533 23.9411 54.8506 23.851 55.2259 23.695C55.6694 23.5147 56.052 23.2442 56.3615 22.8786C56.693 22.4887 56.983 22.0671 57.2413 21.6285C57.5752 21.0631 57.8627 20.4782 58.1211 19.8763C58.1258 19.8651 58.1306 19.8539 58.1354 19.8427L58.1474 19.8145C58.1894 19.7151 58.2319 19.6149 58.2843 19.5181C58.2965 19.4913 58.3404 19.4742 58.3745 19.462C58.3989 19.4571 58.4281 19.462 58.45 19.4693C58.7961 19.5473 59.1422 19.6253 59.4858 19.7033C59.554 19.7203 59.5979 19.7813 59.5857 19.8471C59.5573 20.0014 59.5294 20.1558 59.5015 20.3102C59.4457 20.6188 59.3899 20.9275 59.3298 21.2361C59.1349 22.2353 58.9131 23.2295 58.6816 24.2214C58.6645 24.2945 58.7157 24.3432 58.7912 24.3286C59.0008 24.292 59.1958 24.2189 59.3834 24.1239C59.6515 23.985 59.8294 23.7705 59.9269 23.483C60.0168 23.2085 60.0413 22.9218 60.0656 22.6376L60.0658 22.6349C60.0759 22.5152 60.0776 22.3954 60.0793 22.2757C60.0797 22.2517 60.08 22.2276 60.0804 22.2036C60.0829 21.9406 60.0829 21.6801 60.0829 21.4196V5.88096C60.0829 5.74617 60.0815 5.61182 60.0802 5.47753C60.0784 5.29864 60.0766 5.11987 60.078 4.94031C60.078 4.6893 60.0414 4.44561 60.0024 4.19948C59.9973 4.16195 59.9886 4.12681 59.9797 4.09072L59.9796 4.0904L59.9795 4.09015C59.9757 4.07486 59.9719 4.0594 59.9683 4.04351C59.8733 3.67066 59.6369 3.4294 59.2738 3.30999C59.013 3.22226 58.7401 3.17596 58.4695 3.13941C58.4451 3.13669 58.4206 3.13498 58.3963 3.13328C58.3552 3.13041 58.3144 3.12757 58.2746 3.11991C58.2109 3.10831 58.1576 3.10015 58.113 3.09333C58.0018 3.07632 57.9445 3.06755 57.9151 3.03417C57.8838 2.99864 57.8841 2.93523 57.8848 2.80432V2.80415C57.885 2.76539 57.8852 2.7207 57.8847 2.66908C57.8822 2.48387 57.8822 2.30354 57.8847 2.12077C57.8871 2.01598 57.9212 1.97211 58.0138 1.95993C58.1574 1.94035 58.3017 1.92185 58.4461 1.90332C58.6793 1.87341 58.9129 1.84345 59.1446 1.80884C59.2477 1.79331 59.3508 1.77793 59.4539 1.76256C59.9331 1.69109 60.4117 1.6197 60.8871 1.53346C61.6328 1.397 62.3785 1.24591 63.1218 1.08994C63.3811 1.03747 63.6394 0.977169 63.8968 0.9171C64.0458 0.882326 64.1944 0.847628 64.3428 0.814568C64.4451 0.790198 64.5475 0.775577 64.6523 0.765829C64.6669 0.763392 64.6961 0.792635 64.701 0.814568C64.7107 0.848661 64.7107 0.892489 64.7107 0.929028C64.7124 1.00703 64.7118 1.08619 64.7113 1.16491V1.16513C64.711 1.20439 64.7107 1.24356 64.7107 1.28246V21.3287C64.7107 21.513 64.7126 21.6967 64.7144 21.8801V21.8808C64.7162 22.0633 64.7181 22.2455 64.7181 22.4278C64.7181 22.7032 64.7424 22.9761 64.7936 23.2466C64.8131 23.3636 64.8399 23.4781 64.8789 23.5878C64.9788 23.8924 65.1787 24.1068 65.4735 24.2287C65.6319 24.292 65.7952 24.3456 65.9585 24.3798C66.1041 24.4105 66.2507 24.4305 66.397 24.4504L66.3972 24.4505L66.3975 24.4505C66.4715 24.4606 66.5454 24.4707 66.6189 24.4821C66.6782 24.4923 66.7371 24.5018 66.7958 24.5112L66.796 24.5113C66.8917 24.5267 66.9868 24.542 67.082 24.5601C67.1002 24.5647 67.1164 24.5906 67.1284 24.6099L67.1307 24.6137C67.138 24.621 67.1429 24.6356 67.1429 24.6503C67.1478 24.7014 67.1478 24.755 67.1478 24.8062C67.1575 25.603 67.1575 25.6762 67.0966 25.6908C66.888 25.743 66.6768 25.7354 66.4658 25.7279C66.3909 25.7252 66.3159 25.7225 66.2412 25.7225C63.028 25.7262 59.8148 25.7257 56.6016 25.7253C55.5305 25.7251 54.4594 25.725 53.3884 25.725L53.3957 25.7323Z" fill="#F2F7DE"/>
<path fill-rule="evenodd" clip-rule="evenodd" d="M84.6182 8.95882V16.6498C84.6182 16.779 84.6231 16.9105 84.6279 17.0421C84.6304 17.0714 84.6815 17.1031 84.7157 17.0958C84.9326 17.0397 85.1348 16.9471 85.3298 16.8399C85.6759 16.6474 85.9805 16.4037 86.2632 16.1283C86.5459 15.8554 86.8139 15.5678 87.0625 15.2632C87.6913 14.4882 88.2445 13.667 88.7416 12.8019C88.8391 12.6313 88.9146 12.4534 88.9707 12.2609C89.0341 12.044 88.961 11.771 88.7319 11.6053C88.6125 11.52 88.4833 11.4591 88.3493 11.4128C88.2583 11.3819 88.1651 11.3576 88.072 11.3332L88.0718 11.3332C88.0253 11.321 87.9788 11.3088 87.9325 11.2958C87.9167 11.2916 87.9007 11.2876 87.8847 11.2837C87.8367 11.2718 87.7887 11.2599 87.7449 11.2398C87.7156 11.2252 87.6791 11.1837 87.6766 11.1545C87.6718 10.8526 87.6718 10.5531 87.6718 10.2561V10.2553C87.6718 10.1797 87.7205 10.1432 87.8009 10.1359C87.8068 10.1347 87.8132 10.1341 87.8193 10.1335C87.826 10.1329 87.8324 10.1323 87.8375 10.131C88.2437 10.1166 88.6499 10.1028 89.0558 10.089C89.4754 10.0748 89.8948 10.0606 90.3135 10.0457C90.8631 10.0262 91.4126 10.0049 91.9621 9.98355C92.5117 9.96223 93.0612 9.9409 93.6108 9.92141C94.0794 9.90318 94.5507 9.88904 95.0216 9.87491C95.1802 9.87015 95.3387 9.8654 95.497 9.86049C95.575 9.85805 95.6165 9.90191 95.6189 9.9799C95.6213 10.0164 95.6238 10.0579 95.6238 10.0993C95.6238 10.1277 95.6239 10.1561 95.6241 10.1845L95.6241 10.187C95.6245 10.2747 95.625 10.3625 95.6213 10.4502C95.6194 10.533 95.6205 10.6008 95.6215 10.6569V10.6573C95.6235 10.7757 95.6246 10.8416 95.5935 10.8835C95.5547 10.936 95.4655 10.9511 95.2648 10.9852C95.2323 10.9907 95.1969 10.9967 95.1583 11.0034C94.4369 11.1326 93.7229 11.291 93.0308 11.5371C92.7091 11.6516 92.3972 11.7832 92.0974 11.9441C91.6685 12.1756 91.281 12.4607 90.9301 12.8019C90.0601 13.6377 89.2705 14.5443 88.5418 15.5069C88.5345 15.5191 88.5247 15.5288 88.515 15.5361C88.437 15.6433 88.4321 15.6872 88.4955 15.7822C88.5185 15.8182 88.5414 15.8545 88.5642 15.8906C88.6185 15.9769 88.6728 16.0629 88.7294 16.1454C88.7857 16.2257 88.8418 16.3061 88.8978 16.3865L88.8979 16.3866C89.0964 16.6714 89.2943 16.9553 89.4995 17.2347C90.8375 19.0599 92.2363 20.8389 93.6571 22.6008C93.9715 22.9883 94.32 23.3441 94.7026 23.6657C94.7466 23.701 94.7986 23.7302 94.8495 23.7589L94.8659 23.7681C94.8707 23.773 94.8902 23.7657 94.8951 23.7608C94.9048 23.7559 94.9195 23.7364 94.917 23.7315L94.9169 23.7313C94.8926 23.6704 94.8682 23.6096 94.8391 23.5512C94.6222 23.115 94.4686 22.6593 94.4004 22.1743C94.32 21.5968 94.3443 21.029 94.4979 20.4636C94.649 19.9007 94.9633 19.4474 95.4191 19.0892C95.6262 18.9283 95.8504 18.7943 96.0795 18.67C96.428 18.4897 96.7935 18.3435 97.164 18.2143C97.746 18.005 98.3273 17.7981 98.9083 17.5914L98.909 17.5911L98.9102 17.5907L98.9122 17.59L98.9135 17.5895C99.3524 17.4333 99.7911 17.2772 100.23 17.1201C100.771 16.9276 101.307 16.7132 101.831 16.4768C102.116 16.3476 102.399 16.2087 102.659 16.0333C102.725 15.9918 102.789 15.9431 102.847 15.8919C102.866 15.8731 102.876 15.8482 102.887 15.8233C102.889 15.8179 102.891 15.8126 102.894 15.8073L102.896 15.8017C102.898 15.7985 102.899 15.7952 102.901 15.792C102.906 15.7798 102.906 15.7676 102.906 15.7555L102.906 15.7548C102.913 15.1385 102.92 14.5246 102.837 13.9131C102.784 13.5135 102.694 13.1162 102.533 12.7409C102.435 12.5094 102.318 12.295 102.165 12.0952C101.897 11.754 101.558 11.5176 101.134 11.4201C100.571 11.2934 100.066 11.3958 99.6546 11.8222C99.6363 11.8405 99.618 11.86 99.5998 11.8795C99.5815 11.899 99.5632 11.9185 99.5449 11.9368C99.35 12.1488 99.1964 12.3925 99.0697 12.6508C98.9162 12.97 98.7894 13.299 98.6798 13.6353C98.6386 13.7633 98.6002 13.8919 98.5616 14.0207C98.518 14.1666 98.4742 14.3128 98.4263 14.459L98.4188 14.4828C98.3701 14.6361 98.3202 14.7929 98.2484 14.9342C98.0486 15.3412 97.7147 15.5605 97.2688 15.6312C96.7716 15.7091 96.3061 15.619 95.8626 15.3923C95.5921 15.2534 95.3459 15.0804 95.1364 14.8611C95.0096 14.7295 94.9024 14.5833 94.8171 14.42C94.6051 14.0155 94.6246 13.6158 94.8415 13.221C94.9365 13.048 95.0681 12.8969 95.2119 12.7629C95.5165 12.4753 95.8431 12.2146 96.1989 11.9904C96.8764 11.5663 97.5856 11.1984 98.3118 10.8694C99.194 10.4697 100.096 10.1188 101.032 9.86536C101.067 9.85561 101.102 9.84742 101.138 9.83923C101.192 9.82695 101.246 9.81467 101.297 9.79712C101.687 9.66797 102.092 9.63872 102.499 9.66797C102.971 9.70452 103.439 9.76057 103.893 9.89217C104.782 10.148 105.54 10.6208 106.159 11.308C106.681 11.8856 106.997 12.5679 107.163 13.3209C107.261 13.7547 107.324 14.1958 107.334 14.6418C107.335 14.7077 107.337 14.7738 107.338 14.8398L107.338 14.8425V14.8429C107.344 15.1152 107.351 15.3887 107.351 15.6604C107.353 17.415 107.353 19.1647 107.351 20.9193C107.351 21.2337 107.37 21.5456 107.399 21.86C107.424 22.0964 107.485 22.323 107.568 22.5423C107.619 22.6763 107.689 22.8031 107.784 22.9127C107.962 23.1223 108.184 23.2393 108.464 23.2442C108.757 23.2515 109.037 23.1954 109.312 23.1028C109.437 23.0565 109.559 23.0175 109.685 22.981C109.702 22.9737 109.741 22.9907 109.749 23.0078C109.78 23.0638 109.805 23.1247 109.827 23.1857C109.844 23.2361 109.86 23.2863 109.877 23.3363C109.91 23.4358 109.942 23.5343 109.978 23.6316C110.031 23.7852 110.036 23.7876 110.078 23.7657C110.135 23.7391 110.153 23.6903 110.171 23.6394C110.174 23.6325 110.176 23.6257 110.179 23.6188C110.18 23.6158 110.181 23.6127 110.183 23.6097C110.258 23.4001 110.302 23.1832 110.312 22.959L110.317 22.8061L110.317 22.8018C110.328 22.4759 110.338 22.1484 110.338 21.821C110.342 21.242 110.342 20.6643 110.341 20.086V20.0849C110.341 19.892 110.341 19.699 110.341 19.5059C110.341 19.104 110.341 18.7021 110.341 18.3002C110.342 17.0937 110.342 15.8872 110.338 14.6808C110.338 14.3965 110.33 14.1135 110.322 13.8299V13.8292C110.319 13.7338 110.317 13.6383 110.314 13.5427C110.312 13.3599 110.273 13.1796 110.231 13.0017C110.148 12.6605 109.944 12.4168 109.622 12.2779C109.442 12.2024 109.254 12.1415 109.066 12.0976C109.009 12.085 108.952 12.073 108.895 12.061C108.785 12.0381 108.675 12.0151 108.567 11.9879C108.428 11.9538 108.408 11.9173 108.406 11.8076C108.403 11.559 108.403 11.3105 108.406 11.0619C108.408 10.9644 108.438 10.9327 108.547 10.9157C108.971 10.8401 109.398 10.7646 109.822 10.6939C110.572 10.5696 111.316 10.4161 112.057 10.2553C112.951 10.0603 113.84 9.8483 114.725 9.60461C114.763 9.59325 114.804 9.59218 114.844 9.59113C114.856 9.59083 114.867 9.59053 114.879 9.58998C114.913 9.58511 114.93 9.60217 114.932 9.63385C114.934 9.66914 114.936 9.70444 114.938 9.73964C114.943 9.80895 114.947 9.8779 114.947 9.94578C114.948 10.2846 114.948 10.6235 114.948 10.9626V10.9664C114.948 11.3065 114.948 11.6469 114.949 11.9879C114.949 12.0287 114.961 12.0732 114.972 12.1165L114.972 12.1174L114.973 12.1236L114.976 12.1342C114.979 12.1415 115.001 12.1512 115.01 12.1488C115.015 12.147 115.019 12.1452 115.024 12.1434L115.03 12.1409L115.031 12.1407C115.072 12.1243 115.114 12.1081 115.149 12.083C115.288 11.9854 115.427 11.8873 115.566 11.7891C115.705 11.6911 115.844 11.5931 115.983 11.4957C116.051 11.4471 116.119 11.3982 116.187 11.3493C116.407 11.1922 116.627 11.0345 116.85 10.884C117.269 10.5964 117.708 10.3357 118.166 10.1091C118.556 9.91654 118.961 9.77763 119.392 9.70696C119.743 9.65091 120.096 9.65578 120.45 9.68015C120.883 9.7094 121.305 9.79225 121.714 9.9409C122.528 10.2309 123.186 10.7256 123.693 11.425C124.098 11.9831 124.364 12.6045 124.532 13.2698C124.683 13.8693 124.771 14.4736 124.778 15.0926C124.78 15.3022 124.78 15.5117 124.78 15.7213C124.781 16.7351 124.781 17.7482 124.781 18.7614C124.781 19.7746 124.781 20.7877 124.783 21.8015L124.783 21.8266L124.783 21.8564C124.783 21.8946 124.782 21.9327 124.782 21.9708L124.782 21.9768V21.9782C124.781 22.1816 124.781 22.3839 124.79 22.5862C124.802 22.8469 124.831 23.1077 124.861 23.366C124.869 23.4402 124.892 23.5128 124.914 23.5851C124.917 23.5943 124.92 23.6034 124.923 23.6125C124.925 23.6189 124.927 23.6253 124.929 23.6316C125.014 23.9094 125.19 24.1093 125.453 24.2336C125.719 24.3554 125.999 24.4139 126.284 24.4578C126.288 24.4584 126.292 24.4593 126.296 24.4602C126.306 24.4623 126.316 24.4644 126.323 24.4626C126.674 24.4139 127.02 24.3456 127.325 24.1458C127.493 24.0337 127.61 23.8778 127.683 23.6901C127.768 23.4854 127.822 23.271 127.839 23.0468C127.87 22.669 127.902 22.2913 127.902 21.9111C127.901 20.9842 127.901 20.057 127.901 19.1296C127.902 17.5848 127.902 16.0397 127.897 14.4955C127.897 14.2354 127.878 13.9727 127.86 13.7112V13.7104C127.852 13.6072 127.845 13.5041 127.839 13.4014C127.827 13.2015 127.773 13.0114 127.707 12.8287C127.607 12.5582 127.42 12.3681 127.156 12.2487C126.943 12.1511 126.719 12.1044 126.495 12.0576C126.451 12.0483 126.406 12.0391 126.362 12.0294C126.339 12.025 126.316 12.0226 126.292 12.0202C126.263 12.0172 126.234 12.0142 126.206 12.0074L126.167 12.0002C126.024 11.9737 125.957 11.9612 125.925 11.9207C125.896 11.8843 125.896 11.8254 125.897 11.7135L125.897 11.6797L125.897 11.6607C125.897 11.653 125.896 11.6451 125.896 11.637C125.894 11.4786 125.894 11.3226 125.896 11.1642C125.899 10.9206 125.904 10.9132 126.16 10.8743C126.356 10.8459 126.554 10.8195 126.75 10.7934L126.751 10.7933L126.82 10.7841C127.561 10.6964 128.297 10.5721 129.03 10.438C130.049 10.2577 131.058 10.0359 132.062 9.78007C132.139 9.76074 132.202 9.74211 132.254 9.72675C132.366 9.69376 132.426 9.67582 132.459 9.6984C132.498 9.72522 132.497 9.80913 132.496 9.99269C132.496 10.0271 132.496 10.065 132.496 10.1066V21.5627C132.496 22.0354 132.506 22.5058 132.549 22.9737C132.567 23.1564 132.598 23.3392 132.649 23.5122C132.749 23.8436 132.959 24.0849 133.281 24.2238C133.483 24.314 133.692 24.3846 133.919 24.4041C133.934 24.4066 133.968 24.3749 133.968 24.3578C133.975 24.3067 133.973 24.2555 133.965 24.2043C133.939 24.0097 133.911 23.8155 133.884 23.6214L133.883 23.6183L133.883 23.6168C133.843 23.3336 133.803 23.0505 133.766 22.7665C133.731 22.5082 133.707 22.2474 133.685 21.9867C133.662 21.6677 133.641 21.3479 133.62 21.0283C133.607 20.8131 133.593 20.5979 133.578 20.3832C133.574 20.3431 133.575 20.303 133.575 20.264V20.2634C133.575 20.2504 133.575 20.2375 133.575 20.2248C133.578 20.1151 133.607 20.0737 133.707 20.0664L133.707 20.0664C133.917 20.0542 134.126 20.042 134.333 20.0371C134.342 20.0367 134.351 20.0362 134.36 20.0356C134.443 20.0308 134.531 20.0256 134.604 20.0542C134.684 20.0826 134.703 20.1603 134.722 20.2362C134.728 20.2644 134.735 20.2923 134.745 20.3174C135.033 21.0655 135.391 21.7771 135.842 22.44C136.125 22.8518 136.437 23.2368 136.797 23.5805C137.17 23.9338 137.579 24.236 138.05 24.448C138.523 24.6625 139.02 24.7672 139.539 24.7331C139.941 24.7063 140.307 24.5747 140.623 24.3213C141.03 23.9923 141.257 23.5658 141.294 23.0395C141.311 22.8055 141.308 22.5667 141.255 22.3376C141.186 22.0281 141.045 21.7479 140.843 21.4993C140.643 21.2556 140.409 21.0485 140.153 20.8608C139.792 20.5976 139.405 20.3808 139.005 20.1809C138.801 20.079 138.596 19.981 138.392 19.8832C138.278 19.8291 138.165 19.775 138.052 19.7203C137.604 19.5035 137.165 19.2695 136.744 19.0063C136.332 18.7504 135.937 18.4702 135.574 18.1461C135.281 17.8829 135.013 17.5953 134.779 17.281C134.377 16.7327 134.114 16.1283 133.997 15.4581C133.961 15.2534 133.946 15.0439 133.941 14.8367C133.912 13.2722 134.492 11.9855 135.708 10.9937C135.993 10.7597 136.305 10.5623 136.631 10.399C137.17 10.1237 137.74 9.93603 138.335 9.82149C138.876 9.71671 139.424 9.65822 139.975 9.66553C140.071 9.66642 140.167 9.66601 140.262 9.66561C140.429 9.6649 140.595 9.6642 140.76 9.6704C141.63 9.69965 142.473 9.8678 143.294 10.1675C143.46 10.2285 143.553 10.3235 143.599 10.4868C143.632 10.6013 143.667 10.7159 143.702 10.8306L143.702 10.8311C143.759 11.0163 143.815 11.2019 143.862 11.3884C144.062 12.2024 144.206 13.0261 144.328 13.8522C144.33 13.8716 144.332 13.8924 144.334 13.9139L144.334 13.9142L144.334 13.9145L144.334 13.9151L144.334 13.9158C144.336 13.9341 144.338 13.9528 144.34 13.9716C144.343 14.0261 144.347 14.0728 144.351 14.1129C144.361 14.2345 144.367 14.2965 144.34 14.3371C144.312 14.3792 144.249 14.3981 144.12 14.4366L144.12 14.4366L144.119 14.4368C144.084 14.4473 144.044 14.4593 143.999 14.4736C143.899 14.5077 143.799 14.5418 143.699 14.5711C143.614 14.5953 143.548 14.6173 143.495 14.6349C143.392 14.669 143.34 14.6864 143.302 14.6703C143.262 14.6535 143.238 14.6004 143.188 14.4921C143.166 14.4444 143.139 14.386 143.104 14.3152C142.858 13.8229 142.6 13.3429 142.285 12.8896C142.039 12.5314 141.769 12.1975 141.447 11.9075C141.113 11.6053 140.743 11.3665 140.314 11.2203C139.975 11.1058 139.627 11.0521 139.271 11.0863C138.61 11.1448 137.923 11.5566 137.677 12.351C137.48 12.9895 137.582 13.5914 137.984 14.1349C138.123 14.325 138.294 14.4882 138.479 14.6369C138.722 14.8367 138.988 15.0049 139.263 15.156C139.585 15.3314 139.917 15.4849 140.255 15.6238C140.833 15.8675 141.406 16.121 141.964 16.4134C142.417 16.6474 142.856 16.9105 143.267 17.2127C143.626 17.4808 143.957 17.7781 144.24 18.1241C144.793 18.8065 145.085 19.5887 145.142 20.4636C145.151 20.6196 145.156 20.7755 145.154 20.9339C145.146 22.4132 144.552 23.6121 143.426 24.5625C142.89 25.0109 142.285 25.3472 141.632 25.5982C141.006 25.8395 140.36 25.993 139.695 26.0808C139.12 26.1587 138.547 26.1685 137.969 26.1246C137.343 26.0759 136.724 25.9687 136.12 25.7932C135.886 25.7262 135.655 25.6484 135.425 25.5709L135.425 25.5708C135.397 25.5615 135.369 25.5521 135.341 25.5428L135.316 25.5342C135.273 25.5197 135.229 25.5053 135.186 25.491C135.165 25.4854 135.145 25.4756 135.124 25.4655C135.109 25.4583 135.093 25.4508 135.077 25.4447C134.962 25.4106 134.904 25.4082 134.896 25.5471C134.894 25.5861 134.889 25.6275 134.879 25.6616C134.867 25.6982 134.838 25.7323 134.794 25.7323C134.665 25.7371 134.533 25.7396 134.402 25.7396H118.958C118.909 25.7396 118.865 25.7401 118.826 25.7406C118.667 25.7425 118.586 25.7435 118.546 25.7039C118.504 25.6633 118.505 25.5802 118.505 25.412C118.505 25.3946 118.505 25.3762 118.505 25.357C118.505 25.3414 118.505 25.3251 118.505 25.3082C118.505 25.1009 118.507 24.8982 118.51 24.691L118.51 24.6771C118.512 24.6235 118.546 24.5747 118.595 24.5625C118.685 24.5382 118.773 24.5187 118.861 24.5016C118.874 24.4986 118.887 24.4957 118.9 24.4928C118.928 24.4868 118.955 24.4811 118.983 24.4753L118.983 24.4753C119.07 24.457 119.157 24.4388 119.243 24.4139C119.343 24.3871 119.446 24.3505 119.538 24.3067C119.745 24.2067 119.899 24.0508 119.992 23.8388C120.074 23.6438 120.121 23.4391 120.145 23.232C120.194 22.8153 120.216 22.3985 120.213 21.9794C120.213 21.1478 120.214 20.3157 120.214 19.4838L120.215 19.4443C120.215 18.6024 120.216 17.7607 120.216 16.9203C120.216 16.4743 120.216 16.0284 120.213 15.5849C120.213 15.1779 120.157 14.7782 120.062 14.381C119.979 14.0374 119.848 13.7108 119.648 13.4135C119.312 12.9115 118.844 12.6069 118.251 12.4778C117.669 12.351 117.104 12.4168 116.55 12.6069C116.1 12.7604 115.693 12.992 115.3 13.26C115.249 13.2952 115.205 13.3244 115.168 13.3494C115.052 13.4262 114.996 13.4634 114.97 13.5155C114.945 13.5645 114.947 13.6266 114.949 13.7469V13.7472C114.95 13.7943 114.952 13.8503 114.952 13.918C114.95 15.6791 114.951 17.4402 114.951 19.2013C114.951 20.0818 114.952 20.9624 114.952 21.8429C114.952 21.9855 114.954 22.1299 114.955 22.2743C114.957 22.4186 114.959 22.563 114.959 22.7056C114.959 22.918 114.986 23.1272 115.013 23.3371C115.02 23.3873 115.026 23.4375 115.032 23.4878C115.034 23.497 115.035 23.5061 115.037 23.5155C115.04 23.5311 115.042 23.5475 115.047 23.5658C115.135 23.9874 115.373 24.2701 115.793 24.3871C115.899 24.4163 116.007 24.4406 116.115 24.4652L116.116 24.4653C116.143 24.4715 116.171 24.4778 116.199 24.4841C116.217 24.4883 116.235 24.4925 116.253 24.4967L116.28 24.5019C116.371 24.5197 116.465 24.5379 116.558 24.5601C116.611 24.5723 116.655 24.6186 116.658 24.6673C116.66 24.7185 116.663 24.7697 116.663 24.8233C116.67 25.5739 116.667 25.6933 116.611 25.7079C116.404 25.758 116.193 25.7503 115.982 25.7427C115.906 25.7399 115.829 25.7371 115.754 25.7371C113.915 25.7408 112.077 25.7403 110.24 25.7399H110.24C109.628 25.7397 109.016 25.7396 108.403 25.7396C108.274 25.7396 108.143 25.7323 108.011 25.7225C107.994 25.7225 107.965 25.6933 107.962 25.6738C107.95 25.5982 107.945 25.5203 107.94 25.4398C107.933 25.279 107.906 25.2668 107.748 25.3448L107.747 25.3451C107.294 25.5789 106.841 25.8128 106.391 26.0515C106.259 26.1197 106.127 26.149 105.979 26.1465C105.542 26.1295 105.121 26.0418 104.719 25.8785C104.019 25.5909 103.525 25.0889 103.183 24.4261C103.16 24.3807 103.141 24.3331 103.121 24.2853C103.106 24.2483 103.091 24.2112 103.074 24.1751C103.059 24.1385 103.015 24.1166 102.984 24.1361C102.893 24.1872 102.801 24.2409 102.713 24.2969C102.258 24.5815 101.803 24.8636 101.349 25.1457L101.347 25.1464L101.346 25.1474C101.112 25.2912 100.878 25.435 100.639 25.5714C100.459 25.6738 100.274 25.7737 100.086 25.8663C99.4523 26.1758 99.3573 26.2026 98.5311 26.1027C98.0194 26.0442 97.5271 25.9102 97.064 25.6884C97.0485 25.6806 97.0329 25.6758 97.0167 25.6708L97.0081 25.6682C97.0017 25.6662 96.9952 25.664 96.9885 25.6616C96.9373 25.6445 96.8959 25.647 96.8545 25.6957C96.8301 25.7201 96.7862 25.7347 96.7521 25.7396C96.7112 25.7454 96.6687 25.745 96.6259 25.7446C96.6152 25.7446 96.6044 25.7445 96.5937 25.7445C94.6831 25.7688 92.7676 25.7932 90.857 25.8151C90.8014 25.8158 90.7556 25.8176 90.717 25.8191C90.6265 25.8227 90.5762 25.8247 90.5336 25.8075C90.4803 25.786 90.4392 25.7345 90.3465 25.6187L90.3191 25.5844L90.2989 25.5592C89.8237 24.9646 89.385 24.3457 88.9512 23.7218C88.0544 22.4351 87.1917 21.124 86.329 19.8129C86.1218 19.4961 85.9122 19.1769 85.7027 18.8601C85.6466 18.7724 85.5857 18.6871 85.5223 18.6042C85.3103 18.3264 85.0179 18.1997 84.6791 18.1704C84.645 18.168 84.6279 18.1826 84.6255 18.2143C84.6247 18.2268 84.6239 18.2393 84.623 18.2518L84.6215 18.2729C84.6174 18.3313 84.6133 18.3898 84.6133 18.4483C84.6133 18.8636 84.6136 19.2784 84.6139 19.693V19.6971C84.6144 20.524 84.6149 21.3498 84.6133 22.1768C84.6133 22.5033 84.6352 22.8299 84.684 23.154C84.7084 23.2929 84.7376 23.4367 84.7839 23.5731C84.8814 23.8583 85.069 24.0654 85.3444 24.1946C85.5857 24.3091 85.8391 24.3651 86.095 24.4188C86.2216 24.4428 86.3492 24.4626 86.4765 24.4824L86.477 24.4824C86.5431 24.4927 86.6093 24.503 86.675 24.5138C86.7253 24.5232 86.7745 24.5347 86.824 24.5462L86.8417 24.5503C86.8475 24.5516 86.8534 24.553 86.8592 24.5543L86.8712 24.5571C86.883 24.5597 86.8947 24.5624 86.9065 24.565C86.9553 24.5772 86.9943 24.6235 86.9943 24.6771C86.9967 24.9914 86.9943 25.3058 86.9918 25.6177C86.9918 25.6884 86.9407 25.7396 86.87 25.7396C86.831 25.742 86.792 25.742 86.753 25.742H78.1455C78.0976 25.742 78.0548 25.7425 78.0165 25.7429C77.8548 25.7447 77.774 25.7456 77.7338 25.7057C77.6936 25.6657 77.6939 25.585 77.6945 25.4236C77.6947 25.3897 77.6948 25.3521 77.6946 25.3107C77.6946 25.103 77.697 24.8999 77.6993 24.6924L77.6995 24.6795C77.6995 24.621 77.7336 24.5772 77.7848 24.5674C77.8633 24.5511 77.9408 24.5375 78.0186 24.5239L78.0192 24.5238C78.0692 24.515 78.1193 24.5063 78.1698 24.4967C78.2641 24.4789 78.3586 24.4621 78.4531 24.4453C78.6421 24.4117 78.8311 24.3781 79.0179 24.3359C79.169 24.2993 79.3177 24.2384 79.459 24.1751C79.6978 24.063 79.8562 23.8753 79.944 23.6316C79.9903 23.5122 80.0244 23.3806 80.0415 23.2539C80.0756 22.9785 80.0975 22.7056 80.1097 22.4327C80.117 22.2647 80.1161 22.0996 80.1152 21.933V21.9329C80.1149 21.8771 80.1146 21.8212 80.1146 21.7649V5.6787C80.1146 5.25954 80.1146 4.84283 80.0585 4.42611C80.0366 4.26771 80.0025 4.11662 79.9537 3.96797C79.8514 3.67066 79.6564 3.45134 79.3664 3.3173C79.2129 3.24663 79.0496 3.19302 78.8814 3.15647C78.7687 3.13362 78.656 3.11553 78.5433 3.09745C78.4757 3.08659 78.4081 3.07574 78.3404 3.06386C78.3144 3.0598 78.2884 3.05601 78.2624 3.05222C78.2105 3.04464 78.1584 3.03705 78.1065 3.02731C77.9286 2.99563 77.9213 2.98588 77.9188 2.7958C77.9164 2.58866 77.9164 2.37665 77.9188 2.16951C77.9213 2.00379 77.9359 1.98917 78.087 1.9648C78.2026 1.94816 78.3189 1.93182 78.4354 1.91547C78.6428 1.88633 78.8509 1.85711 79.0569 1.8259C79.2335 1.79873 79.4101 1.77273 79.5866 1.74675C79.9801 1.68881 80.3733 1.63093 80.7653 1.56027C81.511 1.43111 82.2567 1.29221 82.9976 1.12162C83.4152 1.02451 83.8352 0.927397 84.2552 0.830285L84.2599 0.829189C84.3221 0.815745 84.3832 0.804618 84.4446 0.793412C84.4722 0.788376 84.5001 0.7833 84.528 0.778014C84.5621 0.770703 84.606 0.809694 84.606 0.843811C84.6068 0.886465 84.6079 0.92965 84.6089 0.972927C84.6111 1.0607 84.6133 1.14885 84.6133 1.23372V8.96369L84.6182 8.95882ZM102.91 17.549C102.91 17.471 102.906 17.3931 102.896 17.3151C102.893 17.3005 102.847 17.281 102.828 17.2883C102.767 17.3102 102.708 17.337 102.652 17.3663C102.033 17.7294 101.402 18.0778 100.766 18.4093C100.581 18.5067 100.405 18.6212 100.23 18.7358C100.054 18.8479 99.8959 18.9868 99.7545 19.1428C99.4645 19.4596 99.2939 19.8324 99.2208 20.2565C99.155 20.6342 99.1721 21.0119 99.2281 21.3848C99.2793 21.7235 99.3792 22.0476 99.5449 22.3474C99.7935 22.7958 100.149 23.1296 100.625 23.3319C101.107 23.5317 101.59 23.5341 102.077 23.3465C102.345 23.2417 102.591 23.0955 102.828 22.9298C102.874 22.8957 102.903 22.8518 102.906 22.7982C102.91 22.6934 102.91 22.5911 102.91 22.4863V17.549Z" fill="#F2F7DE"/>
<path fill-rule="evenodd" clip-rule="evenodd" d="M213.032 24.1288C212.955 24.1211 212.904 24.1557 212.854 24.1897C212.848 24.1939 212.842 24.198 212.836 24.202C212.828 24.207 212.82 24.2119 212.813 24.2165C212.764 24.2467 212.716 24.2769 212.668 24.3073C212.596 24.3524 212.524 24.3976 212.452 24.4429C212.229 24.5835 212.006 24.7245 211.779 24.8623C211.358 25.1206 210.931 25.3789 210.502 25.6299C210.288 25.7542 210.064 25.8639 209.84 25.9711C209.564 26.1027 209.274 26.1612 208.965 26.1417C207.537 26.0564 206.325 25.5251 205.392 24.4236C204.792 23.7145 204.446 22.8908 204.349 21.9721C204.295 21.4749 204.339 20.9802 204.466 20.4928C204.617 19.9129 204.936 19.4474 205.407 19.0843C205.623 18.9137 205.86 18.7748 206.106 18.6505C206.445 18.4799 206.798 18.341 207.154 18.2119C208.177 17.8488 209.199 17.4857 210.22 17.1177C210.749 16.9252 211.27 16.718 211.784 16.4865C212.06 16.3647 212.328 16.2306 212.584 16.0698C212.662 16.0235 212.735 15.9723 212.805 15.9114C212.847 15.8797 212.881 15.8359 212.881 15.7798C212.88 15.653 212.881 15.5259 212.882 15.3986V15.3975C212.885 15.0286 212.888 14.6584 212.852 14.2908C212.815 13.9131 212.764 13.5354 212.659 13.1723C212.557 12.8165 212.418 12.4802 212.201 12.1804C211.935 11.8052 211.589 11.5395 211.134 11.4274C210.556 11.2861 210.044 11.3884 209.62 11.8295C209.391 12.0659 209.203 12.3315 209.057 12.6264C208.894 12.9554 208.767 13.299 208.653 13.645C208.609 13.7826 208.568 13.9202 208.527 14.0578C208.486 14.1956 208.446 14.3334 208.402 14.4712C208.396 14.4881 208.391 14.5051 208.385 14.5221C208.342 14.6542 208.299 14.787 208.238 14.9123C208.036 15.3314 207.697 15.5654 207.234 15.636C206.749 15.7091 206.299 15.6238 205.865 15.407C205.56 15.2486 205.285 15.0536 205.056 14.7953C204.88 14.5979 204.749 14.3761 204.678 14.1154C204.651 14.0182 204.65 13.9199 204.648 13.8212V13.8211C204.648 13.7763 204.647 13.7314 204.644 13.6865C204.644 13.6743 204.639 13.6524 204.634 13.6524C204.631 13.6524 204.627 13.6523 204.623 13.6523C204.601 13.652 204.576 13.6516 204.566 13.6621C204.54 13.6867 204.517 13.7146 204.494 13.7421L204.494 13.7422C204.483 13.7556 204.472 13.7688 204.461 13.7815C203.876 14.4858 203.174 15.0463 202.375 15.4849C201.637 15.8919 200.854 16.1795 200.038 16.3817C199.146 16.6011 198.237 16.718 197.318 16.718C197.172 16.718 197.033 16.7034 196.892 16.6669C196.459 16.5608 196.025 16.4604 195.593 16.3602C195.389 16.3131 195.186 16.266 194.983 16.2185C194.881 16.1941 194.779 16.1722 194.674 16.1502C194.552 16.1283 194.518 16.16 194.516 16.2989C194.514 16.3268 194.514 16.3546 194.515 16.3829L194.515 16.3998V16.4014C194.515 16.419 194.516 16.4368 194.516 16.4548C194.516 16.978 194.516 17.5011 194.516 18.0242C194.517 19.0705 194.517 20.1167 194.516 21.163C194.513 21.5923 194.547 22.0192 194.581 22.4485L194.581 22.4546C194.601 22.7031 194.657 22.9444 194.735 23.1808C194.874 23.5878 195.139 23.8753 195.537 24.0459C195.754 24.1385 195.978 24.2067 196.212 24.2506C196.633 24.3286 197.062 24.3895 197.496 24.4212C197.582 24.4271 197.669 24.4384 197.756 24.4496L197.778 24.4523C197.827 24.4587 197.876 24.4649 197.925 24.4699C197.976 24.4772 198.027 24.5284 198.027 24.5698C198.027 24.9232 198.025 25.2766 198.022 25.6275C198.022 25.6786 197.974 25.725 197.925 25.7274C197.832 25.7323 197.742 25.7347 197.65 25.7347H187C186.981 25.7347 186.963 25.7347 186.946 25.7348C186.79 25.7352 186.712 25.7354 186.673 25.6964C186.634 25.6573 186.635 25.5786 186.636 25.4211L186.636 25.4173C186.636 25.4035 186.637 25.3891 186.637 25.374C186.637 25.1157 186.637 24.8525 186.639 24.5893C186.639 24.5162 186.681 24.4724 186.759 24.4602C186.807 24.4542 186.855 24.4473 186.903 24.4405C186.971 24.4307 187.04 24.421 187.107 24.4139C187.473 24.3822 187.836 24.331 188.194 24.2506C188.372 24.2092 188.55 24.158 188.718 24.0922C189.132 23.9314 189.412 23.6389 189.554 23.2125C189.624 23.0005 189.678 22.786 189.7 22.5642C189.741 22.15 189.78 21.7332 189.776 21.3141C189.774 21.2044 189.775 21.0937 189.776 20.9833C189.777 20.9098 189.778 20.8364 189.778 20.7633V7.58194C189.778 7.52292 189.778 7.4639 189.778 7.4049L189.778 7.39842V7.3981C189.779 7.18414 189.78 6.97042 189.771 6.75826C189.756 6.4049 189.732 6.05155 189.695 5.70063C189.673 5.4813 189.62 5.26441 189.544 5.0524C189.403 4.66249 189.147 4.38468 188.762 4.22384C188.53 4.1288 188.289 4.06544 188.045 4.02158C187.873 3.99047 187.699 3.97037 187.524 3.95018C187.439 3.94031 187.353 3.93042 187.268 3.91922C187.217 3.91192 187.165 3.904 187.113 3.89609L187.113 3.896C187.061 3.8881 187.009 3.88021 186.958 3.87292C186.912 3.86561 186.866 3.80712 186.868 3.76082C186.868 3.40747 186.871 3.05655 186.875 2.70319C186.875 2.65445 186.927 2.61059 186.978 2.61059C187.085 2.60571 187.19 2.60328 187.295 2.60328C188.094 2.60328 188.892 2.60343 189.691 2.60358L189.693 2.60358C192.09 2.60404 194.486 2.6045 196.882 2.60084C197.591 2.60084 198.298 2.62765 199.002 2.68613C199.955 2.76168 200.898 2.91521 201.807 3.22713C203.196 3.70721 204.283 4.56501 205.063 5.80785C205.443 6.41221 205.689 7.07262 205.826 7.76959C205.977 8.54697 206.006 9.32435 205.926 10.1139C205.848 10.845 205.68 11.5517 205.399 12.2341C205.382 12.2779 205.363 12.321 205.345 12.3641C205.318 12.4287 205.29 12.4934 205.265 12.5606C205.259 12.5751 205.272 12.6002 205.282 12.6194L205.283 12.6199C205.284 12.6231 205.286 12.6261 205.287 12.6288C205.29 12.6313 205.314 12.6264 205.321 12.6191L205.352 12.5965C205.425 12.543 205.499 12.4888 205.567 12.429C205.821 12.2194 206.091 12.0342 206.372 11.8685C207.844 11.001 209.396 10.3211 211.041 9.85317C211.075 9.84335 211.109 9.83597 211.143 9.82863C211.185 9.81958 211.227 9.81058 211.268 9.79712C211.777 9.6241 212.298 9.63628 212.822 9.69721C213.173 9.7362 213.524 9.78981 213.865 9.88972C214.77 10.1456 215.535 10.6306 216.159 11.3324C216.658 11.8905 216.965 12.5484 217.131 13.2722C217.229 13.6938 217.294 14.1202 217.304 14.554C217.306 14.6145 217.308 14.6751 217.309 14.7356C217.32 15.0942 217.331 15.4525 217.331 15.809C217.333 16.6644 217.333 17.521 217.333 18.3776C217.333 19.2342 217.333 20.0907 217.336 20.9461C217.336 21.1619 217.348 21.3776 217.361 21.5934C217.362 21.6217 217.364 21.65 217.365 21.6784C217.366 21.6986 217.368 21.7188 217.369 21.739C217.37 21.7623 217.371 21.7855 217.372 21.8088C217.387 22.0598 217.453 22.2986 217.54 22.5301C217.597 22.6788 217.675 22.8152 217.782 22.9322C217.955 23.1272 218.172 23.2295 218.437 23.2393C218.715 23.249 218.981 23.2003 219.246 23.1126C219.311 23.0915 219.374 23.0679 219.437 23.0443C219.484 23.027 219.53 23.0096 219.578 22.9931C219.707 22.9493 219.719 22.9517 219.775 23.1004C219.821 23.2221 219.861 23.3457 219.901 23.4701L219.902 23.472C219.926 23.5461 219.95 23.6206 219.975 23.695C219.982 23.7145 220.002 23.734 220.019 23.751C220.02 23.7517 220.021 23.7521 220.023 23.7523C220.027 23.7528 220.034 23.7507 220.04 23.7478C220.046 23.7452 220.052 23.7418 220.055 23.7388C220.082 23.712 220.112 23.6804 220.124 23.6487C220.214 23.4147 220.272 23.1759 220.285 22.9249C220.288 22.8478 220.292 22.7706 220.296 22.6933C220.309 22.4577 220.321 22.2215 220.321 21.9867C220.324 19.4206 220.324 16.8594 220.321 14.2957C220.32 14.1235 220.31 13.9512 220.301 13.779L220.301 13.7778C220.295 13.6629 220.288 13.548 220.285 13.433C220.277 13.2722 220.236 13.1211 220.19 12.9725C220.109 12.7141 219.948 12.5143 219.709 12.373C219.561 12.2877 219.402 12.2219 219.242 12.1731C219.097 12.129 218.951 12.0913 218.804 12.0534L218.736 12.0357C218.715 12.0303 218.694 12.0249 218.673 12.0194L218.637 12.0099C218.619 12.0038 218.599 11.9995 218.579 11.9952C218.559 11.991 218.538 11.9867 218.52 11.9806C218.425 11.9538 218.384 11.9099 218.384 11.8198C218.381 11.5566 218.384 11.2958 218.386 11.0351C218.386 10.9595 218.425 10.923 218.508 10.9108C218.677 10.8875 218.846 10.865 219.015 10.8425C219.429 10.7874 219.844 10.7322 220.258 10.6647C220.994 10.5501 221.727 10.4088 222.456 10.2455C223.194 10.0774 223.93 9.89703 224.659 9.68746C224.704 9.6754 224.75 9.66943 224.795 9.66353C224.814 9.66108 224.833 9.65864 224.852 9.65578C224.888 9.6509 224.905 9.66553 224.908 9.69964C224.909 9.72184 224.911 9.74393 224.912 9.76593L224.913 9.76662C224.919 9.84825 224.925 9.92869 224.925 10.0091V13.0309C224.925 13.0772 224.926 13.1229 224.928 13.1686C224.93 13.2143 224.932 13.26 224.932 13.3063C224.934 13.3404 224.947 13.3575 224.981 13.355C225.005 13.3502 225.034 13.3429 225.047 13.3282C225.067 13.2984 225.086 13.2685 225.104 13.239L225.105 13.2389C225.121 13.2131 225.137 13.1875 225.154 13.1625C225.219 13.0646 225.283 12.9664 225.348 12.8683L225.351 12.8643L225.351 12.8637C225.53 12.5923 225.708 12.3211 225.897 12.0537C226.231 11.5834 226.601 11.1447 227.016 10.7402C227.242 10.5209 227.479 10.3138 227.742 10.1407C227.905 10.0359 228.078 9.93846 228.256 9.85317C228.668 9.6509 229.109 9.61435 229.557 9.68746C229.884 9.73863 230.196 9.83611 230.484 9.99939C230.554 10.0408 230.625 10.0627 230.705 10.0627C231.127 10.0627 231.546 10.0603 231.963 10.0579C232.038 10.0579 232.075 10.014 232.08 9.93359C232.08 9.91439 232.08 9.89519 232.081 9.8757L232.082 9.85411C232.082 9.8475 232.082 9.84084 232.082 9.83414C232.082 9.82754 232.082 9.82089 232.082 9.81418V7.57951C232.082 7.49421 232.111 7.42842 232.182 7.37968C232.224 7.35424 232.264 7.32474 232.303 7.29623C232.312 7.29 232.32 7.28382 232.329 7.27774L232.343 7.26758C233.282 6.62677 234.219 5.98449 235.156 5.34188C235.427 5.15605 235.698 4.97019 235.969 4.78434C235.995 4.7677 236.02 4.75055 236.044 4.7336L236.045 4.73335L236.046 4.73261C236.075 4.71265 236.104 4.69296 236.133 4.67467C236.181 4.64056 236.23 4.64056 236.281 4.66493C236.305 4.67588 236.329 4.68671 236.353 4.69753L236.354 4.69775C236.437 4.73499 236.519 4.7721 236.6 4.81358C236.676 4.85013 236.717 4.9135 236.713 5.00366C236.709 5.07325 236.71 5.14177 236.711 5.21135L236.711 5.21386C236.712 5.24823 236.713 5.28287 236.713 5.31803V9.6704C236.713 9.76054 236.715 9.84836 236.717 9.93838V9.93883L236.717 9.94577C236.72 10.014 236.771 10.0603 236.844 10.0603C236.964 10.0627 237.081 10.0652 237.197 10.0652H239.871C239.878 10.0652 239.886 10.0653 239.894 10.0656C239.902 10.0658 239.909 10.0661 239.917 10.0665L239.917 10.0665C239.955 10.068 239.993 10.0696 240.029 10.0627C240.222 10.0359 240.319 10.1529 240.383 10.3064C240.417 10.3893 240.441 10.477 240.466 10.5672C240.517 10.7621 240.524 10.767 240.69 10.7353L240.994 10.6762C241.495 10.5789 241.998 10.4813 242.5 10.382C243.604 10.1627 244.696 9.90191 245.786 9.60704C245.823 9.59592 245.861 9.58902 245.9 9.58207C245.912 9.57989 245.924 9.57769 245.937 9.57536C245.966 9.57049 246.024 9.60948 246.024 9.63872C246.026 9.65675 246.027 9.67479 246.029 9.69282C246.035 9.76495 246.041 9.83709 246.041 9.90922V11.871C246.044 11.9514 246.049 12.0294 246.059 12.1049C246.061 12.1195 246.105 12.1439 246.117 12.139C246.185 12.1049 246.253 12.0659 246.317 12.022L246.322 12.0181L246.323 12.0175C246.64 11.7899 246.957 11.5624 247.275 11.3373C247.764 10.9863 248.257 10.6403 248.783 10.3479C249.046 10.2017 249.312 10.0603 249.592 9.94821C250.058 9.75569 250.54 9.66065 251.045 9.65334C251.639 9.64847 252.219 9.72889 252.782 9.92384C253.65 10.226 254.339 10.767 254.859 11.5273C255.185 12.0074 255.414 12.5314 255.57 13.0919C255.704 13.5695 255.787 14.0569 255.829 14.5565C255.863 14.961 255.875 15.3655 255.875 15.7701C255.872 17.7854 255.872 19.7983 255.875 21.8137C255.875 22.0919 255.881 22.3716 255.887 22.6516V22.6562C255.889 22.7279 255.89 22.7996 255.892 22.8713C255.894 23.0663 255.928 23.2588 255.967 23.4537C256.048 23.8778 256.292 24.1556 256.701 24.292C256.989 24.3871 257.283 24.4407 257.581 24.4894C257.698 24.5114 257.812 24.5309 257.929 24.5503C257.983 24.5625 258.029 24.6088 258.029 24.6576L258.022 25.6372C258.022 25.686 257.968 25.7298 257.917 25.7323C257.81 25.7347 257.707 25.7371 257.603 25.7371H250.019C249.949 25.7371 249.879 25.735 249.809 25.7328C249.791 25.7322 249.772 25.7317 249.753 25.7311C249.737 25.7306 249.721 25.7302 249.704 25.7298C249.656 25.7274 249.609 25.6811 249.604 25.6275C249.6 25.5763 249.597 25.5251 249.597 25.4715C249.597 25.4251 249.597 25.3784 249.596 25.3314V25.3303C249.596 25.2345 249.595 25.1372 249.597 25.0377C249.599 24.9541 249.598 24.8854 249.597 24.8288C249.596 24.7047 249.595 24.6382 249.626 24.5967C249.663 24.5486 249.744 24.5341 249.917 24.5027C249.958 24.4954 250.004 24.4871 250.055 24.4772C250.221 24.448 250.387 24.3944 250.543 24.3359C250.83 24.2287 251.018 24.0215 251.113 23.7291C251.191 23.4903 251.242 23.249 251.254 22.998C251.258 22.9048 251.262 22.8116 251.267 22.7183C251.281 22.407 251.296 22.0957 251.296 21.7844C251.303 19.7837 251.301 17.7854 251.298 15.7822C251.298 15.3485 251.271 14.9196 251.176 14.4955C251.103 14.1739 251.001 13.8644 250.837 13.5793C250.494 12.9773 249.987 12.6069 249.3 12.4656C248.717 12.3486 248.157 12.4217 247.604 12.6142C247.153 12.7726 246.743 13.0066 246.358 13.2746C246.307 13.3101 246.263 13.3381 246.227 13.3616C246.14 13.4182 246.093 13.4483 246.069 13.491C246.041 13.5397 246.041 13.6047 246.043 13.7437C246.043 13.7807 246.044 13.823 246.044 13.8717V13.931C246.044 16.6186 246.044 19.3063 246.046 21.994C246.046 22.2287 246.053 22.4634 246.059 22.6982L246.059 22.7001C246.063 22.8181 246.066 22.9361 246.068 23.0541C246.073 23.2515 246.11 23.444 246.156 23.6316C246.241 23.9898 246.451 24.236 246.807 24.353C246.994 24.4139 247.182 24.4651 247.377 24.4943C247.464 24.5067 247.549 24.5314 247.635 24.5565L247.636 24.5567L247.657 24.5627L247.682 24.5698C247.695 24.5737 247.707 24.5945 247.718 24.6127C247.72 24.6174 247.723 24.6219 247.725 24.6259C247.73 24.6381 247.733 24.6527 247.733 24.6649C247.735 24.9768 247.735 25.2912 247.735 25.6055C247.735 25.6762 247.682 25.725 247.611 25.7274L247.605 25.728C247.58 25.7302 247.558 25.7323 247.533 25.7323H239.437C239.367 25.7323 239.297 25.7301 239.228 25.7279C239.193 25.7268 239.158 25.7258 239.123 25.725C239.074 25.7225 239.028 25.6762 239.023 25.6226C239.016 25.5324 239.008 25.4423 238.998 25.3521C238.996 25.3155 238.974 25.3034 238.942 25.318C238.919 25.3272 238.897 25.3359 238.874 25.3445C238.824 25.3635 238.774 25.3823 238.725 25.4057C238.614 25.4577 238.502 25.5104 238.39 25.563L238.388 25.5641C238.275 25.6171 238.163 25.6701 238.05 25.7225C238.009 25.742 237.967 25.7596 237.925 25.7773L237.925 25.7774C237.883 25.795 237.841 25.8127 237.799 25.8322C237.12 26.1344 236.415 26.2026 235.684 26.0978C235.348 26.0491 235.014 25.9955 234.687 25.8931C234.076 25.7006 233.535 25.396 233.098 24.9183C232.721 24.504 232.477 24.0167 232.321 23.483C232.172 22.9785 232.107 22.4595 232.087 21.9355C232.081 21.7794 232.082 21.6217 232.082 21.4649C232.082 21.4259 232.082 21.387 232.082 21.3482C232.082 18.3288 232.082 15.307 232.08 12.2852C232.08 12.1561 232.072 12.0269 232.063 11.8953C232.06 11.8758 232.031 11.8466 232.014 11.8441C231.897 11.8368 231.78 11.8344 231.663 11.8368C231.644 11.8368 231.612 11.8636 231.607 11.8856C231.596 11.9231 231.59 11.9635 231.585 12.0024L231.585 12.0026L231.585 12.006L231.584 12.0063L231.584 12.0068L231.584 12.0073C231.583 12.0172 231.582 12.027 231.58 12.0367C231.577 12.0594 231.574 12.0822 231.571 12.105C231.543 12.3165 231.515 12.5286 231.449 12.7288C231.212 13.4428 230.771 13.9911 230.108 14.3493C229.899 14.4663 229.674 14.5321 229.436 14.5516C229.18 14.5686 228.943 14.515 228.736 14.3518C228.573 14.2226 228.405 14.0983 228.232 13.9813C227.99 13.8205 227.732 13.6962 227.449 13.6255C226.994 13.511 226.567 13.5744 226.172 13.8351C225.997 13.9497 225.843 14.091 225.702 14.2494C225.388 14.6052 225.156 15.0146 224.969 15.4484C224.949 15.4971 224.939 15.5483 224.934 15.5995C224.929 15.6619 224.929 15.7242 224.929 15.7866L224.93 15.8168L224.93 15.8334C224.93 17.9268 224.93 20.0176 224.932 22.111L224.932 22.1817C224.932 22.5112 224.931 22.8388 224.99 23.1686C224.995 23.1954 224.998 23.2198 225 23.2466C225.068 23.7486 225.339 24.0873 225.826 24.2409C226.024 24.3018 226.228 24.3578 226.436 24.3895C226.633 24.4232 226.83 24.4441 227.028 24.4651C227.117 24.4744 227.205 24.4838 227.293 24.4943C227.394 24.5068 227.494 24.5181 227.595 24.5294L227.595 24.5294C227.69 24.54 227.785 24.5507 227.881 24.5625C227.93 24.5674 227.976 24.621 227.976 24.6698C227.978 24.9695 227.981 25.2717 227.981 25.5714C227.981 25.6908 227.937 25.7323 227.813 25.7323C227.734 25.7359 227.655 25.7355 227.577 25.735C227.551 25.7349 227.524 25.7347 227.498 25.7347H218.459C218.33 25.7347 218.198 25.7274 218.069 25.7176C218.052 25.7152 218.023 25.6884 218.021 25.6689C218.006 25.5522 217.999 25.4355 217.991 25.3189L217.991 25.318C217.986 25.2863 217.93 25.2571 217.901 25.2717C217.889 25.2767 217.876 25.2817 217.863 25.2867C217.803 25.3105 217.743 25.3341 217.687 25.3643L217.511 25.4554C217.449 25.4874 217.387 25.5195 217.325 25.5515L217.324 25.5522C217.003 25.7181 216.682 25.8841 216.363 26.0539C216.244 26.1173 216.125 26.1465 215.988 26.1441C215.54 26.1295 215.106 26.0393 214.692 25.8687C213.995 25.5812 213.5 25.0767 213.164 24.4139C213.13 24.3474 213.101 24.2771 213.072 24.2094C213.061 24.1828 213.05 24.1566 213.039 24.1312L213.032 24.1288ZM212.886 17.705C212.886 17.5856 212.883 17.4686 212.878 17.3516C212.878 17.3029 212.813 17.2736 212.764 17.298C212.718 17.32 212.671 17.3443 212.625 17.3736C212.004 17.7342 211.377 18.0827 210.739 18.4166C210.556 18.5141 210.378 18.6261 210.203 18.7407C210.027 18.8552 209.871 18.9941 209.727 19.1477C209.464 19.4328 209.291 19.7666 209.216 20.1468C209.118 20.6415 209.138 21.1338 209.247 21.6236C209.316 21.9185 209.423 22.1987 209.584 22.4546C209.83 22.8567 210.169 23.1515 210.607 23.3319C211.087 23.5341 211.57 23.5366 212.057 23.3465C212.325 23.2393 212.574 23.0931 212.808 22.9273C212.854 22.8932 212.881 22.8518 212.881 22.7982C212.883 22.6934 212.886 22.5886 212.886 22.4838V17.705ZM241.431 18.2192V18.1903C241.431 16.8791 241.431 15.5703 241.428 14.2592C241.428 14.0642 241.428 13.8668 241.414 13.6743C241.394 13.4135 241.37 13.1528 241.287 12.9018C241.194 12.6264 241.021 12.4241 240.758 12.3023C240.639 12.2487 240.517 12.1999 240.392 12.1634C240.261 12.1276 240.128 12.0964 239.996 12.0652C239.911 12.0455 239.827 12.0258 239.744 12.005C239.692 11.9916 239.642 11.9737 239.592 11.9559C239.568 11.9477 239.545 11.9395 239.522 11.9319C239.453 11.8257 239.347 11.8274 239.244 11.8291C239.231 11.8293 239.218 11.8295 239.206 11.8295C238.472 11.8271 237.738 11.8271 237.005 11.8295C236.939 11.8295 236.873 11.8344 236.81 11.8393C236.761 11.8417 236.717 11.8929 236.717 11.9465C236.713 12.0367 236.71 12.1268 236.71 12.2194V20.4124C236.71 20.4383 236.71 20.4642 236.71 20.4901V20.4909C236.71 20.6208 236.709 20.7509 236.717 20.8828C236.744 21.3141 236.803 21.7406 236.942 22.1524C237.024 22.3985 237.134 22.6373 237.293 22.8469C237.546 23.1832 237.875 23.4001 238.292 23.4903C238.565 23.5512 238.838 23.5536 239.111 23.5171C239.461 23.4683 239.803 23.3879 240.137 23.2661C240.2 23.2421 240.265 23.2206 240.33 23.1991C240.377 23.1835 240.424 23.168 240.47 23.1515C240.5 23.1394 240.561 23.1662 240.568 23.1954C240.617 23.3709 240.665 23.5488 240.714 23.7218C240.729 23.7773 240.743 23.8335 240.757 23.8901C240.769 23.9354 240.78 23.9809 240.792 24.0264C240.809 24.0849 240.863 24.0995 240.911 24.0678C241.075 23.9655 241.182 23.8217 241.25 23.6487C241.297 23.5293 241.326 23.3977 241.35 23.271C241.426 22.8957 241.426 22.5179 241.426 22.1402C241.428 20.834 241.428 19.5229 241.428 18.2192H241.431ZM194.517 11.3794C194.517 12.3558 194.516 13.3329 194.518 14.3079C194.518 14.377 194.52 14.4451 194.522 14.5136L194.522 14.5146C194.523 14.5495 194.524 14.5845 194.525 14.6198C194.528 14.6677 194.558 14.6874 194.592 14.7088L194.594 14.71C194.625 14.7295 194.662 14.7441 194.703 14.7563C195.32 14.9488 195.953 15.0341 196.597 15.0292C196.794 15.0268 196.992 15.0122 197.184 14.9781C198.015 14.8172 198.736 14.4444 199.331 13.8376C199.777 13.3794 200.096 12.8457 200.325 12.2536C200.611 11.5152 200.745 10.7451 200.791 9.95796C200.804 9.71792 200.803 9.47499 200.801 9.23361C200.801 9.16133 200.801 9.08918 200.801 9.0173C200.803 8.51773 200.737 8.02547 200.63 7.54051C200.515 7.02632 200.34 6.5365 200.074 6.08079C199.621 5.29609 198.978 4.72585 198.135 4.38224C197.572 4.1483 196.982 4.05082 196.377 4.02158C196.087 4.00695 195.802 4.03863 195.52 4.09225C195.351 4.12636 195.191 4.18241 195.037 4.25796C194.827 4.36275 194.689 4.5309 194.62 4.75266C194.598 4.81348 194.586 4.87916 194.574 4.94484L194.574 4.94517C194.525 5.16206 194.518 5.38382 194.518 5.60802C194.52 7.04338 194.52 8.48361 194.52 9.91897L194.518 9.91653C194.518 10.403 194.518 10.89 194.517 11.3772V11.3794Z" fill="#F2F7DE"/>
<path fill-rule="evenodd" clip-rule="evenodd" d="M269.7 25.7323H274.296L274.284 25.7371C274.627 25.7371 274.971 25.7373 275.315 25.7374H275.315C276.347 25.7379 277.379 25.7384 278.41 25.7347C278.481 25.7347 278.552 25.7372 278.624 25.7397L278.624 25.7397C278.826 25.7468 279.029 25.754 279.229 25.7055C279.282 25.6933 279.287 25.5519 279.28 24.8598C279.28 24.794 279.277 24.7282 279.275 24.6649C279.273 24.621 279.221 24.565 279.173 24.5601C279.029 24.543 278.885 24.526 278.744 24.5089C278.652 24.4988 278.561 24.489 278.469 24.4791L278.468 24.479C278.273 24.458 278.079 24.4371 277.884 24.4139C277.596 24.3773 277.316 24.314 277.045 24.2141C276.643 24.063 276.404 23.7778 276.321 23.3587C276.28 23.1394 276.243 22.92 276.243 22.6958C276.243 22.5297 276.241 22.3636 276.239 22.1975C276.238 22.115 276.237 22.0326 276.236 21.9501V15.87C276.236 15.8441 276.236 15.8179 276.237 15.7916C276.237 15.7388 276.238 15.6857 276.236 15.6336C276.236 15.5556 276.251 15.4825 276.285 15.4094C276.438 15.0755 276.611 14.7539 276.833 14.459C276.999 14.2397 277.189 14.0398 277.413 13.879C277.823 13.5866 278.271 13.5135 278.756 13.6329C279.012 13.6987 279.251 13.8059 279.47 13.9497C279.665 14.0788 279.855 14.2202 280.043 14.3615C280.206 14.4882 280.386 14.5516 280.589 14.5565C280.771 14.5613 280.954 14.537 281.13 14.476C281.303 14.4127 281.464 14.3274 281.619 14.2299C281.661 14.2031 281.71 14.186 281.758 14.169C281.766 14.1641 281.79 14.1714 281.79 14.1739C281.791 14.1834 281.792 14.1929 281.793 14.2024C281.797 14.2458 281.801 14.2882 281.797 14.3323C281.758 14.7124 281.78 15.0902 281.844 15.4654C281.953 16.0917 282.197 16.6669 282.563 17.1884C282.799 17.5198 283.072 17.8195 283.369 18.0949C283.737 18.4312 284.142 18.7212 284.563 18.9868C285.041 19.2841 285.541 19.5424 286.045 19.7861C286.364 19.9397 286.681 20.0932 286.998 20.2516C287.361 20.4319 287.71 20.6415 288.036 20.8828C288.268 21.0582 288.482 21.2483 288.667 21.4701C288.882 21.7284 289.03 22.0159 289.101 22.34C289.152 22.5691 289.15 22.8079 289.138 23.0419C289.128 23.2368 289.079 23.4269 288.999 23.6097C288.694 24.2945 288.143 24.6454 287.412 24.7185C286.82 24.7819 286.267 24.6332 285.743 24.37C285.331 24.158 284.965 23.8826 284.634 23.5634C284.273 23.2198 283.961 22.8323 283.681 22.4205C283.269 21.8137 282.933 21.1654 282.663 20.4831C282.609 20.3523 282.552 20.2196 282.496 20.0903L282.495 20.0879L282.48 20.0518C282.356 20.0064 282.232 20.0164 282.106 20.0265C282.085 20.0282 282.064 20.0298 282.043 20.0313C282.021 20.0328 281.998 20.0341 281.975 20.0347C281.854 20.0366 281.733 20.0488 281.611 20.061C281.577 20.0645 281.542 20.068 281.507 20.0713C281.471 20.0737 281.437 20.1029 281.432 20.1492C281.429 20.2004 281.427 20.254 281.427 20.3052C281.431 20.7616 281.47 21.2165 281.509 21.6711L281.509 21.6714L281.51 21.6759C281.52 21.7925 281.53 21.9091 281.539 22.0257C281.564 22.3379 281.602 22.647 281.639 22.9567L281.656 23.0971L281.668 23.1954C281.727 23.7023 281.805 24.2067 281.905 24.7039C281.939 24.8696 282.007 24.9987 282.165 25.0743C282.244 25.1096 282.321 25.1511 282.398 25.1926C282.459 25.2255 282.52 25.2586 282.582 25.2887C283.021 25.4983 283.479 25.6543 283.944 25.781C284.807 26.0149 285.682 26.1514 286.581 26.1417C287.12 26.1368 287.654 26.0807 288.177 25.9711C288.926 25.82 289.642 25.5714 290.312 25.201C290.831 24.9159 291.307 24.5723 291.714 24.1385C292.352 23.4659 292.762 22.6788 292.925 21.7625C293.003 21.3336 293.013 20.9071 292.988 20.4734C292.937 19.5863 292.64 18.7919 292.072 18.1022C291.796 17.7635 291.475 17.4759 291.129 17.2176C290.719 16.9105 290.281 16.6498 289.827 16.4134C289.272 16.1234 288.699 15.8675 288.121 15.6214C287.831 15.4971 287.546 15.368 287.264 15.2291C286.947 15.0755 286.647 14.8879 286.367 14.6686C286.172 14.515 285.991 14.3444 285.84 14.1446C285.438 13.6036 285.331 13.0041 285.521 12.3632C285.731 11.637 286.362 11.1545 287.098 11.079C287.454 11.0448 287.805 11.096 288.143 11.2081C288.602 11.3592 288.989 11.6151 289.338 11.9416C289.686 12.2633 289.974 12.6337 290.234 13.0285C290.502 13.433 290.731 13.8571 290.943 14.2933C290.997 14.4005 291.048 14.5053 291.099 14.6101C291.121 14.6588 291.182 14.6832 291.231 14.6686C291.506 14.5833 291.779 14.498 292.055 14.4078C292.061 14.4058 292.068 14.4035 292.074 14.4009C292.091 14.394 292.108 14.3857 292.128 14.3786C292.182 14.3542 292.211 14.3176 292.206 14.2592C292.205 14.237 292.203 14.2147 292.202 14.1924C292.197 14.0849 292.191 13.9762 292.177 13.8692C292.06 13.0529 291.918 12.2438 291.723 11.4421C291.645 11.1131 291.555 10.7865 291.441 10.4648C291.389 10.3138 291.307 10.2285 291.158 10.17C290.339 9.86779 289.496 9.69964 288.628 9.66553C288.355 9.65486 288.078 9.65727 287.803 9.65967L287.685 9.66065C287.069 9.66309 286.459 9.74107 285.86 9.89216C284.768 10.1578 283.805 10.6549 283.026 11.4786C283.001 11.5054 282.97 11.5347 282.935 11.5493C282.921 11.5566 282.879 11.5493 282.875 11.5371C282.863 11.5146 282.858 11.489 282.854 11.4637L282.854 11.4634C282.851 11.4504 282.849 11.4374 282.845 11.425C282.692 10.7256 282.273 10.2333 281.637 9.9214C281.351 9.7825 281.047 9.70695 280.732 9.6704C280.279 9.61923 279.843 9.69964 279.441 9.91409C279.268 10.0067 279.102 10.1139 278.941 10.226C278.702 10.3893 278.488 10.5794 278.283 10.7841C277.862 11.1984 277.484 11.6492 277.148 12.1317C276.977 12.3753 276.815 12.6233 276.653 12.8713C276.572 12.9954 276.491 13.1194 276.409 13.243C276.38 13.2837 276.345 13.3221 276.311 13.3581L276.309 13.3599C276.304 13.3648 276.28 13.3551 276.273 13.3502C276.235 13.3188 276.238 13.2779 276.24 13.2364C276.24 13.2264 276.241 13.2163 276.241 13.2064C276.239 12.1634 276.239 11.1155 276.239 10.0701C276.239 9.9826 276.234 9.89514 276.23 9.80768L276.228 9.76654C276.228 9.75074 276.227 9.73494 276.226 9.71914C276.226 9.68746 276.178 9.65334 276.143 9.65822C276.133 9.65975 276.122 9.66118 276.111 9.66261C276.07 9.668 276.028 9.67347 275.99 9.68502C275.135 9.93603 274.272 10.1456 273.402 10.3284C272.746 10.4673 272.093 10.5916 271.433 10.6866L271.424 10.6879C271.012 10.7459 270.601 10.804 270.187 10.8621C270.139 10.8695 270.091 10.8764 270.042 10.8834C269.948 10.8968 269.854 10.9102 269.761 10.9279C269.741 10.9327 269.712 10.962 269.71 10.9815C269.7 11.0473 269.695 11.1106 269.693 11.1764C269.692 11.246 269.691 11.3161 269.691 11.3864V11.3905C269.69 11.5282 269.689 11.6665 269.685 11.8027C269.683 11.8202 269.66 11.8376 269.641 11.8515L269.634 11.8563C269.629 11.8612 269.607 11.8539 269.6 11.8466C269.528 11.774 269.457 11.6991 269.387 11.6241L269.387 11.6239L269.386 11.6224C269.04 11.2422 268.655 10.9059 268.223 10.6281C267.246 9.99451 266.174 9.66309 265.001 9.65822C264.258 9.65578 263.544 9.79712 262.845 10.0262C261.263 10.5477 259.545 11.771 258.495 13.1893C257.481 14.5638 256.913 16.1015 256.774 17.7952C256.72 18.419 256.737 19.0453 256.815 19.674C256.913 20.4295 257.091 21.163 257.393 21.8624C258.241 23.8241 259.677 25.145 261.721 25.7908C262.272 25.9638 262.84 26.0661 263.415 26.1173C264.214 26.188 265.006 26.1392 265.789 25.9248C266.659 25.686 267.456 25.3082 268.196 24.8014C269.178 24.1263 269.983 23.271 270.655 22.2913C270.66 22.2838 270.665 22.2753 270.669 22.2665L270.67 22.2663L270.67 22.2655C270.673 22.2608 270.675 22.256 270.678 22.2513C270.683 22.2422 270.689 22.2333 270.694 22.2255C270.728 22.1719 270.716 22.1256 270.685 22.0793C270.519 21.8454 270.351 21.6138 270.18 21.3823C270.161 21.3555 270.102 21.3507 270.073 21.3726C270.025 21.4079 269.978 21.4433 269.932 21.4786C269.885 21.5139 269.838 21.5493 269.79 21.5846C269.391 21.8843 268.966 22.1402 268.508 22.3376C267.426 22.8152 266.305 22.981 265.133 22.7689C264.273 22.6154 263.527 22.2304 262.901 21.6187C262.455 21.1825 262.116 20.6732 261.86 20.1078C261.487 19.2768 261.295 18.3995 261.231 17.493C261.208 17.1834 261.209 17.1833 261.482 17.1698L261.502 17.1689C261.87 17.1469 262.233 17.1299 262.601 17.1128C262.692 17.1067 262.784 17.1024 262.876 17.0981L262.876 17.0981L262.877 17.0981C262.916 17.0963 262.954 17.0945 262.993 17.0925C263.045 17.0899 263.097 17.087 263.149 17.0836C263.367 17.07 263.585 17.0562 263.803 17.0424C264.213 17.0164 264.622 16.9905 265.031 16.9666C265.418 16.9409 265.807 16.9172 266.196 16.8936C266.396 16.8815 266.596 16.8694 266.795 16.8569C266.846 16.8545 266.9 16.8496 266.953 16.8423C267.437 16.8061 267.921 16.7679 268.407 16.7295L268.52 16.7205C268.991 16.6815 269.461 16.6425 269.927 16.5645C270.421 16.4841 270.719 16.1965 270.836 15.714C270.892 15.4971 270.919 15.2754 270.894 15.0536C270.867 14.7928 270.833 14.5321 270.782 14.2762C270.641 13.5744 270.351 12.9383 269.958 12.3413C269.925 12.2926 269.892 12.2446 269.859 12.1966C269.825 12.1484 269.791 12.1001 269.758 12.0513C269.751 12.0415 269.751 12.022 269.758 12.0147C269.776 12.0001 269.802 11.9782 269.817 11.9831C270.139 12.044 270.453 12.1293 270.76 12.2487C270.833 12.2779 270.904 12.3096 270.972 12.3462C271.267 12.4997 271.455 12.7409 271.535 13.0626C271.579 13.2405 271.615 13.4208 271.618 13.6036C271.619 13.7188 271.622 13.8341 271.625 13.9495V13.9505C271.629 14.096 271.633 14.2418 271.633 14.3883C271.635 16.8862 271.635 19.384 271.633 21.8819C271.633 22.1404 271.625 22.3942 271.618 22.6525L271.618 22.6666C271.615 22.8786 271.584 23.0809 271.547 23.2905C271.45 23.8485 271.138 24.2067 270.582 24.3481C270.302 24.4188 270.019 24.4626 269.734 24.5065C269.673 24.5154 269.621 24.5218 269.576 24.5274L269.576 24.5274C269.446 24.5434 269.379 24.5517 269.345 24.5895C269.309 24.6293 269.309 24.7018 269.31 24.8509C269.31 24.8847 269.31 24.9225 269.31 24.9646C269.31 25.162 269.31 25.3594 269.313 25.5519C269.313 25.5909 269.32 25.6324 269.334 25.6689C269.342 25.6908 269.369 25.7152 269.388 25.7176C269.49 25.7274 269.595 25.7323 269.7 25.7323ZM263.632 15.4338V15.4459C262.94 15.4508 262.249 15.4581 261.557 15.4654L261.556 15.4654C261.516 15.4654 261.481 15.4611 261.445 15.4565L261.439 15.4557C261.407 15.4533 261.375 15.407 261.378 15.3728C261.38 15.1006 261.425 14.837 261.471 14.5699L261.48 14.5175C261.575 13.9789 261.721 13.4501 261.941 12.9456C262.087 12.6093 262.265 12.2925 262.489 12.0026C262.694 11.7442 262.925 11.52 263.21 11.3495C263.517 11.1618 263.849 11.0619 264.214 11.0643C264.524 11.0668 264.806 11.1545 265.065 11.3153C265.265 11.4421 265.435 11.6053 265.581 11.7905C265.813 12.0781 265.981 12.4022 266.105 12.7483C266.344 13.4062 266.437 14.0861 266.417 14.7831C266.412 14.8903 266.395 14.9927 266.354 15.0902C266.305 15.2071 266.215 15.2802 266.096 15.3046C265.979 15.3241 265.862 15.3363 265.745 15.3436C265.491 15.3582 265.237 15.3687 264.983 15.3792C264.898 15.3827 264.813 15.3862 264.728 15.3899C264.607 15.3948 264.485 15.3994 264.363 15.404C264.119 15.4132 263.876 15.4224 263.632 15.4338Z" fill="#F2F7DE"/>
<path fill-rule="evenodd" clip-rule="evenodd" d="M178.802 10.5891H174.99L175 10.5818H170.874C170.694 10.5867 170.669 10.6038 170.669 10.7817C170.667 11.0677 170.669 11.3538 170.672 11.6423V11.6431L170.672 11.6468C170.672 11.7223 170.708 11.7613 170.786 11.7759C170.876 11.793 170.967 11.8095 171.057 11.826C171.237 11.8591 171.417 11.8921 171.598 11.9295C171.851 11.9855 172.102 12.0562 172.346 12.1585C172.504 12.2243 172.653 12.3047 172.782 12.4168C172.958 12.5752 173.053 12.7726 173.048 13.0066C173.048 13.0992 173.038 13.1918 173.019 13.2795C172.98 13.4598 172.926 13.6353 172.85 13.801C172.815 13.8791 172.78 13.9575 172.745 14.0359C172.689 14.1606 172.633 14.2851 172.575 14.4078C172.114 15.3753 171.571 16.2989 170.971 17.1908C170.901 17.3005 170.857 17.3005 170.757 17.2127C170.679 17.1396 170.604 17.069 170.526 16.9983C169.027 15.6117 167.508 14.2494 165.939 12.9408C165.829 12.8482 165.717 12.7556 165.605 12.6654C165.578 12.6434 165.551 12.6215 165.523 12.5994L165.521 12.5978L165.521 12.5976C165.458 12.5469 165.395 12.4959 165.332 12.4436C165.227 12.3535 165.225 12.3072 165.327 12.2341C165.452 12.1441 165.578 12.0557 165.703 11.9676L165.703 11.9675C165.792 11.9053 165.881 11.8433 165.968 11.7808C166.558 11.3665 167.145 10.9522 167.711 10.5087C168.008 10.2748 168.303 10.0359 168.571 9.76545C168.8 9.5315 169.005 9.27806 169.173 8.99294C169.402 8.60547 169.548 8.18875 169.587 7.73792C169.626 7.29439 169.612 6.85087 169.531 6.40978C169.327 5.28635 168.788 4.35544 167.935 3.60243C167.377 3.1126 166.743 2.75925 166.044 2.51068C165.145 2.189 164.214 2.07203 163.263 2.09884C163.228 2.10016 163.192 2.10132 163.156 2.10248C162.995 2.10775 162.834 2.11299 162.676 2.13296C161.487 2.29136 160.4 2.71295 159.43 3.42697C158.716 3.95091 158.126 4.59183 157.673 5.35703C157.295 5.9955 157.034 6.67785 156.949 7.4138C156.81 8.61034 156.99 9.76057 157.522 10.8499C157.868 11.5615 158.338 12.1853 158.884 12.7531C158.915 12.7847 158.945 12.816 158.976 12.8472C159.038 12.9099 159.099 12.9723 159.159 13.0358C159.196 13.0699 159.184 13.1357 159.14 13.1674C159.094 13.201 159.049 13.232 159.004 13.263C158.974 13.2837 158.943 13.3044 158.913 13.3258C158.745 13.4454 158.575 13.5643 158.406 13.6833L158.405 13.684L158.405 13.6841C158.136 13.8727 157.867 14.0617 157.6 14.2543C157.1 14.6125 156.613 14.9902 156.159 15.407C155.823 15.714 155.504 16.043 155.228 16.411C154.831 16.9398 154.541 17.5222 154.38 18.1656C154.297 18.497 154.261 18.8309 154.232 19.1696C154.19 19.6034 154.219 20.0347 154.288 20.4612C154.434 21.3507 154.763 22.1719 155.26 22.9225C156.159 24.2799 157.395 25.2035 158.923 25.742C159.883 26.0783 160.877 26.2221 161.894 26.2148C162.42 26.2124 162.937 26.1344 163.446 26.0028C164.238 25.7981 164.967 25.4471 165.651 25.0061C166.268 24.6064 166.831 24.141 167.357 23.6243C167.818 23.1784 168.244 22.7007 168.644 22.1987C168.7 22.1256 168.761 22.0574 168.827 21.994C168.839 21.9818 168.881 21.9818 168.895 21.994C168.959 22.0403 169.017 22.0939 169.073 22.15C169.333 22.4174 169.595 22.6837 169.856 22.9502L169.857 22.9514L169.858 22.9517C170.118 23.2166 170.378 23.4817 170.638 23.7486C170.984 24.1044 171.33 24.4651 171.673 24.8257C171.856 25.0182 172.068 25.1669 172.309 25.2766C172.441 25.3375 172.573 25.396 172.704 25.4472C173.528 25.7688 174.386 25.9443 175.256 26.0588C175.67 26.1149 176.087 26.1587 176.506 26.1831C176.821 26.201 177.135 26.2059 177.449 26.2107H177.449C177.605 26.2132 177.762 26.2156 177.919 26.2197C178.01 26.2221 178.063 26.1758 178.095 26.0929C178.11 26.0564 178.129 26.0223 178.151 25.9906C178.236 25.8736 178.2 25.7713 178.124 25.6689C178.087 25.6202 178.054 25.5693 178.021 25.5184C178.004 25.4929 177.988 25.4675 177.971 25.4423C176.248 22.9152 174.305 20.5757 172.061 18.4897C171.9 18.3435 171.9 18.3362 172.019 18.1729C172.13 18.0171 172.242 17.8624 172.354 17.7079C172.419 17.6183 172.484 17.5289 172.548 17.4394C172.72 17.2041 172.891 16.9687 173.062 16.7333C173.575 16.0274 174.088 15.3216 174.605 14.6198C174.893 14.2324 175.192 13.8498 175.517 13.4915C175.716 13.2673 175.928 13.0529 176.157 12.8555C176.54 12.5289 176.971 12.2828 177.447 12.1244C177.683 12.0464 177.924 11.9855 178.168 11.9368C178.392 11.8943 178.617 11.8605 178.842 11.8267C178.953 11.8102 179.064 11.7936 179.175 11.7759C179.228 11.7662 179.265 11.7223 179.265 11.6663C179.265 11.3444 179.262 11.025 179.26 10.7009L179.26 10.6866C179.26 10.6403 179.209 10.5964 179.155 10.5964C179.036 10.5916 178.921 10.5891 178.802 10.5891ZM165.649 5.41307C165.861 5.96626 165.946 6.54625 165.956 7.11162L165.949 7.11406C165.91 8.03278 165.773 8.90521 165.41 9.73133C165.147 10.3357 164.789 10.8767 164.294 11.3202C164.245 11.3616 164.192 11.4031 164.138 11.4372C164.121 11.4494 164.089 11.4494 164.065 11.4421C164.043 11.4372 164.019 11.4226 163.999 11.4055C163.417 10.9595 162.846 10.5038 162.318 9.99696C162.015 9.70452 161.73 9.40234 161.479 9.06605C161.211 8.70782 160.994 8.32034 160.853 7.89632C160.687 7.39431 160.653 6.87524 160.687 6.34886C160.726 5.77862 160.892 5.2498 161.175 4.7551C161.331 4.47729 161.523 4.23116 161.762 4.02402C162.262 3.58537 162.837 3.40747 163.504 3.50739C164.072 3.59268 164.545 3.84125 164.937 4.25066C165.259 4.58695 165.486 4.98174 165.649 5.41307ZM163.719 22.9263L163.719 22.9263C163.671 22.9287 163.622 22.9311 163.574 22.934C163.557 22.935 163.541 22.936 163.524 22.9371C162.832 22.9274 162.169 22.8006 161.533 22.5374C160.263 22.0111 159.405 21.0948 158.964 19.7959C158.708 19.0453 158.616 18.2655 158.682 17.4784C158.76 16.5255 159.064 15.6409 159.569 14.8294C159.693 14.6296 159.834 14.4395 159.976 14.2519C160.146 14.0288 160.149 14.0311 160.324 14.1794C160.336 14.1898 160.349 14.201 160.363 14.2129C160.657 14.4596 160.952 14.706 161.247 14.9523C162.407 15.9227 163.568 16.8937 164.703 17.8926C165.708 18.7724 166.685 19.6789 167.64 20.6098C167.659 20.6286 167.678 20.6471 167.696 20.6655L167.697 20.666C167.734 20.7024 167.77 20.7384 167.806 20.7755C167.876 20.8462 167.872 20.8974 167.799 20.9778C167.764 21.0168 167.728 21.0558 167.691 21.0923C167.114 21.6796 166.434 22.111 165.688 22.4473C165.208 22.6617 164.708 22.8128 164.187 22.8884C164.032 22.9108 163.876 22.9185 163.719 22.9263Z" fill="#F2F7DE"/>
<path d="M70.4451 18.9064H66.4411C66.3262 18.9064 66.2158 18.9041 66.1012 18.9018L66.0877 18.9015C66.0146 18.8991 65.9683 18.8455 65.9829 18.7724C66.0097 18.6188 66.039 18.4629 66.0706 18.3118C66.1243 18.0437 66.1779 17.7744 66.2315 17.5052C66.2851 17.2359 66.3387 16.9666 66.3923 16.6985C66.4094 16.6084 66.4362 16.5231 66.4654 16.4353C66.47 16.415 66.4955 16.4009 66.5167 16.3892L66.5215 16.3866C66.5434 16.3769 66.5727 16.372 66.597 16.372C66.714 16.3695 66.8334 16.3671 66.9504 16.3671H74.9609C75.038 16.3671 75.1161 16.3697 75.1944 16.3723C75.2473 16.3741 75.3003 16.3759 75.3532 16.3769C75.4044 16.3793 75.4507 16.4329 75.441 16.4841C75.4093 16.6644 75.3776 16.8423 75.3435 17.0226C75.3116 17.1835 75.2799 17.3443 75.2482 17.5048L75.2475 17.5084C75.1681 17.9108 75.0889 18.3124 75.0072 18.7139C74.9999 18.7529 74.9877 18.7919 74.9706 18.8235C74.9536 18.8577 74.9341 18.8942 74.8853 18.8942C74.7659 18.8991 74.6489 18.9015 74.532 18.9015C73.1721 18.904 71.8098 18.904 70.45 18.904L70.4451 18.9064Z" fill="#F2F7DE"/>
<path d="M123.925 5.15963C124.14 6.53162 125.363 7.35774 126.46 7.31632V7.31875C126.682 7.32363 126.928 7.29195 127.169 7.22615C128.295 6.91666 129.114 5.90289 129.038 4.69904C128.992 3.9704 128.697 3.36604 128.132 2.90302C127.717 2.55941 127.235 2.37908 126.699 2.33765C126.077 2.28647 125.497 2.41807 124.99 2.78117C124.181 3.3636 123.833 4.16535 123.925 5.15963Z" fill="#F2F7DE"/>
<path d="M0.919362 3.14183C0.865748 3.15401 0.797511 3.14183 0.780452 3.21981C0.661038 3.17594 0.565994 3.09552 0.475825 3.01023C0.468514 3.00292 0.46364 2.98586 0.466077 2.97855C0.468514 2.9688 0.483136 2.95662 0.490447 2.95906C0.648853 2.9883 0.797511 3.02973 0.919362 3.14183Z" fill="#BBCF79"/>
<path d="M43.7037 36.4962H46.5038L45.1756 32.5484H45.0172L43.7037 36.4962ZM46.0554 39.8032V39.4401H47.4884L46.6305 36.8764H43.5575L42.7167 39.4401H44.1594V39.8032H41.1765V39.4401H42.2975L45.5217 29.8799H45.9872L49.2942 39.4401H50.4298V39.8032H46.0554ZM53.576 40.4148C53.4761 40.5464 53.3981 40.7121 53.347 40.9047C53.2933 41.0996 53.2665 41.3141 53.2665 41.5529C53.2665 41.9696 53.4128 42.2986 53.7101 42.535C54.0074 42.7738 54.4168 42.8908 54.9335 42.8908C55.5695 42.8908 56.1081 42.7056 56.5589 42.34C57.0074 41.972 57.2316 41.5236 57.2316 40.9973C57.2316 40.7584 57.1585 40.5854 57.0147 40.4709C56.8709 40.3563 56.6467 40.3003 56.3542 40.3003H56.1958L54.7531 40.3856C54.7263 40.3856 54.5825 40.388 54.3242 40.3953C54.0634 40.4026 53.8149 40.41 53.576 40.4148ZM53.9976 35.2558V36.6693C53.9976 37.0299 54.0513 37.2785 54.1609 37.415C54.2706 37.549 54.4753 37.6172 54.7677 37.6172C55.0651 37.6172 55.2673 37.549 55.3819 37.4101C55.4964 37.2712 55.5525 37.0275 55.5525 36.6693V35.2558C55.5525 34.9 55.4964 34.6539 55.3819 34.515C55.2673 34.3761 55.0651 34.3079 54.7677 34.3079C54.4729 34.3079 54.2706 34.3761 54.1609 34.5101C54.0513 34.6466 53.9976 34.8927 53.9976 35.2558ZM53.23 40.4148V40.2711C52.9546 40.1809 52.745 40.0274 52.5939 39.8129C52.4477 39.596 52.3721 39.3353 52.3721 39.0258C52.3721 38.6334 52.4648 38.3191 52.6524 38.0851C52.8401 37.8536 53.1398 37.6879 53.5517 37.588V37.4393C53.2543 37.2395 53.0375 37.0177 52.901 36.7692C52.7621 36.523 52.6963 36.2379 52.6963 35.9089C52.6963 35.3874 52.8961 34.939 53.2958 34.5637C53.6954 34.1909 54.1804 34.0032 54.7556 34.0032C55.0748 34.0032 55.3648 34.0569 55.6256 34.1665C55.8863 34.2762 56.13 34.4468 56.3591 34.671C56.5321 34.4297 56.6979 34.2591 56.8587 34.1568C57.0171 34.0544 57.1901 34.0032 57.3802 34.0032C57.5825 34.0032 57.7433 34.052 57.8554 34.1495C57.9675 34.2469 58.0236 34.3834 58.0236 34.5564C58.0236 34.7343 57.9846 34.8635 57.9066 34.9488C57.8286 35.0341 57.7141 35.0755 57.5654 35.0755C57.3997 35.0755 57.2632 35.0048 57.156 34.8586C57.0488 34.7124 56.9854 34.6417 56.9611 34.6417C56.8928 34.6417 56.8197 34.6661 56.7417 34.7197C56.6637 34.7709 56.6004 34.8391 56.5492 34.9195C56.6784 35.1194 56.7685 35.2997 56.8197 35.4654C56.8733 35.6336 56.9001 35.8261 56.9001 36.043C56.9001 36.6156 56.7003 37.0738 56.2957 37.4125C55.8912 37.7513 55.3429 37.9194 54.6483 37.9194C54.5801 37.9194 54.4729 37.917 54.3242 37.9121C54.178 37.9072 54.0634 37.9048 53.9855 37.9048C53.6199 37.9048 53.3372 37.9608 53.1374 38.0729C52.9375 38.185 52.8352 38.3434 52.8352 38.5481C52.8352 38.709 52.8888 38.8259 52.996 38.8917C53.1033 38.9624 53.2836 38.9965 53.5395 38.9965C53.732 38.9965 53.8734 38.9941 53.9708 38.9917C54.0659 38.9892 54.1585 38.9868 54.2438 38.9819L55.4257 38.9234C55.5427 38.9186 55.6548 38.9161 55.7572 38.9137C55.8595 38.9112 55.9521 38.9112 56.0423 38.9112C56.6857 38.9112 57.1365 39.0331 57.3875 39.2743C57.641 39.5205 57.7677 39.9396 57.7677 40.5391C57.7677 41.3457 57.4875 41.9964 56.9245 42.4911C56.364 42.9858 55.6256 43.2344 54.7117 43.2344C54.0269 43.2344 53.4615 43.0808 53.0131 42.7762C52.5671 42.4692 52.3429 42.0939 52.3429 41.6479C52.3429 41.3774 52.4087 41.1483 52.5403 40.9607C52.6695 40.7731 52.901 40.5879 53.23 40.41V40.4148ZM59.8635 39.8032V39.4669H60.8164V34.4687H59.8635V34.1324H60.7628C60.9358 34.1324 61.1552 34.1202 61.4208 34.0983C61.6889 34.0764 61.9691 34.0447 62.2664 34.0008L62.2738 35.4142H62.3834C62.6174 34.9415 62.8903 34.5857 63.2047 34.3517C63.5191 34.1153 63.8773 34.0008 64.2794 34.0008C64.5889 34.0008 64.8375 34.0861 65.0227 34.2542C65.2079 34.4224 65.3005 34.6466 65.3005 34.9317C65.3005 35.1754 65.2347 35.3679 65.1031 35.5141C64.974 35.6628 64.8009 35.7359 64.5865 35.7359C64.3282 35.7359 64.1308 35.6799 63.9967 35.5653C63.8627 35.4508 63.7969 35.2826 63.7969 35.0609V34.9342C63.7969 34.8294 63.7847 34.7538 63.7628 34.71C63.7408 34.6637 63.7067 34.6417 63.6604 34.6417C63.3387 34.6417 63.0292 34.861 62.7368 35.2997C62.4443 35.7359 62.2981 36.2184 62.2981 36.7375V39.4644H63.5313V39.8007H59.8587L59.8635 39.8032ZM70.7741 39.8032H67.199V39.4669H68.2786V34.4687H67.3671V34.1324H68.2518C68.4297 34.1324 68.6514 34.1202 68.9171 34.0983C69.1851 34.0764 69.4654 34.0447 69.7627 34.0008L69.77 39.4644H70.7716V39.8007L70.7741 39.8032ZM68.0958 31.2227C68.0958 30.9912 68.1738 30.7938 68.3249 30.633C68.476 30.4697 68.6661 30.3893 68.8927 30.3893C69.1145 30.3893 69.3046 30.4697 69.4605 30.633C69.6165 30.7938 69.6945 30.9912 69.6945 31.2227C69.6945 31.4566 69.6165 31.6516 69.4605 31.8124C69.3046 31.9708 69.1145 32.0513 68.8927 32.0513C68.6661 32.0513 68.476 31.9708 68.3249 31.8124C68.1738 31.6516 68.0958 31.4566 68.0958 31.2227ZM77.6879 37.9803H78.0315C77.8682 38.6432 77.5734 39.1452 77.1542 39.4912C76.7301 39.8348 76.1916 40.0054 75.536 40.0054C74.7732 40.0054 74.1445 39.7276 73.64 39.1769C73.138 38.6237 72.887 37.9389 72.887 37.1177C72.887 36.2257 73.1599 35.4825 73.7058 34.8903C74.2541 34.2981 74.9463 34.0008 75.787 34.0008C76.4012 34.0008 76.8934 34.1422 77.2639 34.42C77.6318 34.7002 77.8171 35.0731 77.8171 35.541C77.8171 35.7749 77.7513 35.9601 77.6172 36.1014C77.4856 36.2452 77.3077 36.3159 77.0835 36.3159C76.8496 36.3159 76.6644 36.2452 76.5254 36.1063C76.3841 35.965 76.3183 35.7846 76.3183 35.5556C76.3183 35.346 76.3768 35.1632 76.4986 35.0024C76.6205 34.8416 76.6814 34.7538 76.6814 34.7392C76.6814 34.61 76.6059 34.5101 76.4596 34.4395C76.311 34.3688 76.1038 34.3322 75.8382 34.3322C75.3727 34.3322 75.0364 34.4809 74.8268 34.7758C74.6173 35.0731 74.5125 35.5483 74.5125 36.2062V38.3361C74.5125 38.7675 74.6197 39.094 74.8341 39.3182C75.0486 39.54 75.3654 39.6521 75.7846 39.6521C76.2135 39.6521 76.6083 39.4912 76.969 39.1744C77.3297 38.8528 77.5685 38.4555 77.6855 37.9779L77.6879 37.9803ZM84.8211 34.4687H83.9389V34.1324H84.8089C84.9916 34.1324 85.2183 34.1202 85.4839 34.0983C85.7496 34.0764 86.0347 34.0447 86.3369 34.0008V39.4498H87.2629V39.8007H86.3661C86.1322 39.8007 85.8885 39.8105 85.6399 39.83C85.3889 39.8495 85.1257 39.8787 84.8527 39.9177V38.6188H84.7284C84.4652 39.0696 84.1728 39.4035 83.8511 39.6155C83.5319 39.8275 83.1639 39.9348 82.7496 39.9348C82.1745 39.9348 81.748 39.7958 81.4653 39.518C81.1826 39.2402 81.0412 38.8211 81.0412 38.2606C81.0412 38.2557 81.0412 38.2411 81.0412 38.2191C81.0315 38.1363 81.0266 38.0632 81.0266 37.9974V34.4711H80.1298V34.1348H81.012C81.1875 34.1348 81.4068 34.1227 81.6724 34.1007C81.9381 34.0788 82.2232 34.0471 82.5254 34.0032V38.1875C82.5254 38.6456 82.5717 38.9649 82.6667 39.1428C82.7593 39.3206 82.9251 39.4108 83.1541 39.4108C83.5928 39.4108 83.9803 39.1866 84.3166 38.7431C84.6553 38.2971 84.8235 37.7805 84.8235 37.1932V34.4711L84.8211 34.4687ZM90.2848 30.3893H89.2052V30.053H90.2556C90.4335 30.053 90.6553 30.0408 90.9233 30.0164C91.1914 29.992 91.4741 29.9604 91.769 29.9214V39.4669H92.7779V39.8032H89.2028V39.4669H90.2824V30.3893H90.2848ZM95.5659 34.4687H94.6544V34.1324H95.6073V32.5703H96.0971C96.2068 32.5703 96.336 32.5557 96.4846 32.5289C96.6308 32.5045 96.8014 32.4631 96.994 32.4119V34.1324H98.3246V34.4687H96.994V38.6505C96.994 38.921 97.0403 39.1111 97.1353 39.2232C97.2304 39.3377 97.3912 39.3938 97.6081 39.3938C97.7714 39.3938 97.9249 39.328 98.0663 39.1988C98.2076 39.0672 98.3173 38.8893 98.3928 38.6651L98.6609 38.7723C98.5829 39.1452 98.3855 39.4449 98.0663 39.6691C97.7494 39.8958 97.3619 40.0079 96.9111 40.0079C96.4237 40.0079 96.0776 39.9153 95.8705 39.7276C95.6658 39.54 95.561 39.2183 95.561 38.7577V34.4687H95.5659ZM105.248 34.4687H104.366V34.1324H105.236C105.419 34.1324 105.645 34.1202 105.911 34.0983C106.177 34.0764 106.462 34.0447 106.764 34.0008V39.4498H107.69V39.8007H106.793C106.559 39.8007 106.316 39.8105 106.067 39.83C105.816 39.8495 105.553 39.8787 105.28 39.9177V38.6188H105.156C104.892 39.0696 104.6 39.4035 104.278 39.6155C103.959 39.8275 103.591 39.9348 103.177 39.9348C102.602 39.9348 102.175 39.7958 101.892 39.518C101.61 39.2402 101.466 38.8211 101.466 38.2606C101.466 38.2557 101.466 38.2411 101.466 38.2191C101.456 38.1363 101.451 38.0632 101.451 37.9974V34.4711H100.554V34.1348H101.437C101.612 34.1348 101.831 34.1227 102.097 34.1007C102.363 34.0788 102.648 34.0471 102.95 34.0032V38.1875C102.95 38.6456 102.996 38.9649 103.089 39.1428C103.182 39.3206 103.347 39.4108 103.576 39.4108C104.015 39.4108 104.403 39.1866 104.739 38.7431C105.078 38.2971 105.246 37.7805 105.246 37.1932V34.4711L105.248 34.4687ZM109.857 39.8007V39.4644H110.809V34.4663H109.857V34.13H110.756C110.929 34.13 111.148 34.1178 111.414 34.0958C111.682 34.0739 111.962 34.0422 112.259 33.9984L112.267 35.4118H112.376C112.61 34.939 112.883 34.5832 113.198 34.3493C113.512 34.1129 113.87 33.9984 114.272 33.9984C114.582 33.9984 114.83 34.0837 115.016 34.2518C115.201 34.42 115.294 34.6442 115.294 34.9293C115.294 35.173 115.228 35.3655 115.096 35.5117C114.967 35.6604 114.794 35.7335 114.579 35.7335C114.321 35.7335 114.124 35.6774 113.99 35.5629C113.856 35.4484 113.79 35.2802 113.79 35.0584V34.9317C113.79 34.8269 113.778 34.7514 113.756 34.7075C113.734 34.6612 113.7 34.6393 113.653 34.6393C113.332 34.6393 113.022 34.8586 112.73 35.2973C112.437 35.7335 112.291 36.216 112.291 36.7351V39.462H113.524V39.7983H109.852L109.857 39.8007ZM122.324 37.9803H122.661C122.488 38.6481 122.185 39.1525 121.757 39.4937C121.328 39.8373 120.777 40.0054 120.112 40.0054C119.344 40.0054 118.703 39.7276 118.189 39.1769C117.675 38.6237 117.419 37.9487 117.419 37.1469C117.419 36.2867 117.679 35.5483 118.206 34.9293C118.732 34.3103 119.366 34.0008 120.112 34.0008C120.843 34.0008 121.449 34.2372 121.934 34.7051C122.417 35.1754 122.661 35.7676 122.661 36.4792V36.6083H119.073V38.341C119.073 38.7382 119.185 39.0575 119.41 39.2963C119.631 39.5375 119.931 39.6545 120.306 39.6545C120.777 39.6545 121.194 39.5034 121.559 39.2012C121.925 38.8966 122.181 38.4896 122.324 37.9803ZM121.091 36.2038V35.4215C121.091 35.0536 121.008 34.7855 120.845 34.6125C120.679 34.4395 120.426 34.3517 120.085 34.3517C119.746 34.3517 119.493 34.4419 119.322 34.6198C119.154 34.7977 119.071 35.0633 119.071 35.4215V36.2038H121.089H121.091ZM127.237 39.0477C127.237 39.3109 127.147 39.5327 126.964 39.7227C126.779 39.9128 126.565 40.0079 126.311 40.0079C126.053 40.0079 125.834 39.9153 125.653 39.7276C125.475 39.54 125.388 39.3158 125.388 39.0477C125.388 38.7772 125.478 38.5506 125.653 38.3629C125.834 38.1753 126.053 38.0827 126.311 38.0827C126.57 38.0827 126.787 38.1777 126.964 38.3678C127.145 38.5579 127.235 38.7821 127.235 39.0477H127.237ZM138.165 30.0993L138.289 33.1893H137.87C137.687 32.1244 137.424 31.3982 137.078 31.0009C136.732 30.6062 136.201 30.4063 135.479 30.4063C135.355 30.4063 135.265 30.4088 135.204 30.4112C135.141 30.4136 135.085 30.4161 135.036 30.4209L135.029 39.4401H136.535V39.8032H131.712V39.4401H133.213V30.4209H132.774C132.036 30.4209 131.5 30.6135 131.166 30.9936C130.832 31.3738 130.571 32.1073 130.379 33.1893H129.96L130.084 30.0993H138.163H138.165ZM143.695 37.9828H144.031C143.858 38.6505 143.556 39.1549 143.127 39.4961C142.698 39.8397 142.147 40.0079 141.482 40.0079C140.714 40.0079 140.073 39.7301 139.559 39.1793C139.045 38.6261 138.789 37.9511 138.789 37.1493C138.789 36.2891 139.05 35.5507 139.576 34.9317C140.102 34.3127 140.736 34.0032 141.482 34.0032C142.213 34.0032 142.82 34.2396 143.305 34.7075C143.787 35.1778 144.031 35.77 144.031 36.4816V36.6108H140.444V38.3434C140.444 38.7407 140.556 39.0599 140.78 39.2987C141.002 39.54 141.301 39.6569 141.677 39.6569C142.147 39.6569 142.564 39.5059 142.929 39.2037C143.295 38.8991 143.551 38.4921 143.697 37.9828H143.695ZM142.461 36.2062V35.424C142.461 35.056 142.379 34.7879 142.215 34.6149C142.05 34.4419 141.796 34.3542 141.455 34.3542C141.116 34.3542 140.863 34.4443 140.692 34.6222C140.524 34.8001 140.441 35.0657 140.441 35.424V36.2062H142.459H142.461ZM151.291 37.9828H151.634C151.471 38.6456 151.176 39.1476 150.757 39.4937C150.333 39.8373 149.794 40.0079 149.139 40.0079C148.376 40.0079 147.747 39.7301 147.243 39.1793C146.741 38.6261 146.49 37.9413 146.49 37.1201C146.49 36.2282 146.763 35.4849 147.309 34.8927C147.857 34.3006 148.549 34.0032 149.39 34.0032C150.004 34.0032 150.496 34.1446 150.867 34.4224C151.235 34.7026 151.42 35.0755 151.42 35.5434C151.42 35.7773 151.354 35.9625 151.22 36.1039C151.088 36.2477 150.911 36.3183 150.686 36.3183C150.452 36.3183 150.267 36.2477 150.128 36.1088C149.987 35.9674 149.921 35.7871 149.921 35.558C149.921 35.3484 149.98 35.1657 150.101 35.0048C150.223 34.844 150.284 34.7563 150.284 34.7416C150.284 34.6125 150.209 34.5126 150.062 34.4419C149.914 34.3712 149.707 34.3347 149.441 34.3347C148.976 34.3347 148.639 34.4833 148.43 34.7782C148.22 35.0755 148.115 35.5507 148.115 36.2087V38.3386C148.115 38.7699 148.223 39.0964 148.437 39.3206C148.651 39.5424 148.968 39.6545 149.387 39.6545C149.816 39.6545 150.211 39.4937 150.572 39.1769C150.933 38.8552 151.171 38.458 151.288 37.9803L151.291 37.9828ZM153.813 39.8032V39.4669H154.766V30.3893H153.813V30.053H154.712C154.888 30.053 155.11 30.0408 155.375 30.0164C155.641 29.992 155.921 29.9604 156.216 29.9214V35.2924H156.304C156.776 34.7392 157.142 34.3834 157.41 34.2299C157.676 34.0764 157.985 33.9984 158.339 33.9984C158.904 33.9984 159.328 34.1397 159.616 34.42C159.903 34.7026 160.047 35.1218 160.047 35.6823V35.9309V39.462H160.917V39.7983H157.707V39.462H158.548V35.19C158.548 34.9756 158.49 34.8099 158.373 34.6905C158.256 34.5686 158.095 34.5077 157.89 34.5077C157.483 34.5077 157.108 34.7368 156.764 35.19C156.421 35.6457 156.25 36.1624 156.25 36.7351V39.462H157.132V39.7983H153.811L153.813 39.8032ZM166.256 39.8032H162.935V39.4669H163.888V34.4687H162.935V34.1324H163.834C164.01 34.1324 164.231 34.1202 164.494 34.0983C164.755 34.0764 165.038 34.0447 165.338 34.0008V35.307H165.469C165.732 34.8586 166.025 34.5272 166.344 34.3152C166.663 34.1032 167.031 34.0008 167.446 34.0008C168.016 34.0008 168.445 34.1421 168.735 34.4224C169.025 34.7051 169.169 35.1242 169.169 35.6847V35.9333V39.4644H170.039V39.8007H166.829V39.4644H167.67V35.4142C167.67 35.0633 167.621 34.8294 167.524 34.7075C167.426 34.5857 167.251 34.5247 166.997 34.5247C166.59 34.5247 166.217 34.7514 165.879 35.2047C165.54 35.6555 165.372 36.1697 165.372 36.7399V39.4644H166.254V39.8007L166.256 39.8032ZM173.948 36.1014V37.8926C173.948 38.5262 174.043 38.9795 174.235 39.25C174.428 39.5205 174.742 39.6545 175.181 39.6545C175.619 39.6545 175.936 39.518 176.126 39.25C176.319 38.9795 176.414 38.5262 176.414 37.8926V36.1014C176.414 35.463 176.319 35.0097 176.126 34.7392C175.934 34.4711 175.619 34.3395 175.181 34.3395C174.742 34.3395 174.425 34.4736 174.235 34.7392C174.043 35.0097 173.948 35.463 173.948 36.1014ZM172.293 37.0056C172.293 36.2135 172.583 35.5141 173.161 34.9098C173.738 34.3054 174.411 34.0032 175.181 34.0032C175.951 34.0032 176.626 34.3054 177.204 34.9098C177.781 35.5141 178.069 36.2135 178.069 37.0056C178.069 37.7976 177.781 38.497 177.204 39.1013C176.626 39.7057 175.951 40.0079 175.181 40.0079C174.411 40.0079 173.738 39.7057 173.161 39.1013C172.583 38.497 172.293 37.7976 172.293 37.0056ZM181.317 30.3893H180.238V30.053H181.288C181.466 30.053 181.688 30.0408 181.956 30.0164C182.224 29.992 182.507 29.9604 182.801 29.9214V39.4669H183.81V39.8032H180.235V39.4669H181.315V30.3893H181.317ZM187.578 36.1014V37.8926C187.578 38.5262 187.673 38.9795 187.866 39.25C188.058 39.5205 188.372 39.6545 188.811 39.6545C189.25 39.6545 189.567 39.518 189.757 39.25C189.949 38.9795 190.044 38.5262 190.044 37.8926V36.1014C190.044 35.463 189.949 35.0097 189.757 34.7392C189.564 34.4711 189.25 34.3395 188.811 34.3395C188.372 34.3395 188.056 34.4736 187.866 34.7392C187.673 35.0097 187.578 35.463 187.578 36.1014ZM185.923 37.0056C185.923 36.2135 186.213 35.5141 186.791 34.9098C187.368 34.3054 188.041 34.0032 188.811 34.0032C189.581 34.0032 190.256 34.3054 190.834 34.9098C191.411 35.5141 191.699 36.2135 191.699 37.0056C191.699 37.7976 191.411 38.497 190.834 39.1013C190.256 39.7057 189.581 40.0079 188.811 40.0079C188.041 40.0079 187.368 39.7057 186.791 39.1013C186.213 38.497 185.923 37.7976 185.923 37.0056ZM195.396 40.4148C195.296 40.5464 195.218 40.7121 195.167 40.9047C195.113 41.0996 195.086 41.3141 195.086 41.5529C195.086 41.9696 195.233 42.2986 195.53 42.535C195.827 42.7738 196.237 42.8908 196.753 42.8908C197.389 42.8908 197.928 42.7056 198.379 42.34C198.827 41.972 199.051 41.5236 199.051 40.9973C199.051 40.7584 198.978 40.5854 198.835 40.4709C198.691 40.3563 198.467 40.3003 198.174 40.3003H198.016L196.573 40.3856C196.546 40.3856 196.402 40.388 196.144 40.3953C195.883 40.4026 195.635 40.41 195.396 40.4148ZM195.818 35.2558V36.6693C195.818 37.0299 195.871 37.2785 195.981 37.415C196.09 37.549 196.295 37.6172 196.588 37.6172C196.885 37.6172 197.087 37.549 197.202 37.4101C197.316 37.2712 197.372 37.0275 197.372 36.6693V35.2558C197.372 34.9 197.316 34.6539 197.202 34.515C197.087 34.3761 196.885 34.3079 196.588 34.3079C196.293 34.3079 196.09 34.3761 195.981 34.5101C195.871 34.6466 195.818 34.8927 195.818 35.2558ZM195.05 40.4148V40.2711C194.774 40.1809 194.565 40.0274 194.414 39.8129C194.268 39.596 194.192 39.3353 194.192 39.0258C194.192 38.6334 194.285 38.3191 194.472 38.0851C194.66 37.8536 194.96 37.6879 195.372 37.588V37.4393C195.074 37.2395 194.857 37.0177 194.721 36.7692C194.582 36.523 194.516 36.2379 194.516 35.9089C194.516 35.3874 194.716 34.939 195.116 34.5637C195.515 34.1909 196 34.0032 196.575 34.0032C196.895 34.0032 197.185 34.0569 197.445 34.1665C197.706 34.2762 197.95 34.4468 198.179 34.671C198.352 34.4297 198.518 34.2591 198.679 34.1568C198.837 34.0544 199.01 34.0032 199.2 34.0032C199.402 34.0032 199.563 34.052 199.675 34.1495C199.787 34.2469 199.843 34.3834 199.843 34.5564C199.843 34.7343 199.804 34.8635 199.726 34.9488C199.648 35.0341 199.534 35.0755 199.385 35.0755C199.22 35.0755 199.083 35.0048 198.976 34.8586C198.869 34.7124 198.805 34.6417 198.781 34.6417C198.713 34.6417 198.64 34.6661 198.562 34.7197C198.484 34.7709 198.42 34.8391 198.369 34.9195C198.498 35.1194 198.588 35.2997 198.64 35.4654C198.693 35.6336 198.72 35.8261 198.72 36.043C198.72 36.6156 198.52 37.0738 198.116 37.4125C197.711 37.7513 197.163 37.9194 196.468 37.9194C196.4 37.9194 196.293 37.917 196.144 37.9121C195.998 37.9072 195.883 37.9048 195.805 37.9048C195.44 37.9048 195.157 37.9608 194.957 38.0729C194.755 38.185 194.655 38.3434 194.655 38.5481C194.655 38.709 194.709 38.8259 194.816 38.8917C194.923 38.9624 195.103 38.9965 195.359 38.9965C195.552 38.9965 195.693 38.9941 195.788 38.9917C195.883 38.9892 195.976 38.9868 196.061 38.9819L197.243 38.9234C197.36 38.9186 197.472 38.9161 197.575 38.9137C197.677 38.9112 197.77 38.9112 197.86 38.9112C198.503 38.9112 198.954 39.0331 199.205 39.2743C199.458 39.5205 199.585 39.9396 199.585 40.5391C199.585 41.3457 199.305 41.9964 198.742 42.4911C198.181 42.9858 197.443 43.2344 196.529 43.2344C195.844 43.2344 195.279 43.0808 194.831 42.7762C194.385 42.4692 194.16 42.0939 194.16 41.6479C194.16 41.3774 194.226 41.1483 194.358 40.9607C194.487 40.7731 194.718 40.5879 195.047 40.41L195.05 40.4148ZM204.754 39.8032L202.278 34.4711H201.559V34.1348H204.756V34.4711H203.821L205.373 37.8049H205.49L206.721 34.4711H205.751V34.1348H207.927V34.4711H207.167L204.825 40.7926C204.442 41.8283 204.12 42.4911 203.867 42.7787C203.614 43.0687 203.302 43.2124 202.938 43.2124C202.734 43.2124 202.568 43.1466 202.439 43.0126C202.31 42.8786 202.246 42.7031 202.246 42.4862C202.246 42.2669 202.305 42.0939 202.424 41.9647C202.544 41.8331 202.705 41.7673 202.909 41.7673C203.109 41.7673 203.28 41.838 203.423 41.9818C203.562 42.1256 203.657 42.1962 203.704 42.1962C203.777 42.1962 203.852 42.1304 203.933 41.9988C204.013 41.8672 204.106 41.6552 204.211 41.3628L204.756 39.8032H204.754ZM211.1 39.0477C211.1 39.3109 211.01 39.5327 210.827 39.7227C210.642 39.9128 210.427 40.0079 210.176 40.0079C209.918 40.0079 209.699 39.9153 209.518 39.7276C209.341 39.54 209.253 39.3158 209.253 39.0477C209.253 38.7772 209.341 38.5506 209.518 38.3629C209.699 38.1753 209.918 38.0827 210.176 38.0827C210.432 38.0827 210.652 38.1777 210.83 38.3678C211.01 38.5579 211.1 38.7821 211.1 39.0477ZM218.323 39.8032H213.781V39.4401H215.155V30.4648H213.781V30.0871H218.323V30.4648H216.964V39.4401H218.323V39.8032ZM223.829 39.8032H220.507V39.4669H221.46V34.4687H220.507V34.1324H221.406C221.582 34.1324 221.803 34.1202 222.067 34.0983C222.327 34.0764 222.61 34.0447 222.91 34.0008V35.307H223.041C223.305 34.8586 223.597 34.5272 223.916 34.3152C224.236 34.1032 224.604 34.0008 225.018 34.0008C225.588 34.0008 226.017 34.1421 226.307 34.4224C226.597 34.7051 226.741 35.1242 226.741 35.6847V35.9333V39.4644H227.611V39.8007H224.401V39.4644H225.242V35.4142C225.242 35.0633 225.193 34.8294 225.096 34.7075C224.998 34.5857 224.823 34.5247 224.569 34.5247C224.162 34.5247 223.79 34.7514 223.451 35.2047C223.112 35.6555 222.944 36.1697 222.944 36.7399V39.4644H223.826V39.8007L223.829 39.8032ZM232.95 39.8032H229.629V39.4669H230.582V34.4687H229.629V34.1324H230.528C230.703 34.1324 230.925 34.1202 231.188 34.0983C231.449 34.0764 231.732 34.0447 232.032 34.0008V35.307H232.163C232.426 34.8586 232.719 34.5272 233.038 34.3152C233.357 34.1032 233.725 34.0008 234.14 34.0008C234.71 34.0008 235.139 34.1421 235.429 34.4224C235.719 34.7051 235.863 35.1242 235.863 35.6847V35.9333V39.4644H236.733V39.8007H233.523V39.4644H234.364V35.4142C234.364 35.0633 234.315 34.8294 234.218 34.7075C234.12 34.5857 233.945 34.5247 233.691 34.5247C233.284 34.5247 232.911 34.7514 232.573 35.2047C232.234 35.6555 232.066 36.1697 232.066 36.7399V39.4644H232.948V39.8007L232.95 39.8032ZM240.642 36.1014V37.8926C240.642 38.5262 240.737 38.9795 240.929 39.25C241.122 39.5205 241.436 39.6545 241.875 39.6545C242.313 39.6545 242.63 39.518 242.82 39.25C243.013 38.9795 243.108 38.5262 243.108 37.8926V36.1014C243.108 35.463 243.013 35.0097 242.82 34.7392C242.628 34.4711 242.313 34.3395 241.875 34.3395C241.436 34.3395 241.119 34.4736 240.929 34.7392C240.737 35.0097 240.642 35.463 240.642 36.1014ZM238.987 37.0056C238.987 36.2135 239.277 35.5141 239.854 34.9098C240.432 34.3054 241.105 34.0032 241.875 34.0032C242.645 34.0032 243.32 34.3054 243.897 34.9098C244.475 35.5141 244.763 36.2135 244.763 37.0056C244.763 37.7976 244.475 38.497 243.897 39.1013C243.32 39.7057 242.645 40.0079 241.875 40.0079C241.105 40.0079 240.432 39.7057 239.854 39.1013C239.277 38.497 238.987 37.7976 238.987 37.0056ZM250.436 40.0079H250.041L247.775 34.4711H247.029V34.1348H250.212V34.4711H249.3L250.758 37.9828H250.853L252.242 34.4711H251.25V34.1348H253.365V34.4711H252.649L250.436 40.0079ZM259.022 36.874C258.339 36.8837 257.832 37.0007 257.501 37.2224C257.169 37.4466 257.004 37.7829 257.004 38.2338C257.004 38.5628 257.089 38.8162 257.255 38.9965C257.423 39.1769 257.657 39.267 257.959 39.267C258.271 39.267 258.527 39.1403 258.729 38.8893C258.929 38.6359 259.031 38.3239 259.031 37.9413L259.024 36.874H259.022ZM259.07 39.0648H258.992C258.739 39.384 258.449 39.618 258.13 39.7739C257.81 39.9299 257.452 40.0079 257.06 40.0079C256.575 40.0079 256.207 39.8787 255.961 39.6228C255.71 39.3669 255.588 38.9965 255.588 38.5091C255.588 37.9511 255.858 37.4856 256.404 37.1201C256.948 36.7545 257.635 36.5693 258.466 36.5693H259.029V35.675C259.029 35.1072 258.966 34.7465 258.839 34.5954C258.712 34.4419 258.485 34.3663 258.156 34.3663C257.847 34.3663 257.594 34.4078 257.389 34.4906C257.187 34.5735 257.082 34.6685 257.082 34.7733C257.082 34.7879 257.121 34.8659 257.204 35.0073C257.282 35.151 257.323 35.2973 257.323 35.4484C257.323 35.6384 257.262 35.792 257.14 35.9089C257.021 36.0283 256.862 36.0868 256.665 36.0868C256.451 36.0868 256.287 36.0283 256.173 35.9089C256.058 35.7895 256.002 35.6214 256.002 35.4045C256.002 35.0121 256.209 34.6783 256.626 34.4078C257.04 34.1373 257.567 34.0032 258.208 34.0032C258.605 34.0032 258.968 34.0398 259.295 34.1129C259.621 34.1885 259.872 34.2859 260.045 34.4102C260.199 34.5199 260.306 34.6515 260.362 34.8026C260.42 34.9585 260.447 35.268 260.447 35.7408V39.016C260.447 39.0964 260.486 39.172 260.567 39.2378C260.647 39.3036 260.735 39.3377 260.827 39.3377C260.888 39.3377 260.957 39.3085 261.032 39.2524C261.11 39.1939 261.183 39.1159 261.256 39.016L261.427 39.2085C261.295 39.4595 261.11 39.6521 260.871 39.7958C260.63 39.9372 260.369 40.0079 260.082 40.0079C259.814 40.0079 259.597 39.9299 259.431 39.7764C259.265 39.6228 259.143 39.3889 259.065 39.0648H259.07ZM264.398 34.4687H263.486V34.1324H264.439V32.5703H264.929C265.039 32.5703 265.168 32.5557 265.316 32.5289C265.463 32.5045 265.633 32.4631 265.826 32.4119V34.1324H267.156V34.4687H265.826V38.6505C265.826 38.921 265.872 39.1111 265.967 39.2232C266.062 39.3377 266.223 39.3938 266.44 39.3938C266.603 39.3938 266.757 39.328 266.898 39.1988C267.037 39.0672 267.149 38.8893 267.225 38.6651L267.493 38.7723C267.415 39.1452 267.217 39.4449 266.898 39.6691C266.581 39.8958 266.194 40.0079 265.743 40.0079C265.255 40.0079 264.909 39.9153 264.702 39.7276C264.498 39.54 264.393 39.2183 264.393 38.7577V34.4687H264.398ZM272.915 39.8007H269.34V39.4644H270.42V34.4663H269.508V34.13H270.393C270.571 34.13 270.792 34.1178 271.058 34.0958C271.326 34.0739 271.606 34.0422 271.904 33.9984L271.911 39.462H272.913V39.7983L272.915 39.8007ZM270.237 31.2203C270.237 30.9888 270.315 30.7914 270.466 30.6305C270.617 30.4672 270.807 30.3868 271.034 30.3868C271.255 30.3868 271.445 30.4672 271.601 30.6305C271.757 30.7914 271.835 30.9888 271.835 31.2203C271.835 31.4542 271.757 31.6492 271.601 31.81C271.445 31.9684 271.255 32.0488 271.034 32.0488C270.807 32.0488 270.617 31.9684 270.466 31.81C270.315 31.6492 270.237 31.4542 270.237 31.2203ZM276.68 36.099V37.8902C276.68 38.5238 276.775 38.977 276.968 39.2475C277.16 39.518 277.475 39.6521 277.913 39.6521C278.352 39.6521 278.669 39.5156 278.859 39.2475C279.051 38.977 279.146 38.5238 279.146 37.8902V36.099C279.146 35.4605 279.051 35.0073 278.859 34.7368C278.666 34.4687 278.352 34.3371 277.913 34.3371C277.475 34.3371 277.158 34.4711 276.968 34.7368C276.775 35.0073 276.68 35.4605 276.68 36.099ZM275.025 37.0031C275.025 36.2111 275.315 35.5117 275.893 34.9074C276.471 34.303 277.143 34.0008 277.913 34.0008C278.683 34.0008 279.359 34.303 279.936 34.9074C280.514 35.5117 280.801 36.2111 280.801 37.0031C280.801 37.7951 280.514 38.4945 279.936 39.0989C279.359 39.7032 278.683 40.0054 277.913 40.0054C277.143 40.0054 276.471 39.7032 275.893 39.0989C275.315 38.4945 275.025 37.7951 275.025 37.0031ZM286.419 39.8007H283.097V39.4644H284.05V34.4663H283.097V34.13H283.996C284.172 34.13 284.393 34.1178 284.657 34.0958C284.917 34.0739 285.2 34.0422 285.5 33.9984V35.3046H285.631C285.895 34.8562 286.187 34.5247 286.506 34.3127C286.826 34.1007 287.194 33.9984 287.608 33.9984C288.178 33.9984 288.607 34.1397 288.897 34.42C289.187 34.7026 289.331 35.1218 289.331 35.6823V35.9309V39.462H290.201V39.7983H286.991V39.462H287.832V35.4118C287.832 35.0609 287.783 34.8269 287.686 34.7051C287.588 34.5832 287.413 34.5223 287.159 34.5223C286.752 34.5223 286.38 34.7489 286.041 35.2022C285.702 35.6531 285.534 36.1672 285.534 36.7375V39.462H286.416V39.7983L286.419 39.8007Z" fill="#B7D24B"/>
</svg>
